<svg width="1351" height="1122" viewBox="0 0 1351 1122" fill="none" xmlns="http://www.w3.org/2000/svg">
<circle cx="672.186" cy="579.399" r="528.047" stroke="#0095E5" stroke-width="10"/>
<circle cx="354.965" cy="160.783" r="156.783" fill="url(#paint0_radial_2_69)" stroke="#0095E5" stroke-width="8"/>
<circle cx="983.613" cy="160.783" r="156.783" fill="url(#paint1_radial_2_69)" stroke="#0095E5" stroke-width="8"/>
<circle cx="1189.3" cy="560.569" r="156.783" fill="url(#paint2_radial_2_69)" stroke="#0095E5" stroke-width="8"/>
<circle cx="983.613" cy="960.354" r="156.783" fill="url(#paint3_radial_2_69)" stroke="#0095E5" stroke-width="8"/>
<circle cx="354.965" cy="960.354" r="156.783" fill="url(#paint4_radial_2_69)" stroke="#0095E5" stroke-width="8"/>
<circle cx="160.866" cy="560.569" r="156.783" fill="url(#paint5_radial_2_69)" stroke="#0095E5" stroke-width="8"/>
<path fill-rule="evenodd" clip-rule="evenodd" d="M675.083 95.6009H676.215C676.215 95.6009 709.799 96.1555 720.572 121.081V149.887C720.572 149.887 725.667 145.105 727.542 157.513C728.735 165.404 712.967 184.232 712.967 184.232L709.165 204.173C709.165 204.173 708.792 206.355 707.108 209.26L708.497 228.222C708.497 228.222 746.766 243.554 750.986 246.827C753.751 248.971 759.857 247.935 759.857 247.935C759.857 247.935 790.905 252.921 799.779 260.676C808.648 268.431 829.56 308.869 826.392 315.515C829.56 323.825 826.716 331.58 826.716 331.58C826.716 331.58 824.95 342.104 827.89 345.428C830.829 348.752 832.094 367.586 832.094 373.679V427.411C832.094 429.511 832.993 432.593 834.034 436.162C835.464 441.066 837.163 446.888 837.163 452.338C837.163 455.247 837.596 461.595 838.137 469.503C839.345 487.2 841.088 512.71 839.698 524.962C838.495 535.565 835.262 571.433 835.262 571.433C835.262 571.433 833.362 595.806 830.827 599.13C829.418 600.977 830.943 608.465 832.36 615.422C833.494 620.988 834.558 626.213 833.995 627.936C832.726 631.813 825.124 645.661 825.124 645.661C825.124 645.661 818.153 660.066 801.68 658.404C785.204 656.742 786.471 650.649 786.471 650.649C786.471 650.649 782.034 637.723 782.034 620.645C782.034 603.563 802.944 578.638 802.944 578.638C802.944 578.638 794.552 520.935 791.538 508.287C788.499 495.521 790.46 427.359 790.46 427.359C790.46 427.359 784.392 376.843 778.054 380.167C771.997 383.344 768.655 392.126 764.826 402.186C764.649 402.652 764.471 403.12 764.292 403.591C758.499 418.775 758.979 430.855 759.175 435.786C759.201 436.451 759.223 436.986 759.223 437.381C759.223 440.705 760.489 470.618 762.39 475.049C763.314 477.202 764.836 489.813 766.447 503.166C768.153 517.299 769.959 532.264 771.262 536.536C772.531 540.7 772.679 543.533 772.871 547.226C773.062 550.903 773.298 555.431 774.729 562.97C777.597 578.081 771.262 625.721 771.262 625.721L761.124 665.048C761.124 665.048 741.62 734.29 740.915 744.264C740.436 751.051 740.642 764.513 740.8 774.864C740.874 779.718 740.938 783.887 740.915 786.363C740.846 794.115 745.28 812.951 747.183 817.382C749.086 821.814 754.154 861.698 749.084 872.776C744.013 883.857 730.075 932.601 730.075 932.601L721.204 955.868C721.204 955.868 715.503 973.593 716.135 977.473C716.767 981.35 718.67 985.781 720.572 989.659C722.264 993.111 730.989 1003.15 734.224 1006.87C734.623 1007.33 734.938 1007.69 735.146 1007.94C736.121 1009.07 738.759 1011.08 741.271 1012.99C743.66 1014.81 745.934 1016.54 746.553 1017.35C746.889 1017.79 747.448 1018.27 748.053 1018.79C749.727 1020.23 751.75 1021.97 750.353 1024C748.452 1026.77 741.484 1028.43 737.68 1028.43C735.851 1028.43 726.26 1027.92 716.301 1027.39C705.545 1026.81 694.36 1026.22 692.057 1026.22C687.62 1026.22 683.185 1025.11 681.919 1021.79C681.566 1020.86 681.115 1019.98 680.661 1019.09C679.485 1016.79 678.292 1014.46 678.749 1011.26C678.958 1009.8 679.351 1008.76 679.675 1007.91C680.335 1006.16 680.707 1005.18 678.649 1002.95C675.581 999.629 677.847 983.577 684.183 974.714C688.366 968.863 687.295 954.855 686.448 943.779C686.013 938.079 685.636 933.155 686.066 930.52C686.805 926.002 683.984 907.244 681.5 890.729C679.721 878.896 678.114 868.214 678.114 864.745C678.114 857.452 681.043 823.938 681.759 822.567C681.583 820.146 681.271 815.223 680.879 809.038C680.439 802.093 679.898 793.556 679.335 785.181C678.701 775.764 677.48 661.731 677.48 661.731C677.48 661.731 677.04 606.635 675.083 606.921L675.083 95.6009Z" fill="#8E8E8E"/>
<path fill-rule="evenodd" clip-rule="evenodd" d="M675.083 95.6009H673.95C673.95 95.6009 640.366 96.1555 629.594 121.081V149.887C629.594 149.887 624.499 145.105 622.624 157.513C621.431 165.404 637.198 184.232 637.198 184.232L641.001 204.173C641.001 204.173 641.374 206.355 643.057 209.26L641.669 228.222C641.669 228.222 603.399 243.554 599.18 246.827C596.415 248.971 590.309 247.935 590.309 247.935C590.309 247.935 559.26 252.921 550.387 260.676C541.518 268.431 520.605 308.869 523.773 315.515C520.605 323.825 523.45 331.58 523.45 331.58C523.45 331.58 525.215 342.104 522.275 345.428C519.337 348.752 518.072 367.586 518.072 373.679V427.411C518.072 429.511 517.173 432.593 516.132 436.162C514.701 441.066 513.003 446.888 513.003 452.338C513.003 455.247 512.569 461.595 512.029 469.503C510.82 487.2 509.077 512.71 510.467 524.962C511.67 535.565 514.904 571.434 514.904 571.434C514.904 571.434 516.803 595.806 519.338 599.13C520.747 600.977 519.222 608.465 517.805 615.422C516.672 620.988 515.608 626.213 516.171 627.936C517.439 631.813 525.042 645.661 525.042 645.661C525.042 645.661 532.012 660.066 548.486 658.404C564.962 656.742 563.695 650.649 563.695 650.649C563.695 650.649 568.131 637.723 568.131 620.645C568.131 603.563 547.221 578.638 547.221 578.638C547.221 578.638 555.614 520.935 558.628 508.287C561.666 495.521 559.705 427.359 559.705 427.359C559.705 427.359 565.773 376.843 572.111 380.167C578.169 383.344 581.511 392.126 585.339 402.187C585.516 402.652 585.694 403.12 585.874 403.591C591.666 418.775 591.186 430.855 590.991 435.786C590.964 436.451 590.943 436.986 590.943 437.381C590.943 440.705 589.676 470.618 587.775 475.049C586.852 477.202 585.33 489.813 583.718 503.166C582.013 517.299 580.207 532.264 578.904 536.536C577.634 540.7 577.487 543.533 577.295 547.226C577.103 550.903 576.868 555.431 575.437 562.97C572.568 578.081 578.904 625.721 578.904 625.721L589.042 665.048C589.042 665.048 608.546 734.29 609.25 744.264C609.729 751.051 609.524 764.513 609.366 774.864C609.291 779.718 609.228 783.887 609.25 786.363C609.32 794.115 604.885 812.951 602.982 817.382C601.079 821.814 596.012 861.699 601.081 872.776C606.152 883.857 620.09 932.601 620.09 932.601L628.961 955.868C628.961 955.868 634.663 973.593 634.03 977.473C633.398 981.35 631.495 985.781 629.594 989.66C627.901 993.111 619.176 1003.15 615.941 1006.87C615.543 1007.33 615.228 1007.69 615.019 1007.94C614.045 1009.07 611.407 1011.08 608.895 1012.99C606.506 1014.81 604.231 1016.54 603.612 1017.35C603.276 1017.79 602.717 1018.27 602.113 1018.79C600.438 1020.23 598.416 1021.97 599.812 1024C601.713 1026.77 608.681 1028.43 612.486 1028.43C614.315 1028.43 623.906 1027.92 633.865 1027.39C644.62 1026.81 655.805 1026.22 658.109 1026.22C662.545 1026.22 666.98 1025.11 668.247 1021.79C668.6 1020.86 669.051 1019.98 669.504 1019.09C670.68 1016.79 671.873 1014.46 671.417 1011.26C671.208 1009.8 670.814 1008.76 670.491 1007.91C669.831 1006.16 669.459 1005.18 671.516 1002.95C674.585 999.63 672.318 983.577 665.983 974.714C661.8 968.863 662.87 954.855 663.717 943.779C664.153 938.079 664.529 933.155 664.099 930.52C663.36 926.002 666.181 907.245 668.665 890.729C670.445 878.896 672.051 868.214 672.051 864.745C672.051 857.452 669.123 823.938 668.406 822.567C668.582 820.146 668.894 815.224 669.286 809.038C669.727 802.093 670.268 793.556 670.83 785.181C671.465 775.764 672.685 661.731 672.685 661.731C672.685 661.731 673.126 606.635 675.083 606.921V95.6009Z" fill="#0095E6"/>
<defs>
<radialGradient id="paint0_radial_2_69" cx="0" cy="0" r="1" gradientUnits="userSpaceOnUse" gradientTransform="translate(354.965 160.783) rotate(90) scale(160.783)">
<stop stop-color="#EE68B8"/>
<stop offset="1" stop-color="#D7198B"/>
</radialGradient>
<radialGradient id="paint1_radial_2_69" cx="0" cy="0" r="1" gradientUnits="userSpaceOnUse" gradientTransform="translate(983.613 160.783) rotate(90) scale(160.783)">
<stop stop-color="#EE68B8"/>
<stop offset="1" stop-color="#D7198B"/>
</radialGradient>
<radialGradient id="paint2_radial_2_69" cx="0" cy="0" r="1" gradientUnits="userSpaceOnUse" gradientTransform="translate(1189.3 560.569) rotate(90) scale(160.783)">
<stop stop-color="#EE68B8"/>
<stop offset="1" stop-color="#D7198B"/>
</radialGradient>
<radialGradient id="paint3_radial_2_69" cx="0" cy="0" r="1" gradientUnits="userSpaceOnUse" gradientTransform="translate(983.613 960.354) rotate(90) scale(160.783)">
<stop stop-color="#EE68B8"/>
<stop offset="1" stop-color="#D7198B"/>
</radialGradient>
<radialGradient id="paint4_radial_2_69" cx="0" cy="0" r="1" gradientUnits="userSpaceOnUse" gradientTransform="translate(354.965 960.354) rotate(90) scale(160.783)">
<stop stop-color="#EE68B8"/>
<stop offset="1" stop-color="#D7198B"/>
</radialGradient>
<radialGradient id="paint5_radial_2_69" cx="0" cy="0" r="1" gradientUnits="userSpaceOnUse" gradientTransform="translate(160.866 560.569) rotate(90) scale(160.783)">
<stop stop-color="#EE68B8"/>
<stop offset="1" stop-color="#D7198B"/>
</radialGradient>
</defs>
</svg>
