<svg width="255" height="714" viewBox="0 0 255 714" fill="none" xmlns="http://www.w3.org/2000/svg">
<path d="M250.275 362.878C250.275 362.878 253.421 343.083 254.577 335.002C256.113 324.255 252.697 279.887 252.697 272.688C252.697 265.49 248.822 257.445 248.822 253.634C248.822 249.823 248.822 217.219 248.822 212.561C248.822 207.904 247.852 193.507 245.608 190.966C243.36 188.425 244.71 180.38 244.71 180.38C244.71 180.38 246.886 174.452 244.463 168.1C246.886 163.018 230.9 132.109 224.119 126.181C217.339 120.253 193.604 116.442 193.604 116.442C193.604 116.442 189.002 117.164 186.823 115.595C182.779 112.683 154.344 101.373 154.344 101.373L153.271 86.7201C154.48 84.5806 154.753 82.9903 154.753 82.9903L157.659 67.7469C157.659 67.7469 169.711 53.3566 168.8 47.3232C167.367 37.8399 163.472 41.4938 163.472 41.4938V19.4772C155.238 0.423908 129.566 0 129.566 0H125.359C125.359 0 99.6875 0.423908 91.453 19.4772V41.4965C91.453 41.4965 87.5584 37.8412 86.125 47.3259C85.2131 53.3579 97.2659 67.7495 97.2659 67.7495L100.172 82.9929C100.172 82.9929 100.458 84.6606 101.745 86.8814L100.683 101.376C100.683 101.376 71.4296 113.096 68.2045 115.598C66.091 117.236 61.4232 116.444 61.4232 116.444C61.4232 116.444 37.6897 120.256 30.907 126.184C24.1273 132.112 8.14184 163.022 10.5634 168.103C8.14184 174.455 10.3164 180.383 10.3164 180.383C10.3164 180.383 11.6659 188.428 9.41821 190.969C7.17204 193.509 6.20522 207.906 6.20522 212.564C6.20522 217.222 6.20522 249.825 6.20522 253.636C6.20522 257.448 2.33048 265.493 2.33048 272.691C2.33048 279.889 -1.14475 314.654 0.392345 328.205C1.31186 336.309 3.78371 363.728 3.78371 363.728C3.78371 363.728 5.2354 382.358 7.17354 384.899C9.11168 387.44 3.78373 403.955 4.75204 406.918C5.72187 409.882 11.5332 420.467 11.5332 420.467C11.5332 420.467 16.8612 431.478 29.4538 430.208C42.0479 428.938 41.0796 424.28 41.0796 424.28C41.0796 424.28 44.471 414.399 44.471 401.345C44.471 388.288 28.487 369.234 28.487 369.234C28.487 369.234 34.9023 325.126 37.2064 315.458C39.5288 305.7 38.0298 253.596 38.0298 253.596C38.0298 253.596 42.6686 214.982 47.5131 217.523C52.3577 220.064 54.9302 227.295 58.0334 235.428C63.0579 248.6 61.9082 258.717 61.9082 261.257C61.9082 263.798 60.9398 286.664 59.4866 290.051C58.0334 293.439 54.642 330.701 52.7054 337.052C50.7688 343.403 52.2479 345.706 50.0551 357.258C47.8623 368.809 52.7054 405.225 52.7054 405.225L60.4549 435.287C60.4549 435.287 75.3638 488.216 75.9021 495.839C76.4404 503.46 75.8488 522.091 75.9021 528.02C75.9555 533.946 72.5657 548.344 71.1109 551.731C69.6562 555.119 65.7829 585.607 69.6577 594.074C73.534 602.545 84.1884 639.805 84.1884 639.805L90.9696 657.59C90.9696 657.59 95.3278 671.139 94.8444 674.105C94.361 677.069 92.9062 680.456 91.453 683.421C89.9998 686.384 81.7654 695.699 80.3121 697.391C78.8589 699.085 72.5626 703.319 71.5928 704.589C70.6244 705.86 67.2346 707.555 68.6878 709.672C70.1411 711.789 75.4675 713.06 78.3755 713.06C81.2835 713.06 109.858 711.365 113.25 711.365C116.641 711.365 120.031 710.519 120.999 707.978C121.969 705.437 123.906 703.32 123.422 699.933C122.938 696.546 121.153 696.122 123.499 693.582C125.844 691.042 124.112 678.771 119.269 671.996C114.426 665.222 118.796 644.142 117.829 638.214C116.859 632.286 123.907 594.289 123.907 587.936C123.907 582.361 121.669 556.742 121.121 555.694C121.407 551.766 122.161 539.219 122.974 527.117C123.459 519.918 124.392 432.751 124.392 432.751C124.392 432.751 124.729 390.635 126.225 390.854C129.131 391.275 130.641 432.751 130.641 432.751C130.641 432.751 131.573 519.918 132.058 527.117C132.872 539.218 133.626 551.765 133.912 555.694C133.363 556.741 131.126 582.361 131.126 587.936C131.126 594.289 138.174 632.286 137.204 638.214C136.236 644.142 140.606 665.222 135.765 671.996C130.92 678.771 129.188 691.042 131.535 693.582C133.88 696.12 132.095 696.546 131.611 699.933C131.128 703.32 133.064 705.437 134.033 707.978C135.003 710.519 138.392 711.365 141.784 711.365C145.175 711.365 173.752 713.06 176.658 713.06C179.563 713.06 184.891 711.789 186.346 709.672C187.801 707.555 184.408 705.861 183.439 704.589C182.471 703.319 176.173 699.085 174.72 697.391C173.268 695.698 165.032 686.383 163.581 683.421C162.127 680.454 160.674 677.067 160.189 674.105C159.704 671.139 164.064 657.59 164.064 657.59L170.844 639.805C170.844 639.805 181.5 602.545 185.374 594.074C189.249 585.607 185.374 555.119 183.921 551.731C182.469 548.344 179.078 533.946 179.131 528.02C179.185 522.092 178.593 503.46 179.131 495.839C179.67 488.216 194.577 435.287 194.577 435.287L202.328 405.225C202.328 405.225 207.171 368.809 204.978 357.258C202.786 345.706 204.265 343.404 202.328 337.052C200.392 330.7 197 293.439 195.547 290.051C194.094 286.664 193.125 263.8 193.125 261.257C193.125 258.717 191.992 247.519 197 235.428C200.338 227.367 202.677 220.064 207.52 217.523C212.364 214.982 217.004 253.596 217.004 253.596C217.004 253.596 215.45 305.1 217.827 315.458C220.049 325.141 226.547 369.234 226.547 369.234C226.547 369.234 210.563 388.288 210.563 401.345C210.563 414.399 213.954 424.28 213.954 424.28C213.954 424.28 212.984 428.938 225.578 430.208C238.172 431.478 243.5 420.467 243.5 420.467C243.5 420.467 249.313 409.882 250.282 406.918C251.25 403.955 245.922 387.441 247.859 384.899C249.795 382.357 250.275 362.878 250.275 362.878Z" fill="white" fill-opacity="0.7"/>
<path fill-rule="evenodd" clip-rule="evenodd" d="M126.225 390.854L126.225 0H126.225L126.225 390.854Z" fill="white" fill-opacity="0.7"/>
</svg>
