<svg width="253" height="714" fill="none" xmlns="http://www.w3.org/2000/svg"><path fill-rule="evenodd" clip-rule="evenodd" d="M126.225 0h.865s25.672.424 33.906 19.477v22.02s3.895-3.656 5.328 5.829c.912 6.032-11.14 20.423-11.14 20.423l-2.907 15.244s-.285 1.668-1.572 3.888l1.061 14.495s29.254 11.72 32.479 14.222c2.114 1.638 6.781.846 6.781.846s23.734 3.812 30.516 9.74c6.78 5.928 22.766 36.838 20.344 41.919 2.422 6.352.247 12.28.247 12.28s-1.349 8.045.898 10.586c2.246 2.54 3.213 16.937 3.213 21.595v41.072c0 1.606.688 3.962 1.483 6.689 1.094 3.749 2.392 8.199 2.392 12.366 0 2.223.331 7.076.744 13.121.924 13.527 2.256 33.027 1.194 42.392-.919 8.105-3.391 35.524-3.391 35.524s-1.452 18.63-3.39 21.171c-1.077 1.412.089 7.136 1.172 12.454.866 4.254 1.68 8.248 1.249 9.565-.969 2.964-6.781 13.549-6.781 13.549s-5.328 11.011-17.92 9.741c-12.594-1.27-11.626-5.928-11.626-5.928s-3.392-9.881-3.392-22.935c0-13.057 15.984-32.111 15.984-32.111s-6.415-44.108-8.719-53.776c-2.322-9.758-.823-61.862-.823-61.862s-4.639-38.614-9.484-36.073c-4.63 2.428-7.185 9.142-10.111 16.832l-.409 1.073c-4.427 11.607-4.061 20.841-3.911 24.61.02.509.036.918.036 1.219 0 2.541.969 25.407 2.422 28.794.706 1.646 1.869 11.286 3.101 21.492 1.304 10.804 2.684 22.243 3.68 25.509.971 3.182 1.083 5.349 1.23 8.172.146 2.81.326 6.271 1.42 12.034 2.193 11.551-2.65 47.967-2.65 47.967l-7.749 30.062s-14.909 52.929-15.448 60.552c-.366 5.188-.209 15.479-.088 23.391.057 3.71.105 6.898.088 8.79-.053 5.926 3.337 20.324 4.792 23.711 1.454 3.388 5.328 33.876 1.453 42.343-3.877 8.471-14.531 45.731-14.531 45.731l-6.781 17.785s-4.358 13.549-3.875 16.515c.483 2.964 1.938 6.351 3.391 9.316 1.294 2.638 7.963 10.311 10.436 13.157.305.35.546.627.705.813.745.868 2.762 2.403 4.682 3.865 1.826 1.39 3.565 2.714 4.038 3.333.257.337.684.704 1.146 1.101 1.28 1.099 2.826 2.427 1.759 3.982-1.454 2.117-6.78 3.388-9.688 3.388-1.398 0-8.729-.392-16.342-.799-8.222-.439-16.772-.896-18.532-.896-3.392 0-6.782-.846-7.75-3.387-.27-.707-.615-1.381-.961-2.059-.899-1.758-1.811-3.541-1.462-5.986.16-1.116.46-1.91.708-2.564.504-1.332.789-2.084-.784-3.787-2.346-2.54-.613-14.811 4.23-21.586 3.197-4.472 2.379-15.18 1.732-23.647-.333-4.357-.621-8.121-.293-10.135.565-3.453-1.591-17.792-3.49-30.416-1.36-9.045-2.588-17.21-2.588-19.862 0-5.575 2.239-31.194 2.786-32.241a1562.51 1562.51 0 0 1-.672-10.341c-.337-5.309-.751-11.835-1.181-18.237-.485-7.199-1.418-94.366-1.418-94.366s-.336-42.116-1.832-41.897V0Z" fill="#fff" fill-opacity=".7"/><path fill-rule="evenodd" clip-rule="evenodd" d="M126.225 0h-.866S99.688.424 91.453 19.477v22.02s-3.895-3.656-5.328 5.829c-.912 6.032 11.14 20.423 11.14 20.423l2.907 15.244s.286 1.668 1.573 3.888l-1.062 14.495s-29.253 11.72-32.479 14.222c-2.113 1.638-6.78.846-6.78.846s-23.734 3.812-30.517 9.74c-6.78 5.928-22.765 36.838-20.344 41.919-2.421 6.352-.247 12.28-.247 12.28s1.35 8.045-.898 10.586c-2.246 2.54-3.213 16.937-3.213 21.595v41.072c0 1.606-.687 3.962-1.483 6.689-1.093 3.749-2.392 8.199-2.392 12.366 0 2.223-.331 7.076-.744 13.121C.662 299.339-.67 318.839.392 328.204c.92 8.105 3.392 35.524 3.392 35.524s1.451 18.63 3.39 21.171c1.076 1.412-.09 7.136-1.172 12.454-.867 4.254-1.68 8.248-1.25 9.565.97 2.964 6.781 13.549 6.781 13.549s5.328 11.011 17.92 9.741c12.595-1.27 11.627-5.928 11.627-5.928s3.391-9.881 3.391-22.935c0-13.057-15.984-32.111-15.984-32.111s6.415-44.108 8.72-53.776c2.322-9.758.823-61.862.823-61.862s4.639-38.614 9.483-36.073c4.63 2.428 7.185 9.142 10.111 16.832l.41 1.073c4.427 11.607 4.06 20.841 3.91 24.61-.02.509-.036.918-.036 1.219 0 2.541-.968 25.407-2.421 28.794-.706 1.646-1.87 11.286-3.102 21.492-1.303 10.804-2.684 22.243-3.68 25.509-.97 3.182-1.083 5.349-1.23 8.172-.146 2.81-.326 6.271-1.42 12.034-2.193 11.551 2.65 47.967 2.65 47.967l7.75 30.062s14.909 52.929 15.447 60.552c.367 5.189.21 15.479.088 23.391-.056 3.71-.105 6.898-.088 8.79.053 5.926-3.336 20.324-4.791 23.711-1.455 3.388-5.328 33.876-1.453 42.343 3.876 8.47 14.53 45.731 14.53 45.731l6.782 17.785s4.358 13.549 3.874 16.515c-.483 2.964-1.938 6.351-3.391 9.316-1.294 2.638-7.963 10.311-10.436 13.157l-.705.813c-.745.868-2.761 2.403-4.681 3.865-1.827 1.39-3.565 2.714-4.038 3.333-.257.337-.685.704-1.147 1.101-1.28 1.099-2.826 2.427-1.758 3.982 1.453 2.117 6.78 3.388 9.688 3.388 1.398 0 8.729-.392 16.342-.799 8.221-.439 16.771-.896 18.532-.896 3.391 0 6.781-.846 7.749-3.387.27-.707.615-1.381.962-2.059.899-1.758 1.81-3.541 1.461-5.986-.159-1.115-.46-1.91-.707-2.564-.505-1.332-.789-2.083.784-3.787 2.345-2.54.613-14.811-4.23-21.586-3.198-4.472-2.379-15.18-1.732-23.647.333-4.357.621-8.12.292-10.135-.565-3.453 1.591-17.792 3.49-30.416 1.36-9.045 2.588-17.21 2.588-19.862 0-5.575-2.238-31.194-2.786-32.241.135-1.851.373-5.614.673-10.342.337-5.309.75-11.835 1.18-18.236.485-7.199 1.418-94.366 1.418-94.366s.337-42.116 1.833-41.897V0Z" fill="#0095E6"/></svg>