<svg width="285" height="722" fill="none" xmlns="http://www.w3.org/2000/svg"><path d="m143.369.337-.164 101.232v1.128l-.061 34.328v1.72l-.06 36.94v.049l-.038 23.957v.017l-.027 16.394v.022l-.022 14.205v.038l-.017 8.822-.027 16.036-.049 29.838-.148 92.526-.017 9.204-.317.017h-.028c-2.716.115-4.359-.597-5.142-1.073-.377-.23-.558-.406-.558-.406s-.307 1.725-.706 4.474v.028c-.762 5.235-1.862 14.155-1.862 21.991 0 .438 0 .931-.006 1.484-.005.668-.011 1.412-.022 2.228-.098 7.415-.476 20.677-1.473 33.058v.006c-.033.416-.065.833-.104 1.248-.673 8.033-1.615 15.595-2.924 20.808-.766 3.067-2.256 8.723-3.302 13.586-.137.624-.263 1.238-.383 1.829-.318 1.61-.57 3.066-.696 4.233-.366 3.253-2.234 15.499-3.718 24.737v.011c-.038.241-.076.465-.115.695-.651 4.025-1.221 7.404-1.544 9.09-.022.132-.044.241-.066.351-.005.033-.016.071-.021.098-1.468 7.212 3.477 19.029 4.566 23.251 1.506 5.837 3.516 12.386 3.089 21.038-.334 6.637-2.481 16.472-4.113 23.202-.35 1.44-1.505 5.41-2.896 10.311-.082.279-.165.569-.247.87-2.672 9.402-6.067 21.756-6.417 26.306-.17 2.213-.34 5.859-.449 10.049v.005a214.58 214.58 0 0 0-.05 2.743c-.148 8.74.028 18.859 1.046 23.278 1.643 7.113 2.497 4.184 4.003 12.48 1.144 6.292-7.825 9.944-11.105 10.492-3.286.536-6.023 14.215-8.75 22.418-2.738 8.197-5.47 7.655-9.846 8.745-4.37 1.095-20.775 1.095-26.788 0-6.007-1.09-14.593-7.661-9.128-11.483 5.47-3.833 18.42-15.311 22.796-25.145 3.29-7.415 5.963-13.887 7.551-19.675.104-.367.203-.745.296-1.112.383-1.506.684-2.951.903-4.369 1.09-7.103-1.095-25.146-2.732-30.616-1.643-5.465-6.018-45.926-5.465-59.594.197-5.021 1.062-12.266 2.075-19.417l.427-2.946c.416-2.831.849-5.602 1.26-8.154.575-3.57.898-7.162.974-10.76.006-.411.011-.821.011-1.232a78.348 78.348 0 0 0-1.506-15.688c-2.004-10.068-4.928-23.977-8.17-36.927-4.49-17.967-3.8-49.65-3.384-72.736l.017-1.27c.131-7.305.219-13.679.088-18.394-.543-19.686 6.472-42.175 9.752-49.83 3.116-7.272 9.276-17.43 8.942-25.463 0-.005-.005-.011 0-.016a15.123 15.123 0 0 0-.11-1.232c-.99-7.47 2.508-17.348 1.517-23.059v-.006a7.63 7.63 0 0 0-.416-1.539c-.772-1.911-.996-5.941-1.15-10.141v-.016c-.082-2.13-.142-4.304-.252-6.27v-.028a56.434 56.434 0 0 0-.24-3.126c-.132-1.249-.75-3.773-.75-5.279 0-1.002.038-1.856.098-2.579a19.88 19.88 0 0 0-.088-4.003v-.005a21.765 21.765 0 0 0-.99-4.37c-.138-.422-.291-.876-.45-1.358-.498-1.49-.8-2.878-.964-4.088v-.005a20.766 20.766 0 0 1-.18-1.742 10.2 10.2 0 0 0-.132-1.161 12.573 12.573 0 0 0-1.352-4.079c-1.068-1.982-1.977-4.458-2.695-6.675v-.006c-.92-2.82-1.533-5.246-1.79-5.76-.257-.51-1.358-3.193-2.448-5.892-.05-.115-.093-.214-.126-.296-.75-1.851-1.484-3.685-1.927-4.791-.104-.263-.499-.209-.526.076-.34 3.28-1.478 13.12-3.724 20.748a909.226 909.226 0 0 1-2.316 7.705l-.914 2.984v.011a2953.792 2953.792 0 0 1-4.792 15.417c-.022.077-.043.143-.065.214-.181.58-.329 1.166-.444 1.758-.17.81-.28 1.632-.34 2.458-.782 11.149-3.685 28.721-10.261 41.617-3.894 7.622-20.228 43.194-21.329 48.111-1.09 4.928.214 9.878 1.189 12.808.755 2.262 2.913 4.293 3.767 6.79.98 2.853 2.267 6.035.756 9.802-1.117 2.804-.756 4.528-1.337 8.876-.58 4.37-2.727 6.566-5.464 4.376-2.733-2.185 0-14.763-2.733-15.859-2.732-1.095-9.84 7.656-11.477 10.394-1.643 2.732 7.102 18.037 8.203 20.77 1.09 2.737-3.029 3.127-5.29.859-1.73-1.725-15.497-22.182-14.944-28.743.52-6.264 8.85-20.419 11.664-28.901a6.85 6.85 0 0 0 .104-.307c.093-.296.18-.586.263-.865 1.21-4.227 7.726-73.284 9.697-79.203 2.268-6.79 8.346-17.014 8.346-17.014 1.067-1.62 1.9-11.006 2.59-21.511v-.006c.05-.712.093-1.44.142-2.163.674-10.618 1.221-21.903 1.747-27.188.619-6.16 2.344-11.773 3.822-15.524.701-1.779 1.21-3.614 1.533-5.476v-.021c.181-1.046.307-2.098.367-3.165.028-.384.044-.767.05-1.15.147-8.121 1.796-16.855 3.06-22.424 1.107-4.874 3.291-9.451 6.435-13.339 5.016-6.21 11.055-10.361 17.106-13.181.58-.274 1.167-.536 1.747-.783 6.325-2.694 12.556-4.008 17.561-4.786.373-.06.734-.115 1.09-.164 2.031-.29 3.822-.504 5.3-.69 4.72-.586 17.014-5.531 22.676-9.484h.006c.717-.504 1.33-.986 1.807-1.451h.005c.564-.548.936-1.063 1.068-1.517.416-1.462.345-5.64.142-10.229-.005 0-.005-.016-.005-.022v-.016c-.186-4.217-.482-8.773-.608-11.861a27.746 27.746 0 0 1-.624-.827c-2.497-3.357-4.48-6.79-5.553-9.616-3.827-10.031-.777-45.241 1.632-54.676 2.081-8.154 8.197-20.228 27.609-21.597 0 0 .882-.307 1.9-.06h.006c.219.055.443.126.668.24" fill="#005380"/><path d="M141.6 196.554c-.536 4.835-5.53 12.775-17.095 14.872-12.748 2.322-29.137 2.53-35.796-1.571-6.09-3.746-9.561-19.172-11.045-25.759-.203-.887-.367-1.621-.493-2.141-.69-2.743-4.008-8.291-6.67-12.463-1.774-2.776-1.604-6.325.417-8.838 5.317-6.588 11.455-9.972 23.206-15.064 15.508-6.719 33.234-6.237 40.763-4.354 4.244 1.057 4.227 8.094 4.211 14.303-.006 2.684-.011 5.219.317 7.179 1.035 6.21 2.738 28.896 2.185 33.836Zm.882-12.097c-.044-.772-.093-1.549-.142-2.343-.488-7.694-1.26-16.061-1.846-19.577-.312-1.861-.306-4.353-.301-6.998.016-6.609.038-14.1-5.038-15.37-3.992-.997-10.798-1.61-18.629-1.003-.827.072-1.659.143-2.513.236h-.011c-6.538.712-13.63 2.289-20.316 5.18-5.963 2.585-10.497 4.742-14.231 7.097-3.735 2.354-6.659 4.906-9.386 8.29-2.229 2.76-2.502 6.621-.717 9.742.07.12.147.246.224.372.12.192.247.384.367.57a142.526 142.526 0 0 1 2.322 3.795c.24.388.46.772.673 1.149 1.747 3.023 2.842 5.312 3.17 6.626.127.52.291 1.232.488 2.114.126.569.269 1.188.427 1.867v.006c.187.816.395 1.708.63 2.65v.006c1.867 7.622 5.197 18.672 10.486 21.919 3.954 2.437 10.799 3.406 18.241 3.406 3.816 0 7.786-.257 11.614-.695.728-.088 1.445-.17 2.157-.274h.006a87.7 87.7 0 0 0 4.545-.717c.356-.066.701-.132 1.04-.203.006 0 .011-.005.017-.005 10.727-2.328 15.266-9.211 16.559-13.794.065-.208.12-.427.164-.63.098-.427.17-.827.208-1.193.225-2.027.093-6.801-.208-12.223" fill="#F2F2F2"/><path d="M70.233 170.549c-.01.011-.115.038-.29.104-2.092.772-14.823 5.875-20.217 17.156-3.625 7.573-6.555 17.331-8.91 25.161-1.538 5.12-2.754 9.161-3.706 11.034a71.184 71.184 0 0 1-2.098 3.839v.005c-1.232 2.125-2.097 3.341-2.332 3.658.049-.712.093-1.44.142-2.163.789-1.232 1.966-3.198 3.313-5.843.909-1.779 2.108-5.782 3.63-10.853.81-2.688 1.687-5.618 2.64-8.602.252-.794.515-1.588.772-2.399 1.643-4.961 3.488-9.977 5.558-14.303 5.405-11.307 17.873-16.592 20.617-17.632.328-.132.52-.192.536-.203l.345 1.041" fill="#F2F2F2"/><path d="m43.5 203.935-1.084.164c-.006-.016-.006-.038-.011-.054-.816-5.339-1.955-17.222-2.48-22.89v-.021c.18-1.046.306-2.098.366-3.165l.438-.039c.017.17 1.386 15.579 2.448 23.711v.005c.115.849.219 1.621.323 2.289M140.719 138.46c-.608.274-3.1-1.44-4.792-4.397-.575-1.013-1.391-2.316-2.327-3.822-3.537-5.668-8.887-14.232-12.841-24.62-.931-2.436-2.207-13.75-2.606-17.495 4.172 2.979 8.361 6.166 8.701 6.774.389.81 6.122 18.415 9.917 30.073 1.812 5.574 3.247 9.983 3.762 11.516.492 1.489.268 1.933.186 1.971Zm.849-2.316a2528.86 2528.86 0 0 1-3.757-11.516c-4.156-12.753-7.754-23.804-9.26-28.212-.394-1.16-.64-1.856-.717-1.998-.016-.039-.044-.083-.071-.126-.942-1.336-7.825-6.248-9.966-7.76l-.69-.487c.202.28.41.553.624.827.126 3.088.422 7.644.608 11.86v.017c0 .006 0 .022.005.022.449 3.192.953 6.084 1.391 7.245 1.616 4.254 3.466 8.202 5.334 11.767.186.362.372.712.558 1.063 2.541 4.764 5.071 8.816 7.042 11.975.937 1.495 1.742 2.787 2.306 3.779 1.462 2.557 3.953 4.977 5.612 4.977.208 0 .4-.038.575-.115.876-.389 1.013-1.511.406-3.318M117.129 110.517c-.92 2.437-2.443 5.12-4.074 7.529a55.75 55.75 0 0 1-1.15 1.626c-.975 1.315-1.944 2.486-2.815 3.412a14.503 14.503 0 0 1-7.94 4.326 20.76 20.76 0 0 1-3.844.361c-1.002 0-1.982-.076-2.94-.235-7.048-1.139-7.99-4.304-8.116-5.23.373-.06.734-.115 1.09-.164.06.493.712 3.269 7.2 4.315 2.027.329 4.184.285 6.413-.126 2.815-.52 5.35-1.906 7.343-4.003 2.245-2.365 5.202-6.511 7.02-10.36h.006c.717-.504 1.33-.986 1.807-1.451Z" fill="#F2F2F2"/><path d="M112.246 132.07c-.025 0-.048 0-.072-.006a.806.806 0 0 1-.667-.432c-.574-1.15.282-10.76.559-13.679l1.09.099c-.52 5.492-.904 11.554-.711 12.895 1.355-.383 6.859-4.72 8.98-7.562 1.809-2.426 3.546-5.613 3.563-5.646l.962.526c-.073.132-1.791 3.286-3.647 5.772-1.985 2.661-8.247 8.033-10.057 8.033ZM65.491 236.67l-.914 2.984v.011c-2.005 3.902-6.106 10.67-11.27 12.592a7.95 7.95 0 0 1-2.776.52c-1.177 0-2.333-.285-3.466-.849-3.067-1.533-5.4-4.457-7.157-7.797-.92-1.747-1.687-3.617-2.316-5.452-1.5-4.375-2.251-8.608-2.58-10.836a44.325 44.325 0 0 1-.202-1.594l1.09-.109s.005.044.016.115c.088.777.646 5.196 2.13 10.157.164.526.329 1.052.51 1.583 1.746 5.216 4.544 10.664 8.903 12.898a.812.812 0 0 0 .099.055c.345.175.695.318 1.046.427 1.407.444 2.858.4 4.32-.148 6.79-2.524 11.921-14.683 11.97-14.804l.597.247" fill="#F2F2F2"/><path d="M47.43 251.995c-.07 0-.139-.005-.21-.017l.18-1.08c.104.016 1.067.006 2.633-5.943 1.044-3.965 2.054-9.282 3.123-14.911.943-4.967 1.918-10.103 2.941-14.363 3.264-13.602 16.162-41.228 16.292-41.502l.992.466c-.13.273-12.98 27.795-16.219 41.288-1.017 4.238-1.99 9.363-2.93 14.314-2.621 13.802-4.257 21.748-6.802 21.748M11.679 351.207v-1.096c.027 0 3.26-.121 10.081-5.368 7.275-5.596 17.985-25.971 21.723-46.261 3.772-20.475-6.274-61.423-6.375-61.834l1.062-.263c.103.411 10.205 41.588 6.39 62.296-3.782 20.533-14.7 41.213-22.132 46.93-7.191 5.532-10.608 5.596-10.75 5.596" fill="#F2F2F2"/><path d="M59.785 255.082c-.021.077-.043.143-.065.214-.181.58-.329 1.166-.444 1.758-3.417 3.915-13.07 15.294-14.303 20.178a.078.078 0 0 0-.01.033l-1.063-.263c.159-.646.454-1.396.854-2.217 3.395-6.988 14.38-19.237 14.9-19.818l.131.115M140.045 232.492c-1.593 2.393-4.457 2.908-8.082 3.559-.997.175-2.026.362-3.094.602-3.127.69-8.756 3.067-12.923 4.942a3.03 3.03 0 0 1-2.585-.043 2.956 2.956 0 0 1-1.582-1.969c-2.678-11.061 1.363-19.686 6.56-23.327 5.383-3.773 18.864-4.693 21.274-2.765 2.316 1.85 2.633 15.704.432 19.001Zm2.437-12.978a25.924 25.924 0 0 0-.186-1.55c-.362-2.513-1.019-4.545-1.999-5.322-1.96-1.577-8.608-1.599-14.538-.345-.006 0-.011.005-.017.005-3.148.668-6.094 1.698-8.027 3.05-3.357 2.355-6.265 6.643-7.387 12.266a25.591 25.591 0 0 0-.466 3.888c.006.006 0 .006 0 .011-.016.389-.027.783-.027 1.177 0 2.246.274 4.644.881 7.146a4.065 4.065 0 0 0 2.163 2.697 4.163 4.163 0 0 0 3.516.061c3.373-1.52 9.517-4.165 12.715-4.877 1.04-.235 2.059-.41 3.044-.597 3.729-.662 6.949-1.237 8.806-4.024.596-.893 1.04-2.492 1.325-4.414a37.24 37.24 0 0 0 .197-1.67c.224-2.393.23-5.087 0-7.502M139.634 276.756c-1.215 1.818-3.422 2.218-6.22 2.716-.778.142-1.583.285-2.409.471-2.448.542-6.845 2.398-10.098 3.86a2.246 2.246 0 0 1-1.911-.032 2.191 2.191 0 0 1-1.166-1.452c-2.076-8.569 1.045-15.244 5.059-18.054 2.766-1.938 8.28-2.907 12.222-2.907 1.994 0 3.587.252 4.211.75 1.78 1.424 2.01 12.102.312 14.648Zm.373-15.502c-1.626-1.304-7.332-1.26-12.157-.115-.914.213-1.796.471-2.612.766-.016.006-.027.011-.038.011-1.133.411-2.141.898-2.935 1.451-4.32 3.023-7.699 10.136-5.503 19.21a3.306 3.306 0 0 0 3.225 2.519c.466 0 .931-.099 1.369-.296 2.623-1.177 7.403-3.236 9.884-3.789.81-.181 1.599-.323 2.366-.46 2.935-.526 5.47-.98 6.943-3.187 1.851-2.777 1.851-14.194-.542-16.11" fill="#F2F2F2"/><path d="M141.606 248.621c-.154 1.057-.181 2.086-.208 2.995-.082 2.694-.214 4.134-2.163 4.786-3.97 1.32-18.64 6.002-20.661 6.002-.306 0-.733-.252-1.166-.69-1.654-1.676-3.412-5.947-3.412-11.423v-.252a5.534 5.534 0 0 1 2.24-4.37c2.886-2.13 7.458-4.953 12.885-6.305 4.014-1.008 6.68-1.303 8.427-1.303 1.232 0 2.004.153 2.47.29.465.148.624.301.624.301.449.619 1.489 6.262.964 9.969Zm.876-6.927a43.659 43.659 0 0 0-.208-1.246v-.011c-.257-1.292-.559-2.267-.838-2.546-.515-.515-2.94-2.004-12.578.405-5.602 1.402-10.311 4.301-13.268 6.492a6.631 6.631 0 0 0-2.689 5.24c-.06 5.941 1.829 10.536 3.729 12.452.657.668 1.331 1.019 1.944 1.019.871 0 3.499-.679 6.626-1.583.011 0 .022-.005.038-.011.844-.241 1.72-.498 2.612-.766 5.613-1.687 11.626-3.669 11.73-3.702 1.708-.569 2.393-1.687 2.677-3.05.165-.772.203-1.626.23-2.503 0-.076.006-.158.006-.235.027-.925.055-1.878.197-2.875.285-2.015.126-4.813-.208-7.08M141.474 376.778c-.175.093-1.062.203-5.054-2.453-3.86-2.579-9.484-17.742-16.701-45.077l-.614-2.306c-1.708-6.264-2.108-35.467-.054-39.054 1.67-2.918 12.83-3.953 17.046-4.107 4.928.554 5.503 2.142 5.503 3.286v88.26c0 .121 0 .246.006.372.005.373.022.992-.132 1.079Zm1.227-1.106c-.006-.115-.006-.231-.006-.345v-88.26c0-.444-.071-.854-.208-1.232a2.957 2.957 0 0 0-.268-.548c-.849-1.391-2.847-2.245-6.04-2.601l-.044-.005-.038.005c-1.604.055-15.721.674-17.999 4.66-2.371 4.151-1.643 34.055-.049 39.886.142.532.35 1.315.607 2.3 2.722 10.284 10.99 41.59 17.156 45.702 3.154 2.103 4.649 2.672 5.493 2.672.301 0 .514-.07.695-.17a.574.574 0 0 0 .115-.076c.164-.11.285-.252.367-.416.246-.455.23-1.057.219-1.572M93.964 224.294c-3.325 0-6.623-.481-8.88-2.091-2.624-1.873-9.785-9.364-10.361-15.114-.572-5.722 2.293-20.863 2.323-21.005l1.07.235c-.243 1.112-2.824 15.448-2.303 20.661.516 5.153 7.178 12.381 9.908 14.33 3.954 2.826 12.093 1.769 16.465 1.205l.972-.126c4.186-.526 16.314-10.021 16.436-10.12l.677.86c-.508.4-12.493 9.786-16.978 10.344l-.967.126c-2.302.301-5.344.695-8.362.695Z" fill="#F2F2F2"/><path d="M109.862 231.506c.006.005 0 .005 0 .011a7.101 7.101 0 0 1-.405.783c-.789 1.298-1.807 2.754-2.99 3.904-.29.285-.597.559-.909.794-.876.674-1.823 1.15-2.815 1.276-1.16.143-2.644.268-4.298.268-3.713 0-8.269-.629-11.97-3.093-3.412-2.273-6.265-7.004-8.126-10.563v-.006c-.92-2.82-1.534-5.246-1.791-5.76-.258-.51-1.358-3.193-2.448-5.892.646 1.478 2.42 5.519 3.291 7.271.115.22.252.51.422.855 1.478 3.088 4.95 10.305 9.26 13.18 5.048 3.368 11.893 3.105 15.524 2.65 2.343-.284 4.506-3.126 5.914-5.453a5.671 5.671 0 0 0 .268-5.372c-.816-1.736-2.371-2.892-4.255-3.171l-.049-.005-.121-.017.137-1.079.192.028a6.54 6.54 0 0 1 1.467.383 6.673 6.673 0 0 1 3.62 3.395c.263.553.444 1.128.548 1.725a6.684 6.684 0 0 1-.466 3.888" fill="#F2F2F2"/><path d="M109.2 251.682c-.34.673-.948 1.199-1.786 1.571-.328.148-.69.269-1.084.362-.827.208-1.801.312-2.902.312-2.344 0-5.262-.471-8.575-1.413-4.88-1.396-9.046-6.204-12.146-13.966v-.005a20.724 20.724 0 0 1-.18-1.742 10.178 10.178 0 0 0-.132-1.161l.356-.126c3.061 8.989 7.349 14.503 12.403 15.943 7.814 2.235 12.195 1.479 13.065-.262.69-1.38-1.182-9.118-2.661-14.197-.077-.273-.159-.536-.235-.799l1.051-.312c.027.093.06.197.093.317.838 2.831 3.822 13.298 2.733 15.478" fill="#F2F2F2"/><path d="M112.381 271.559a1.591 1.591 0 0 1-.104.093c-.241.192-.586.34-1.029.433-.433.099-.959.148-1.567.148-2.803 0-7.288-1.051-12.167-3.302-6.44-2.973-10.004-11.921-11.915-16.729a74.81 74.81 0 0 0-.345-.865 19.892 19.892 0 0 0-.143-2.968c.274.526.537 1.084.794 1.681.208.482.444 1.073.712 1.747 1.856 4.665 5.312 13.35 11.357 16.137 7.442 3.434 12.929 3.554 13.635 2.853.876-.881 1.079-4.676-1.216-10.371-.947-2.349-3.329-5.772-4.063-6.801-.137-.186-.213-.296-.219-.301l.882-.652.421.592c.915 1.292 3.061 4.446 3.992 6.751 2.475 6.133 2.24 10.289.975 11.554" fill="#F2F2F2"/><path d="M113.641 306.804c-.38 0-.429 0-4.504-4.277-4.143-4.347-10.403-10.917-13.9-13.364-5.578-3.904-7.284-10.429-8.446-16.238-1.097-5.488-.58-14.558-.558-14.941l1.094.064c-.006.093-.531 9.313.538 14.661 1.12 5.602 2.754 11.885 8 15.557 3.586 2.51 9.892 9.127 14.065 13.506 1.333 1.398 2.613 2.741 3.347 3.462.315-4.012.352-21.461-.173-24.087-.548-2.74-1.918-9.35-1.918-9.35l1.072-.223s1.372 6.616 1.92 9.358c.286 1.43.417 7.801.421 13.481.008 11.543-.369 12.002-.511 12.176l-.164.2-.283.015Z" fill="#F2F2F2"/><path d="M115.928 356.995c-.148-.219-14.869-22.026-20.829-30.694-6.295-9.158-7.828-15.963-8.86-22.148-1.098-6.594 1.95-24.568 2.08-25.329l1.079.184c-.031.185-3.147 18.553-2.078 24.965 1.01 6.064 2.514 12.735 8.682 21.708 4.276 6.219 13.056 19.193 17.737 26.117-1.513-4.208-3.045-10.143-1.718-14.456 2.142-6.962 1.626-30.833 1.621-31.073l1.094-.025c.023.988.526 24.29-1.668 31.419-2.102 6.833 3.744 18.662 3.804 18.781l-.944.551" fill="#F2F2F2"/><path d="M134.033 413.789c-1.046-2.809-3.083-12.249-4.239-17.615-.58-2.695-1.078-5.022-1.369-6.177-1.166-4.66-9.391-23.738-13.793-29.794-2.881-3.954-6.298-12.244-8.247-17.315v-.006c0-.005 0-.005-.006-.011a171.132 171.132 0 0 1-1.571-4.227l-1.03.361c.006.017.017.039.028.077l.005.006c0 .005.006.011.006.016.498 1.424 5.678 15.897 9.928 21.745 4.243 5.832 12.495 24.931 13.618 29.411.285 1.139.783 3.46 1.364 6.144 3.132 14.543 4.232 18.645 5.125 19.072.077.038.164.06.246.06.011-.816.017-1.56.022-2.228-.033.175-.06.339-.087.481Zm-1.796-36.19c-1.326-1.582-2.574-3.072-3.341-4.221-2.015-3.018-10.711-15.136-12.069-17.025a.042.042 0 0 1-.011-.022c-.104-.142-.164-.213-.169-.224l-.887.64c.005.006.043.066.115.165a.112.112 0 0 0 .027.032c.011.017.022.028.033.044 1.331 1.851 10.048 13.991 12.052 16.997.8 1.2 2.07 2.716 3.412 4.321 2.124 2.535 4.769 5.69 4.769 6.899 0 .69-.066 2.371-.18 4.6.399-2.749.706-4.474.706-4.474s.181.176.558.406c.006-.235.011-.417.011-.532 0-1.494-1.987-3.981-5.026-7.606M126.248 486.08l-1.094-.04c.005-.152.526-15.346-1.08-21.775-.347-1.385-1.017-4.371-1.944-8.505-3.552-15.838-10.163-45.318-14.479-56.11-5.447-13.618-11.494-69.907-11.749-72.296l1.071-.207c.035.124 3.566 12.67 10.069 35.973 8.686 31.125 15.135 52.133 19.169 62.441 4.9 12.522 6.594 24.126 6.61 24.241l-1.084.156c-.016-.115-1.694-11.599-6.546-23.999-4.047-10.341-10.508-31.384-19.204-62.545a23102.522 23102.522 0 0 0-8.242-29.468c1.824 15.755 6.636 54.581 10.922 65.298 4.35 10.872 10.973 40.409 14.532 56.277.925 4.125 1.594 7.106 1.937 8.479 1.644 6.578 1.135 21.45 1.112 22.08Z" fill="#F2F2F2"/><path d="M98.489 342.483c-.017.022-.28.334-.734.882-3.203 3.909-15.995 20.08-19.768 33.753-2.289 8.296-4.9 14.407-6.872 18.344a65.302 65.302 0 0 1-.81 1.561c-1.348 2.535-2.246 3.805-2.268 3.838l-.334-.241.017-1.27c1.506-2.426 5.733-9.89 9.216-22.522 4.205-15.251 19.379-33.469 20.638-34.958l.082-.099.833.712Z" fill="#F2F2F2"/><path d="M96.723 490.172c-2.936 0-5.128-1.811-7.041-3.725-2.932-2.931-4.314-10.566-6.606-23.214-.38-2.095-.782-4.321-1.22-6.675-3.039-16.34-11.76-60.611-11.847-61.057l1.074-.211c.088.445 8.81 44.722 11.85 61.068.438 2.356.842 4.583 1.221 6.68 2.176 12.011 3.613 19.946 6.302 22.635 3.255 3.255 6.737 5.703 13.512-.031 6.896-5.835 14.272-46.462 14.345-46.872l1.078.193c-.304 1.689-7.521 41.428-14.716 47.515-3.185 2.696-5.773 3.694-7.952 3.694" fill="#F2F2F2"/><path d="m80.987 522.598-.038-1.095c2.518-.088 4.59-1.128 6.157-3.089 6.86-8.597 2.47-32.016 2.425-32.25l1.076-.207c.188.982 4.528 24.145-2.645 33.136-1.775 2.229-4.122 3.406-6.975 3.505M121.498 515.041v.011a56.15 56.15 0 0 1-.115.695c-1.172.526-4.835 2.032-8.526 2.032-1.982 0-3.97-.433-5.579-1.687-4.233-3.285-1.736-23.833-.504-32.283.235-1.626.421-2.803.509-3.323l1.079.18c0 .017-.006.028-.006.044 0 0 0 .005-.005.011-1.413 8.641-4.233 31.533-.405 34.506 4.605 3.582 13.24-.597 13.328-.64l.224.454M120.398 603.087c-.082.28-.165.57-.247.871l-.416.225c-3.806-7.075-6.478-17.041-8.175-27.057a192.561 192.561 0 0 1-.778-5.043v-.005c-1.298-9.375-1.758-18.366-1.528-24.636.553-14.867 9.906-23.185 9.999-23.273l.586.668.137.154c-.005.011-.077.071-.203.197-1.347 1.287-8.936 9.128-9.423 22.287-.532 14.308 2.672 41.353 10.048 55.612" fill="#F2F2F2"/><path d="M113.285 640.313v.005a214.58 214.58 0 0 0-.05 2.743l-.493.105c-5.306-24.385-2.146-68.504-1.96-71.083l.011-.115 1.095.088c-.005.093-.148 1.944-.328 5.071-.696 12.085-1.966 43.073 1.725 63.186M105.826 644.069c-.093-9.698-.777-29.307-4.254-51.747-5.597-36.124-16.57-63.777-20.442-66.181a1.454 1.454 0 0 0-.367-.17c0 .411-.005.821-.01 1.232 1.144 1.002 4.227 6.16 8.421 18.355 2.75 7.984 7.875 24.696 11.319 46.939 5.947 38.403 4.364 71.466 3.006 73.968-.471.033-1.752-.29-3.209-.717-.4-.11-.81-.235-1.22-.361-.51-.154-1.02-.307-1.507-.466-4.024-1.243-8.58-2.667-10.858-2.338l-3.395.476-.444.072.148 1.04.005.044 3.839-.548c2.032-.296 6.664 1.15 10.382 2.305 3.198.992 5.142 1.572 6.193 1.572.203 0 .373-.022.515-.066.4-.137 1.008-.328 1.484-6.888.318-4.337.46-10.202.394-16.521" fill="#F2F2F2"/><path d="m100.367 666.06-1.057.268-.24-.941c-1.66-6.5-11.478-44.946-14.463-56.391-2.803-10.766-5.727-49.064-6.516-59.933l.427-2.946.46-.028c.038.504 3.45 50.208 6.686 62.622 3.11 11.927 13.613 53.083 14.626 57.037.044.186.071.29.077.312M142.665 102.878c-.345-.044-8.52-1.199-15.691-7.82l.743-.805c6.906 6.374 15.012 7.53 15.093 7.541l-.145 1.084ZM116.554 139.084l-.028.082-.317.959c-.017-.011-.745-.247-2.196-.723h-.011c-2.393-.783-6.746-2.19-13.137-4.206-10.256-3.241-33.693-7.255-33.928-7.293l.005-.028c.58-.274 1.167-.536 1.747-.783 5.443.958 23.733 4.288 32.51 7.059 10.3 3.252 15.305 4.922 15.355 4.933" fill="#F2F2F2"/><path d="M270.009 408.056c-2.261 2.268-6.379 1.878-5.289-.859 1.095-2.733 9.84-18.038 8.197-20.77-1.632-2.738-8.739-11.489-11.477-10.394-2.733 1.096 0 13.674-2.733 15.859-2.732 2.19-4.884-.006-5.465-4.376-.58-4.348-.213-6.072-1.33-8.876-1.512-3.767-.23-6.949.75-9.802.854-2.497 3.017-4.528 3.767-6.79.98-2.93 2.278-7.88 1.188-12.808-1.095-4.917-17.435-40.489-21.323-48.111-6.582-12.896-9.478-30.468-10.261-41.617a19.528 19.528 0 0 0-.334-2.447v-.006a18.173 18.173 0 0 0-.455-1.763c-.022-.071-.044-.131-.066-.208v-.006c-1.013-3.236-2.94-9.407-4.78-15.406-.312-1.013-.619-2.02-.92-3.006a617.872 617.872 0 0 1-2.316-7.705c-2.251-7.628-3.39-17.468-3.729-20.748-.022-.285-.416-.339-.526-.076-.449 1.133-1.205 3-1.971 4.895-.022.06-.05.126-.082.192-1.09 2.699-2.191 5.382-2.443 5.892-.257.509-.87 2.924-1.785 5.738v.006c-.723 2.223-1.632 4.709-2.699 6.697a12.572 12.572 0 0 0-1.353 4.079c-.066.384-.109.772-.131 1.161a22.7 22.7 0 0 1-.181 1.731v.011a23.066 23.066 0 0 1-.964 4.093c-.164.482-.312.936-.454 1.358a21.672 21.672 0 0 0-.986 4.359v.005c-.12.975-.17 1.966-.137 2.952v.005c.006.35.022.706.049 1.057a30.8 30.8 0 0 1 .099 2.579c0 1.506-.619 4.03-.756 5.279a59.203 59.203 0 0 0-.235 3.017v.115c-.11 1.966-.175 4.151-.252 6.286v.006c-.159 4.211-.378 8.241-1.15 10.157-.186.466-.323.97-.422 1.517v.006c-.996 5.711 2.514 15.6 1.517 23.081-.055.405-.087.815-.109 1.232.005.005 0 .011 0 .016-.329 8.033 5.831 18.191 8.947 25.463 3.28 7.655 10.295 30.144 9.753 49.83-.132 4.715-.044 11.089.087 18.394l.017 1.27c.416 23.086 1.106 54.769-3.384 72.736-3.242 12.95-6.166 26.859-8.17 36.927a78.268 78.268 0 0 0-1.506 15.688c0 .411.005.816.011 1.227v.005c.076 3.598.4 7.19.974 10.76a714.57 714.57 0 0 1 1.26 8.154 506.84 506.84 0 0 1 .422 2.946c1.013 7.151 1.883 14.396 2.08 19.417.553 13.668-3.822 54.129-5.47 59.594-1.632 5.47-3.822 23.513-2.727 30.616.219 1.418.52 2.863.904 4.369.093.362.191.74.29 1.106 1.588 5.783 4.26 12.261 7.556 19.681 4.376 9.834 17.326 21.312 22.791 25.145 5.47 3.822-3.116 10.393-9.128 11.483-6.007 1.095-22.413 1.095-26.783 0-4.38-1.09-7.107-.548-9.845-8.745-2.733-8.203-5.465-21.882-8.751-22.418-3.28-.548-12.255-4.2-11.105-10.492 1.501-8.296 2.36-5.367 4.003-12.48 1.013-4.408 1.188-14.538 1.04-23.278-.01-.936-.032-1.85-.049-2.748-.109-4.19-.279-7.836-.449-10.049-.345-4.55-3.74-16.898-6.412-26.306a23.008 23.008 0 0 0-.252-.87c-1.391-4.901-2.541-8.871-2.891-10.311-1.638-6.73-3.784-16.565-4.113-23.202-.432-8.652 1.577-15.201 3.083-21.038 1.09-4.222 6.04-16.039 4.573-23.251a1.369 1.369 0 0 1-.017-.093c-.022-.115-.049-.224-.071-.356-.318-1.686-.887-5.065-1.544-9.09a24.836 24.836 0 0 1-.11-.706c-1.495-9.243-3.362-21.484-3.729-24.737-.126-1.167-.378-2.623-.695-4.233-.121-.586-.247-1.194-.383-1.818v-.011c-1.046-4.863-2.536-10.519-3.302-13.586-1.304-5.213-2.246-12.775-2.919-20.808-.038-.415-.071-.838-.11-1.254.006 0 0-.011 0-.011-.991-12.375-1.374-25.632-1.467-33.047-.017-.816-.022-1.56-.028-2.228-.005-.553-.005-1.046-.005-1.484 0-7.836-1.101-16.756-1.862-21.991v-.028c-.4-2.749-.706-4.474-.706-4.474s-.181.165-.559.389c-.81.477-2.53 1.21-5.289 1.09h-.028l-.29-.017.011-9.133.104-92.373.038-30.9.006-5.755.005-5.087.006-3.097v-.011l.011-11.751.011-10.722.022-19.461.005-1.484.011-9.616.005-5.289.088-79.263v-.011l.006-1.112.115-101.632h.153c.936.005 1.467.06 1.467.06 19.412 1.37 25.529 13.443 27.61 21.597 2.409 9.435 5.465 44.645 1.637 54.676-1.073 2.82-3.061 6.254-5.553 9.61-.202.28-.41.56-.624.833-.126 3.083-.421 7.628-.608 11.828v.027c-.208 4.605-.284 8.805.132 10.273.142.504.591 1.079 1.27 1.708h.006c.504.455 1.133.937 1.862 1.435h.005c5.772 3.932 17.769 8.729 22.418 9.309 1.479.186 3.275.4 5.306.69.351.049.718.104 1.085.164 5.004.778 11.242 2.092 17.566 4.786.581.247 1.161.509 1.741.783 6.051 2.82 12.091 6.971 17.113 13.181 3.143 3.888 5.328 8.465 6.434 13.339 1.259 5.569 2.913 14.303 3.055 22.424.006.383.022.766.05 1.15a26.76 26.76 0 0 0 .372 3.17v.016a27.97 27.97 0 0 0 1.533 5.476c1.479 3.751 3.203 9.364 3.822 15.524.531 5.285 1.074 16.57 1.747 27.188.044.728.093 1.451.142 2.169.685 10.5 1.517 19.891 2.585 21.511 0 0 6.084 10.224 8.345 17.014 1.972 5.919 8.488 74.976 9.698 79.203.082.279.17.564.263.86.033.115.071.18.115.273v.066c2.825 8.482 11.138 22.616 11.653 28.874.553 6.561-13.214 27.018-14.939 28.743" fill="#D9F2FF"/><path d="M214.462 169.492c-2.661 4.172-5.98 9.72-6.664 12.463-.131.52-.296 1.254-.493 2.136-1.484 6.592-4.955 22.013-11.05 25.764-6.653 4.101-23.043 3.887-35.796 1.571-11.565-2.097-16.559-10.037-17.096-14.872-.547-4.934 1.156-27.626 2.191-33.836.328-1.96.317-4.495.312-7.179-.017-6.209-.033-13.246 4.211-14.303 2.842-.712 7.135-1.226 12.211-1.226 8.378 0 18.897 1.396 28.557 5.58 5.875 2.546 10.349 4.665 14.018 6.971 3.663 2.31 6.527 4.802 9.183 8.093 2.021 2.513 2.19 6.062.416 8.838Zm.438-9.523c-5.459-6.768-11.702-10.218-23.623-15.387-6.68-2.897-13.777-4.468-20.31-5.18a69.769 69.769 0 0 0-2.53-.241c-7.83-.602-14.631.011-18.623 1.008-5.076 1.27-5.06 8.761-5.043 15.37.005 2.645.016 5.137-.296 6.998-.427 2.547-.947 7.623-1.391 13.148v.049a408.4 408.4 0 0 0-.602 8.723 354.642 354.642 0 0 0-.148 2.946c-.192 4.157-.246 7.623-.06 9.277a3.9 3.9 0 0 0 .049.339c.033.268.088.553.159.854.131.57.317 1.167.564 1.818v.017c1.708 4.506 6.346 10.47 16.181 12.594.34.071.685.137 1.035.203 1.468.274 2.995.509 4.556.717.712.104 1.435.186 2.157.274 3.823.438 7.798.695 11.609.695 7.447 0 14.287-.969 18.246-3.406 5.284-3.247 8.613-14.297 10.486-21.925.23-.942.438-1.818.63-2.634v-.005c.153-.685.301-1.315.427-1.89.197-.876.356-1.599.487-2.108.329-1.314 1.43-3.603 3.165-6.636v-.006c.219-.367.444-.75.674-1.144a209.147 209.147 0 0 1 2.322-3.784c.12-.186.246-.378.367-.57.076-.126.153-.252.224-.372 1.785-3.121 1.511-6.982-.712-9.742" fill="#F2F2F2"/><path d="M252.343 231.588c-.079-.104-1.959-2.628-4.486-7.584-.953-1.873-2.168-5.914-3.708-11.039-2.354-7.831-5.283-17.578-8.906-25.156-5.856-12.244-20.364-17.211-20.51-17.255l.346-1.04c.15.049 15.092 5.152 21.152 17.824 3.659 7.649 6.603 17.446 8.967 25.309 1.524 5.071 2.727 9.079 3.635 10.859 2.484 4.873 4.366 7.398 4.385 7.425l-.875.657" fill="#F2F2F2"/><path d="M245.045 181.139v.016c-.526 5.668-1.67 17.578-2.486 22.901 0 .016-.006.027-.006.043l-1.084-.164c.104-.668.208-1.435.318-2.272 1.062-8.132 2.431-23.563 2.447-23.733l.438.039c.061 1.067.187 2.119.373 3.17ZM164.21 105.621c-3.959 10.388-9.303 18.952-12.841 24.62-.942 1.506-1.752 2.809-2.327 3.822-1.692 2.957-4.189 4.671-4.791 4.397-.088-.038-.307-.482.186-1.971.509-1.523 1.938-5.92 3.745-11.478 3.8-11.669 9.539-29.301 9.928-30.1.345-.62 4.534-3.806 8.707-6.785-.406 3.745-1.682 15.059-2.607 17.495Zm2.963-19.089c-2.147 1.517-9.058 6.446-9.978 7.776a.445.445 0 0 0-.065.11c-.077.142-.323.848-.718 1.998-1.505 4.414-5.114 15.481-9.27 28.256a2510.679 2510.679 0 0 1-3.746 11.472 8.551 8.551 0 0 0-.252.881v.022c-.153.69-.153 1.26 0 1.67v.028c.121.328.34.575.658.717.18.077.372.115.58.115 1.654 0 4.145-2.42 5.607-4.977.57-.992 1.375-2.284 2.306-3.779 1.971-3.159 4.501-7.211 7.047-11.981.186-.35.372-.695.559-1.057v-.005c1.861-3.565 3.712-7.508 5.333-11.762.438-1.161.942-4.08 1.396-7.289V98.7c.187-4.2.482-8.745.608-11.828.214-.274.422-.553.624-.832l-.689.492M198.714 122.306c-.121.926-1.057 4.091-8.116 5.23-.952.159-1.938.235-2.94.235a20.71 20.71 0 0 1-3.839-.361 14.52 14.52 0 0 1-7.945-4.326c-.849-.904-1.829-2.13-2.826-3.543-.345-.482-.69-.991-1.029-1.511-1.528-2.328-2.996-4.956-3.981-7.322.504.455 1.133.937 1.862 1.435h.005c1.895 3.861 4.759 8.072 6.763 10.185a13.463 13.463 0 0 0 7.348 4.003c2.229.411 4.381.455 6.407.126 6.527-1.057 7.152-3.86 7.206-4.315.351.049.718.104 1.085.164" fill="#F2F2F2"/><path d="M172.72 132.07c-1.809 0-8.071-5.372-10.056-8.033-1.857-2.486-3.576-5.64-3.647-5.772l.961-.526c.018.033 1.755 3.22 3.564 5.646 2.122 2.842 7.63 7.184 8.982 7.562.192-1.314-.193-7.392-.713-12.895l1.09-.099c.276 2.919 1.132 12.529.559 13.679a.81.81 0 0 1-.668.432c-.023.006-.047.006-.072.006M250.159 226.249c-.011.126-.076.701-.208 1.605-.323 2.234-1.078 6.45-2.573 10.815-.63 1.845-1.397 3.704-2.317 5.451-1.757 3.346-4.09 6.275-7.162 7.808-1.128.564-2.289.849-3.461.849-.92 0-1.845-.175-2.782-.52-5.152-1.917-9.254-8.674-11.258-12.581-.312-1.013-.619-2.02-.92-3.006l.592-.247c.054.121 5.191 12.286 11.97 14.81 1.462.542 2.913.591 4.32.142a6.593 6.593 0 0 0 1.052-.427.888.888 0 0 0 .098-.055c4.375-2.245 7.174-7.715 8.915-12.947.181-.515.339-1.03.493-1.539 1.484-4.945 2.042-9.353 2.135-10.147l.017-.12 1.089.109" fill="#F2F2F2"/><path d="M237.536 251.995c-2.545 0-4.18-7.944-6.801-21.743-.94-4.956-1.913-10.081-2.931-14.319-3.238-13.493-16.089-41.015-16.218-41.288l.991-.466c.131.274 13.028 27.9 16.292 41.502 1.024 4.26 1.999 9.396 2.942 14.363 1.069 5.629 2.078 10.946 3.122 14.911 1.567 5.949 2.534 5.96 2.632 5.943l.181 1.08a1.256 1.256 0 0 1-.21.017M273.288 351.207c-.143 0-3.558-.064-10.75-5.596-7.432-5.717-18.349-26.397-22.132-46.93-3.814-20.708 6.288-61.885 6.39-62.296l1.063.263c-.102.411-10.147 41.359-6.376 61.834 3.738 20.29 14.448 40.665 21.723 46.261 6.821 5.247 10.055 5.368 10.087 5.368l-.005 1.096" fill="#F2F2F2"/><path d="m241.064 277.002-1.062.263c0-.005-.006-.016-.006-.022-1.226-4.873-10.869-16.252-14.297-20.178v-.006a18.173 18.173 0 0 0-.455-1.763c-.022-.071-.044-.131-.066-.208v-.006l.132-.115c.52.581 11.521 12.847 14.9 19.829.405.815.695 1.56.854 2.206M173.185 239.583a2.94 2.94 0 0 1-1.582 1.969 3.017 3.017 0 0 1-2.579.043c-4.173-1.875-9.802-4.252-12.929-4.942a64.466 64.466 0 0 0-3.088-.602c-3.625-.651-6.489-1.166-8.088-3.559-2.196-3.297-1.878-17.151.438-19.001.81-.652 2.897-.981 5.503-.981 5.098 0 12.206 1.254 15.765 3.746 5.197 3.63 9.243 12.266 6.56 23.327Zm1.922-8.049v-.011a25.514 25.514 0 0 0-.465-3.921v-.006c-1.128-5.612-4.036-9.889-7.387-12.244-1.933-1.352-4.879-2.382-8.028-3.05-5.936-1.259-12.594-1.237-14.555.34-.723.575-1.27 1.834-1.653 3.461v.021a24.75 24.75 0 0 0-.537 3.39 41.316 41.316 0 0 0 0 7.502c.115 1.205.285 2.327.515 3.313v.038c.263 1.167.602 2.114 1.013 2.733 1.856 2.787 5.076 3.362 8.805 4.024.986.187 2.004.362 3.045.597 3.192.712 9.336 3.357 12.714 4.877a4.144 4.144 0 0 0 4.901-1.167c.367-.463.636-.999.778-1.591.712-2.951.964-5.733.854-8.306M167.14 282.319a2.203 2.203 0 0 1-1.172 1.452 2.235 2.235 0 0 1-1.906.032c-3.258-1.462-7.649-3.318-10.097-3.86-.833-.186-1.637-.329-2.41-.471-2.798-.498-5.01-.898-6.226-2.716-1.697-2.546-1.467-13.224.312-14.648.625-.498 2.218-.75 4.217-.75 3.937 0 9.451.969 12.217 2.907 3.132 2.191 5.727 6.741 5.727 12.704 0 1.682-.208 3.472-.662 5.35Zm-4.436-18.952c-.788-.553-1.796-1.034-2.924-1.445a.088.088 0 0 1-.049-.017 23.253 23.253 0 0 0-2.612-.766c-4.83-1.145-10.53-1.189-12.157.115-2.398 1.916-2.392 13.333-.542 16.11 1.473 2.207 4.009 2.661 6.938 3.187a55.54 55.54 0 0 1 2.371.46c2.481.553 7.256 2.612 9.884 3.789a3.335 3.335 0 0 0 2.837-.044 3.292 3.292 0 0 0 1.752-2.179c2.196-9.074-1.177-16.187-5.498-19.21" fill="#F2F2F2"/><path d="M167.561 261.714c-.438.438-.859.69-1.171.69-2.016 0-16.685-4.682-20.655-6.002-1.955-.652-2.087-2.092-2.163-4.786-.028-.909-.061-1.938-.208-2.995-.532-3.707.514-9.35.941-9.958.011-.005.647-.602 3.127-.602 1.747 0 4.414.295 8.411 1.303 5.427 1.352 10.004 4.175 12.885 6.305a5.537 5.537 0 0 1 2.239 4.37c.061 5.596-1.724 9.972-3.406 11.675Zm1.818-16.926c-2.962-2.191-7.666-5.09-13.268-6.492-9.643-2.409-12.068-.92-12.583-.405-.181.186-.367.641-.548 1.298-.18.668-.356 1.544-.498 2.505-.082.586-.159 1.21-.214 1.851-.164 1.757-.202 3.619-.005 5.087l.016.142c.143.997.17 1.95.197 2.875 0 .077.006.159.011.235.033 1.205.088 2.366.466 3.341.383.98 1.09 1.763 2.437 2.212.104.033 6.116 2.015 11.729 3.702.887.268 1.769.525 2.612.766a.088.088 0 0 0 .049.017c3.116.903 5.744 1.577 6.61 1.577.618 0 1.292-.351 1.949-1.019 1.867-1.889 3.724-6.368 3.724-12.173v-.279a6.626 6.626 0 0 0-2.684-5.24M165.864 326.942c-.148.537-.356 1.32-.614 2.306-7.222 27.335-12.84 42.498-16.706 45.077-3.992 2.661-4.874 2.546-5.049 2.453-.159-.087-.142-.706-.132-1.079 0-.126.006-.251.006-.372v-88.26c0-1.144.569-2.732 5.503-3.286 4.217.154 15.376 1.189 17.047 4.107 2.048 3.593 1.653 32.79-.055 39.054Zm1.002-39.596c-2.278-3.986-16.395-4.605-17.994-4.66l-.044-.005-.038.005c-3.017.334-4.967 1.117-5.887 2.377-.18.241-.317.498-.416.772a3.473 3.473 0 0 0-.213 1.232v88.26c0 .114-.006.23-.006.345-.011.515-.027 1.117.214 1.572a1.2 1.2 0 0 0 .482.492c.18.1.399.17.695.17.849 0 2.344-.569 5.492-2.672 6.172-4.112 14.44-35.418 17.156-45.707.263-.98.466-1.763.614-2.295 1.588-5.831 2.321-35.735-.055-39.886M191.003 224.294c-3.019 0-6.06-.394-8.363-.695l-.967-.126c-4.485-.558-16.47-9.944-16.978-10.344l.677-.86c.122.099 12.252 9.594 16.437 10.12l.972.126c4.372.564 12.511 1.621 16.465-1.205 2.729-1.949 9.392-9.177 9.908-14.33.523-5.23-2.06-19.555-2.303-20.661l1.069-.235c.03.142 2.897 15.267 2.324 21.005-.576 5.75-7.737 13.241-10.362 15.114-2.256 1.61-5.555 2.091-8.879 2.091" fill="#F2F2F2"/><path d="M210.854 213.228c-1.09 2.699-2.191 5.382-2.443 5.892-.257.509-.87 2.924-1.785 5.738v.006c-1.856 3.565-4.714 8.301-8.137 10.585-3.696 2.464-8.257 3.093-11.97 3.093-1.648 0-3.132-.125-4.299-.268-.991-.126-1.938-.602-2.814-1.276a9.95 9.95 0 0 1-.909-.794c-1.183-1.15-2.202-2.606-2.99-3.904a6.363 6.363 0 0 1-.4-.767v-.011a6.705 6.705 0 0 1-.465-3.92v-.006c.098-.58.279-1.155.542-1.703a6.683 6.683 0 0 1 3.625-3.395 6.498 6.498 0 0 1 1.462-.383l.197-.028.137 1.079-.121.017-.054.011c-1.884.273-3.434 1.429-4.255 3.165a5.685 5.685 0 0 0 .268 5.372c1.408 2.327 3.576 5.169 5.914 5.453 3.631.455 10.476.718 15.524-2.65 4.31-2.875 7.781-10.092 9.265-13.18.165-.345.307-.635.417-.855.876-1.752 2.644-5.793 3.291-7.271" fill="#F2F2F2"/><path d="M202.574 235.64c-.066.384-.109.772-.131 1.161a22.7 22.7 0 0 1-.181 1.731v.011c-3.099 7.767-7.272 12.575-12.146 13.971-3.312.942-6.231 1.413-8.575 1.413-1.1 0-2.075-.104-2.902-.312a6.303 6.303 0 0 1-1.09-.362c-.837-.377-1.44-.898-1.779-1.571-1.09-2.18 1.889-12.647 2.727-15.478.038-.12.071-.224.098-.317l1.046.312c-.077.263-.153.526-.235.799-1.479 5.079-3.346 12.817-2.656 14.197.871 1.741 5.246 2.497 13.065.262 5.049-1.44 9.337-6.954 12.398-15.943l.361.126" fill="#F2F2F2"/><path d="M199.858 248.358a19.012 19.012 0 0 0-.137 2.957c-.109.274-.23.57-.356.887-1.911 4.808-5.47 13.756-11.915 16.729-4.879 2.251-9.364 3.302-12.168 3.302a7.16 7.16 0 0 1-1.56-.148c-.438-.093-.789-.235-1.03-.427v-.006a.878.878 0 0 1-.109-.093c-1.265-1.265-1.501-5.421.974-11.554.931-2.305 3.078-5.459 3.992-6.751.241-.34.395-.553.422-.592l.882.652c-.006.005-.083.115-.214.301-.734 1.029-3.121 4.452-4.063 6.801-2.3 5.695-2.097 9.49-1.221 10.371.706.701 6.193.581 13.64-2.853 6.04-2.787 9.495-11.472 11.357-16.137a99.91 99.91 0 0 1 .707-1.747c.257-.597.525-1.161.799-1.692Z" fill="#F2F2F2"/><path d="M171.325 306.804h-.259l-.188-.215c-.142-.174-.519-.633-.511-12.176.003-5.68.135-12.051.422-13.481.549-2.742 1.919-9.358 1.919-9.358l1.072.223s-1.37 6.61-1.918 9.35c-.524 2.626-.488 20.075-.173 24.088.735-.722 2.016-2.066 3.349-3.465 4.173-4.378 10.478-10.995 14.064-13.504 5.245-3.672 6.879-9.955 7.999-15.557 1.07-5.348.544-14.568.539-14.661l1.093-.064c.023.383.54 9.453-.558 14.941-1.162 5.809-2.868 12.334-8.446 16.238-3.495 2.447-9.755 9.016-13.898 13.363-4.077 4.278-4.126 4.278-4.506 4.278" fill="#F2F2F2"/><path d="M198.571 304.415c-.054.405-.087.815-.109 1.232.005.005 0 .011 0 .016-1.046 5.788-2.809 12.222-8.597 20.639-.258.372-.531.772-.816 1.188-.597.871-1.254 1.834-1.961 2.869-1.774 2.601-3.838 5.64-5.924 8.718-.866 1.276-1.736 2.557-2.591 3.822-4.473 6.598-8.515 12.584-9.369 13.848a1.313 1.313 0 0 0-.049.077c-.071.104-.11.159-.115.17l-.011-.006-.936-.542a.823.823 0 0 1 .054-.115c.603-1.243 5.745-12.194 3.751-18.667-2.195-7.13-1.692-30.435-1.67-31.42l.515.011.58.016-.011.531c-.06 3.57-.328 24.16 1.632 30.539 1.331 4.315-.202 10.251-1.714 14.456 4.677-6.927 13.46-19.899 17.737-26.114 6.165-8.975 7.671-15.645 8.679-21.712.854-5.125-.969-17.895-1.747-22.905-.192-1.254-.323-2.021-.328-2.059l1.078-.181c.006.027.011.071.022.137.06.334.197 1.177.384 2.365v.006c-.997 5.711 2.513 15.601 1.516 23.081" fill="#F2F2F2"/><path d="M180.156 338.644a168.72 168.72 0 0 1-1.583 4.255c-1.949 5.071-5.361 13.35-8.241 17.304-4.402 6.056-12.627 25.134-13.788 29.794-.29 1.15-.794 3.477-1.375 6.171-1.155 5.372-3.187 14.812-4.238 17.621-.027-.142-.055-.306-.088-.481.006.668.011 1.412.028 2.228.082 0 .17-.022.246-.06.887-.427 1.993-4.529 5.126-19.078.58-2.683 1.078-4.999 1.363-6.138 1.117-4.48 9.375-23.579 13.613-29.411 4.277-5.881 9.49-20.496 9.944-21.772.017-.033.022-.055.028-.072l-1.035-.361Zm-11.839 17.463c-.006.011-.066.082-.17.224a.036.036 0 0 1-.011.022c-1.358 1.889-10.053 14.007-12.069 17.025-.761 1.149-2.015 2.639-3.34 4.221-3.033 3.625-5.027 6.112-5.027 7.606 0 .11.006.285.011.515.378-.224.559-.389.559-.389s.306 1.725.706 4.474c-.115-2.229-.181-3.91-.181-4.6 0-1.209 2.645-4.364 4.77-6.899 1.347-1.605 2.617-3.121 3.417-4.321 2.004-3.006 10.716-15.146 12.047-16.997.055-.071.093-.126.126-.164l.049-.077-.887-.64M189.065 327.353a1007.209 1007.209 0 0 1-1.856 16.017c-2.256 18.371-6.21 47.076-9.895 56.281-3.034 7.584-7.201 24.395-10.645 39.213v.005c-.203.898-.411 1.791-.614 2.672a2270.381 2270.381 0 0 0-3.219 14.227c-.926 4.128-1.599 7.113-1.944 8.498-1.605 6.429-1.085 21.625-1.079 21.772l-.761.033a147.48 147.48 0 0 0-.384-1.818v-.011c-.087-4.298-.158-14.954 1.161-20.244.345-1.369 1.013-4.348 1.939-8.472 3.559-15.868 10.179-45.411 14.533-56.28 4.287-10.717 9.095-49.546 10.919-65.3-1.665 5.941-4.447 15.874-8.242 29.466-8.695 31.157-15.157 52.201-19.203 62.544-4.852 12.404-6.528 23.887-6.544 24.002l-.783-.11-.301-.044c0-.022.065-.449.191-1.21.006 0 0-.011 0-.011.575-3.302 2.443-12.863 6.418-23.02 4.036-10.311 10.481-31.322 19.166-62.442 4.616-16.537 7.732-27.653 9.166-32.762.592-2.097.893-3.181.904-3.214l1.073.208" fill="#F2F2F2"/><path d="m217.266 400.62-.34.241c-.021-.033-.92-1.303-2.267-3.833a81.096 81.096 0 0 1-.81-1.572c-1.971-3.937-4.583-10.042-6.872-18.338-3.768-13.668-16.548-29.833-19.768-33.748a37.121 37.121 0 0 0-.734-.887l.832-.712.088.099c1.254 1.489 16.428 19.707 20.639 34.958 3.482 12.632 7.704 20.096 9.215 22.522l.017 1.27" fill="#F2F2F2"/><path d="M188.244 490.172c-2.179 0-4.767-.998-7.953-3.694-7.194-6.087-14.412-45.826-14.716-47.515l1.079-.193c.073.41 7.449 41.037 14.345 46.872 6.774 5.732 10.257 3.286 13.511.031 2.69-2.689 4.127-10.624 6.303-22.636.38-2.096.783-4.323 1.221-6.679 3.039-16.346 11.762-60.623 11.849-61.068l1.075.211c-.088.446-8.809 44.717-11.848 61.057-.437 2.354-.84 4.58-1.22 6.675-2.291 12.648-3.674 20.283-6.605 23.214-1.913 1.914-4.106 3.725-7.041 3.725" fill="#F2F2F2"/><path d="M203.98 522.598c-2.853-.099-5.2-1.276-6.975-3.505-7.174-8.991-2.834-32.154-2.645-33.136l1.075.207c-.045.234-4.434 23.653 2.426 32.25 1.567 1.961 3.639 3.001 6.157 3.089l-.038 1.095M172.109 517.785c-4.337 0-8.638-2.087-8.898-2.213l.483-.98c.087.038 8.722 4.217 13.325.635 3.837-2.979 1.001-25.959-.416-34.562l1.081-.178c.532 3.232 5.053 31.685.008 35.606-1.613 1.253-3.602 1.692-5.583 1.692M174.182 572.1v.005c-.23 1.665-.488 3.351-.778 5.027v.016c-1.697 10.01-4.37 19.965-8.175 27.035l-.411-.225a23.621 23.621 0 0 0-.252-.871c7.376-14.259 10.579-41.299 10.048-55.612-.487-13.164-8.055-20.984-9.413-22.282a1.888 1.888 0 0 0-.208-.191l.137-.165.581-.668c.098.088 9.451 8.406 9.998 23.273.23 6.275-.23 15.283-1.527 24.658" fill="#F2F2F2"/><path d="m172.221 643.166-.492-.105c-.011-.936-.033-1.85-.05-2.748 3.691-20.108 2.421-51.09 1.725-63.181-.175-3.121-.317-4.983-.323-5.076l1.09-.088.011.132v.005c.208 2.793 3.329 46.737-1.961 71.061M181.535 667.55c-.206 0-.376-.022-.516-.072-.4-.131-1.005-.334-1.486-6.883-.318-4.342-.459-10.212-.395-16.526.097-9.692.779-29.307 4.255-51.747 5.597-36.13 16.572-63.777 20.444-66.187.336-.208.659-.268.959-.175l-.328 1.046c.027.011.048.005.056.005-.783.137-4.069 4.994-8.734 18.553-2.747 7.978-7.87 24.69-11.315 46.928-5.95 38.408-4.364 71.471-3.008 73.968.754.071 3.615-.816 5.935-1.539 4.023-1.248 8.584-2.667 10.862-2.338l3.838.548-.156 1.084-3.837-.548c-2.034-.296-6.663 1.145-10.382 2.3-3.198.997-5.145 1.583-6.192 1.583" fill="#F2F2F2"/><path d="m185.659 666.328-1.061-.273c.114-.444 11.452-44.875 14.703-57.338 3.239-12.414 6.651-62.129 6.686-62.628l1.092.071c-.034.504-3.454 50.318-6.718 62.831-3.251 12.463-14.588 56.888-14.702 57.337M142.175 102.878l-.143-1.084c.082-.011 8.311-1.167 15.218-7.54l.742.804c-7.171 6.621-15.468 7.776-15.817 7.82M218.027 127.903c-.235.038-23.667 4.052-33.928 7.293a1284.935 1284.935 0 0 0-13.132 4.206c-1.462.471-2.19.712-2.206.723l-.323-.964-.028-.077c.049-.011 5.06-1.681 15.36-4.933 8.778-2.771 27.062-6.101 32.51-7.059.581.247 1.161.509 1.742.783l.005.028Z" fill="#F2F2F2"/></svg>
