<svg width="249" height="71" fill="none" xmlns="http://www.w3.org/2000/svg"><path d="M39.432 16.558c-19.798 0-30.342-8.546-30.342-8.546 0 7.134 16.632 7.012 23.767 15.485 1.388 1.655 2.386 4.48 3.141 8.74 2.265 1.071 4.48 1.947 6.526 2.75.853-5.794 1.9-9.86 3.312-11.49 7.257-8.376 24.23-8.327 24.23-15.485 0 0-10.861 8.546-30.634 8.546Z" fill="#fff"/><path d="M39.432 14.635a5.381 5.381 0 1 0-5.382-5.38c0 2.97 2.41 5.38 5.382 5.38ZM36.85 52.37c-5.162 2.24-9.229 5.503-8.474 12.734 1.583-4.285 4.432-6.695 8.791-8.521a288.8 288.8 0 0 0-.317-4.212ZM24.212 26.175c-3.677 13.512 23.402 13.974 23.402 20.182 0 2.143-1.875 3.336-5.504 4.772-.121 1.534-.267 3.044-.365 4.504 6.6-2.483 12.127-4.236 12.127-9.568 0-9.519-16.291-8.18-29.66-19.89Z" fill="#fff"/><path d="M41.818 43.12c-1.217 10.76-1.826 21.91-2.313 27.17-.974-6.403-1.388-18.6-2.606-29.02 1.705.656 3.41 1.265 4.92 1.85ZM48.66 25.469c.269.194.56.365.878.51.292.147.608.293.95.39.34.098.657.195.973.268.317.073.658.098.999.098h.121l.122-.025c.049 0 .073 0 .122-.024l.122-.024c.073-.025.17-.05.243-.073.073-.025.17-.05.244-.074.316-.121.608-.267.876-.438.268-.17.536-.39.73-.633.196-.243.366-.511.464-.828l.097-.292.243.195c.147.122.366.195.585.22.22.023.463.023.706.023.463-.024.95-.121 1.437-.219.463-.097.95-.243 1.412-.39.463-.145.926-.34 1.364-.535.22-.097.414-.194.609-.34.194-.122.365-.293.56-.439.365-.316.682-.657.974-1.022.292-.366.56-.755.78-1.169.097-.195.194-.414.267-.633.073-.195.097-.414.122-.609l.024-.535.56.097c.146.024.365.024.56-.024.22-.024.439-.098.658-.17.438-.147.9-.341 1.339-.536.438-.22.852-.438 1.266-.706.195-.122.414-.268.585-.39.17-.122.365-.292.511-.414l.049-.048c.024-.025.024-.049.048-.049l.098-.122.097-.122.05-.073.048-.073c.073-.097.121-.194.195-.292.073-.097.121-.194.17-.316.22-.414.438-.852.633-1.29.195-.439.341-.901.463-1.34.024-.048.024-.121.049-.17l.048-.17c0-.05.025-.122.049-.17l.024-.171.025-.073v-.098l.024-.146v-.268l.024-.535.512-.22c.316-.121.608-.34.852-.584.268-.267.463-.584.657-.925.195-.34.366-.73.487-1.12.147-.39.244-.803.341-1.241.098-.439.17-.852.244-1.29.073-.439.122-.877.17-1.315a24.34 24.34 0 0 0 .147-2.678V1.342s0-.025 0 0c0 .097.024.243.097.414.073.17.22.34.39.438.17.097.316.121.413.146h.268c.074-.025.122-.025.195-.049.073-.024.073-.049.073-.024l-.048.024-.074.049-.633.316-.316.146c-.098.05-.22.098-.317.146l-.657.293-.658.292-.657.292c-.22.097-.438.17-.658.268-.219.097-.438.195-.657.268a69.018 69.018 0 0 1-5.333 1.85c-.463.122-.901.268-1.364.39-.462.121-.9.243-1.363.365-.463.121-.901.219-1.364.34l-.682.146-.682.147c-1.826.39-3.677.706-5.528.973l-2.751.39c-.22.024-.463.073-.682.097-.122.025-.22.049-.341.073-.098.025-.22.05-.317.073a4.12 4.12 0 0 0-1.12.487c-.73.463-1.364 1.096-1.9 1.802-.267.365-.51.73-.73 1.12-.097.195-.195.39-.292.608a2.848 2.848 0 0 0-.17.61l-.439-.025c0-.268.073-.511.122-.73.073-.244.146-.463.244-.682.097-.22.194-.438.316-.658.122-.219.244-.414.365-.633.122-.194.268-.39.414-.608.146-.195.292-.39.463-.56.17-.195.34-.365.511-.536.195-.17.366-.316.585-.462.195-.146.414-.293.657-.414l.17-.098c.05-.024.123-.048.171-.073.049-.024.122-.048.195-.073.073-.024.122-.048.195-.073.122-.024.243-.073.365-.097.122-.024.244-.073.341-.098.243-.048.463-.097.682-.17.925-.195 1.826-.365 2.727-.56l2.703-.584c.901-.195 1.802-.438 2.679-.658.9-.219 1.778-.486 2.654-.73.877-.268 1.754-.536 2.63-.828l.658-.219.657-.219c.438-.146.852-.316 1.29-.463l.634-.243.633-.243c.438-.17.852-.341 1.266-.512.414-.17.853-.365 1.266-.56l.634-.292c.195-.097.414-.195.633-.292l.609-.292c.097-.049.194-.097.316-.146l.292-.146.61-.317.072-.048.049-.025.097-.049c.073-.024.122-.048.22-.073a.585.585 0 0 1 .292 0c.121 0 .268.05.438.147.17.097.317.267.414.462.073.17.097.317.097.438v.536c0 .487-.024.95-.048 1.436-.025.487-.073.95-.122 1.437-.122.95-.268 1.923-.536 2.873-.121.487-.292.95-.487 1.412-.195.462-.414.95-.706 1.387-.146.22-.292.439-.463.658a1.67 1.67 0 0 0-.267.316l-.147.146-.146.146a4.3 4.3 0 0 1-1.485.852l.536-.754c-.025.34-.073.633-.147.925l-.048.195c-.025.073-.049.121-.073.194l-.073.195c-.025.073-.05.122-.073.195-.195.511-.39.998-.634 1.485-.243.463-.487.95-.779 1.388-.073.122-.146.219-.219.34-.073.122-.146.22-.243.341l-.073.098-.074.097-.146.17c-.048.05-.097.122-.17.171l-.073.073-.098.073c-.219.195-.462.365-.681.512-.22.146-.463.292-.682.413a15.28 15.28 0 0 1-1.413.706c-.487.195-.974.39-1.51.536a8.295 8.295 0 0 1-.827.17c-.073 0-.146.025-.22.025H65.147a.868.868 0 0 1-.244-.049l.585-.438a3.34 3.34 0 0 1-.195.852c-.098.268-.22.511-.365.755a9.593 9.593 0 0 1-.926 1.29c-.34.39-.73.755-1.12 1.096-.195.17-.414.316-.657.462-.122.073-.22.146-.366.195-.146.049-.243.122-.365.17-.487.195-.95.366-1.461.487-.487.146-.974.268-1.486.366a8.222 8.222 0 0 1-1.534.17c-.267 0-.535 0-.803-.073a.46.46 0 0 1-.195-.049c-.024 0-.073-.024-.097-.024-.025 0-.074-.024-.098-.024a1.143 1.143 0 0 1-.39-.244l.342-.097c-.122.34-.341.657-.585.925a3.194 3.194 0 0 1-.852.657c-.317.17-.633.317-.974.414-.098.024-.17.049-.244.073-.097.024-.17.049-.268.049l-.121.024c-.05 0-.098 0-.122.024l-.146.025h-.122c-.365 0-.706-.049-1.047-.146a11.41 11.41 0 0 1-.974-.317c-.317-.122-.633-.292-.926-.438-.292-.17-.584-.365-.852-.56l.122-.243ZM29.886 25.542c-.268.219-.56.39-.852.56-.293.17-.61.316-.926.438a7.573 7.573 0 0 1-.974.316c-.34.073-.682.146-1.047.146h-.122l-.146-.024c-.048 0-.097 0-.121-.024h-.17c-.098 0-.171-.049-.269-.049a3.058 3.058 0 0 1-.243-.073 4.877 4.877 0 0 1-.974-.414 3.198 3.198 0 0 1-.853-.657c-.243-.268-.462-.585-.584-.925l.34.097c-.12.097-.243.195-.389.243-.024 0-.073.025-.097.025-.025 0-.073.024-.098.024-.073.024-.121.024-.194.049a4.485 4.485 0 0 1-.804.073 8.223 8.223 0 0 1-1.534-.17 14.7 14.7 0 0 1-1.486-.366c-.487-.146-.974-.292-1.46-.487-.122-.048-.244-.097-.366-.17-.122-.073-.244-.122-.365-.195-.22-.146-.439-.292-.658-.462a7.941 7.941 0 0 1-1.12-1.096 7.258 7.258 0 0 1-.925-1.29c-.122-.244-.268-.487-.365-.755a3.336 3.336 0 0 1-.195-.852l.584.438c-.097.024-.17.049-.243.049H12.766c-.072 0-.145 0-.218-.025a4.538 4.538 0 0 1-.828-.17 15.828 15.828 0 0 1-1.51-.536c-.487-.194-.95-.438-1.412-.706a6.338 6.338 0 0 1-.682-.414c-.22-.146-.463-.292-.682-.51l-.097-.074-.073-.073-.17-.17-.147-.17-.073-.098-.073-.098c-.098-.097-.17-.219-.244-.34-.073-.122-.146-.22-.219-.341a19.89 19.89 0 0 1-.78-1.388c-.243-.463-.437-.95-.632-1.485-.025-.073-.049-.122-.073-.195l-.073-.195c-.025-.073-.049-.121-.073-.194l-.05-.195a4.913 4.913 0 0 1-.145-.925l.536.754a4.471 4.471 0 0 1-1.486-.852l-.146-.146-.146-.146c-.098-.097-.195-.195-.268-.316-.17-.22-.34-.439-.463-.658-.292-.438-.511-.925-.706-1.387a10.78 10.78 0 0 1-.487-1.412A17.019 17.019 0 0 1 .81 4.653C.762 4.166.713 3.703.69 3.216.664 2.73.64 2.266.64 1.78v-.536c0-.121.024-.268.097-.438.073-.17.244-.365.414-.463.17-.097.317-.121.439-.146h.292c.097.025.146.05.219.073a.267.267 0 0 1 .097.05l.05.023.072.05.609.316.292.146c.098.048.195.097.317.146l.609.292c.194.097.414.195.633.292l.633.292c.414.195.828.365 1.266.56.414.17.852.365 1.266.511l.633.244.634.243c.438.17.852.317 1.29.463l.658.22.657.218c.877.292 1.753.56 2.63.828.877.268 1.778.511 2.655.73.876.22 1.777.463 2.678.658l2.703.584c.901.195 1.826.365 2.727.56.22.049.463.097.682.17.122.025.22.05.341.098.122.024.244.073.366.097.048.024.121.049.194.073.049.025.122.049.195.073.049.025.122.049.17.073l.171.098c.22.121.438.267.657.414.195.146.39.316.585.462.195.17.365.341.511.536.17.194.317.365.463.56.146.194.292.39.414.608.122.195.244.414.365.633.122.22.22.439.317.658.097.219.17.462.243.681.073.244.122.487.122.73l-.438.025a2.848 2.848 0 0 0-.17-.609 3.463 3.463 0 0 0-.293-.608 6.804 6.804 0 0 0-.73-1.12c-.536-.706-1.194-1.364-1.9-1.802-.365-.219-.755-.414-1.12-.487-.097-.024-.22-.048-.317-.073a7.921 7.921 0 0 0-.34-.073 5.742 5.742 0 0 0-.682-.097l-2.752-.39a84.64 84.64 0 0 1-5.528-.974l-.682-.146-.681-.146c-.463-.097-.901-.219-1.364-.34-.463-.122-.901-.244-1.364-.366-.463-.121-.9-.267-1.364-.39a51.615 51.615 0 0 1-5.284-1.752c-.219-.073-.438-.17-.657-.268-.22-.097-.439-.17-.658-.268l-.657-.292-.658-.292L2.71 2.9c-.098-.049-.22-.098-.317-.146l-.292-.146-.633-.317-.073-.049-.049-.024c-.024 0 0 0 .073.024a.459.459 0 0 0 .195.05c.073 0 .17.023.268 0a.776.776 0 0 0 .414-.147.967.967 0 0 0 .39-.438c.073-.17.097-.317.097-.414 0-.024 0 0 0 0v.535c.024.901.073 1.802.146 2.679.049.438.097.876.17 1.314.073.439.147.877.244 1.29.097.415.22.828.34 1.242.123.39.293.78.488 1.12.195.341.414.658.657.925.244.268.536.463.853.585l.511.219.024.535v.268l.025.146v.098l.048.097.025.17c0 .05.024.098.049.17l.048.171c0 .049.025.098.049.17.122.463.292.902.463 1.34.194.438.39.876.633 1.29.048.098.122.195.17.317.073.097.122.194.195.292l.049.073.048.073.098.122.097.121c0 .025.025.049.049.049l.049.049c.146.146.34.292.511.414.195.146.39.267.584.39.414.267.853.486 1.267.705.438.22.876.39 1.339.536.22.073.438.122.657.17.22.024.415.049.56.024l.56-.097.025.536c0 .194.049.39.122.608.073.22.17.414.268.633.219.414.487.804.779 1.169.292.365.633.73.974 1.022.17.147.365.293.56.439.195.146.39.243.609.34.438.195.9.39 1.363.536.463.146.95.292 1.413.39.463.097.95.194 1.437.219.243 0 .462 0 .706-.024.219-.025.438-.098.584-.22l.244-.194.097.292c.098.292.268.584.463.828.195.243.462.462.73.633.268.17.56.316.877.438.073.024.146.049.244.073.073.024.17.049.243.073l.122.024c.049 0 .073.025.122.025l.121.024h.122c.317.024.658-.024.998-.098.317-.073.658-.17.974-.267.317-.098.634-.244.95-.39.293-.146.609-.316.877-.511l.073.049ZM94.408 54.9c0 .593-.117 1.12-.352 1.578-.23.454-.55.83-.961 1.13a4.167 4.167 0 0 1-1.337.656 5.6 5.6 0 0 1-1.546.208h-1.273v3.443c0 .186.03.352.088.496.064.139.192.245.384.32.096.038.264.072.505.104.245.032.47.051.672.056v.569h-4.877v-.569c.129-.01.313-.029.553-.056.246-.026.416-.061.513-.104a.67.67 0 0 0 .344-.304 1.04 1.04 0 0 0 .112-.512v-8.2c0-.186-.027-.354-.08-.504-.053-.149-.179-.261-.377-.336a3.154 3.154 0 0 0-.608-.144 6.089 6.089 0 0 0-.513-.064V52.1h5.19c1.057 0 1.914.256 2.57.768.662.507.993 1.185.993 2.034Zm-2.434 1.939c.181-.257.301-.521.36-.793a3.64 3.64 0 0 0 .088-.745c0-.304-.037-.614-.112-.928a2.112 2.112 0 0 0-.368-.825 1.863 1.863 0 0 0-.737-.585c-.304-.139-.683-.208-1.137-.208h-1.13v5.02h.818c.576 0 1.043-.088 1.401-.264.363-.181.635-.406.817-.672ZM107.486 63.46h-4.717v-.569c.128-.01.312-.026.553-.048.245-.021.413-.053.504-.096a.682.682 0 0 0 .352-.288c.075-.133.113-.304.113-.512v-4.044h-5.342v3.956c0 .186.03.344.088.472.064.128.187.24.368.336.091.048.251.096.481.144.235.048.419.075.553.08v.569h-4.717v-.569c.128-.01.312-.026.552-.048.246-.021.414-.053.505-.096a.685.685 0 0 0 .352-.288 1.04 1.04 0 0 0 .112-.512v-8.199c0-.17-.034-.326-.104-.464a.719.719 0 0 0-.36-.337 2.87 2.87 0 0 0-.529-.184 2.947 2.947 0 0 0-.528-.096V52.1h4.717v.568c-.15.005-.334.03-.553.072a3.862 3.862 0 0 0-.48.12.587.587 0 0 0-.369.32c-.059.15-.088.313-.088.489v3.523h5.342v-3.443c0-.17-.035-.326-.105-.464a.715.715 0 0 0-.36-.337c-.144-.07-.32-.13-.528-.184a2.962 2.962 0 0 0-.529-.096V52.1h4.717v.568c-.15.005-.334.03-.553.072a3.888 3.888 0 0 0-.48.12.586.586 0 0 0-.369.32c-.058.15-.088.313-.088.489v8.19c0 .187.03.345.088.473.064.128.187.24.369.336.091.048.251.096.48.144.235.048.419.075.553.08v.569ZM118.834 52.667a1.823 1.823 0 0 0-.433.112 1.53 1.53 0 0 0-.424.192c-.209.128-.35.227-.425.297-.075.069-.219.25-.432.544a23.805 23.805 0 0 0-1.153 1.785c-.353.604-.793 1.37-1.322 2.298-.197.342-.328.617-.392.825-.064.208-.096.51-.096.905v2.17c0 .192.037.36.112.504.08.139.213.25.4.336.112.043.313.096.601.16.288.059.52.091.697.096v.569h-5.318v-.569c.15-.01.374-.029.673-.056.299-.032.507-.072.624-.12.193-.08.323-.19.393-.328.075-.139.112-.31.112-.512v-2.763c0-.085-.053-.24-.16-.464-.102-.23-.224-.483-.369-.76-.32-.62-.675-1.29-1.065-2.01-.389-.72-.728-1.337-1.017-1.85a4.24 4.24 0 0 0-.472-.688 2.297 2.297 0 0 0-.465-.409 1.535 1.535 0 0 0-.464-.184 3.007 3.007 0 0 0-.481-.08V52.1h4.845v.568c-.544.01-.929.048-1.153.112-.224.064-.336.155-.336.272a.55.55 0 0 0 .048.168c.032.08.077.182.136.305.069.139.152.299.248.48a99.324 99.324 0 0 0 1.041 1.938l1.025 1.841c.839-1.35 1.477-2.402 1.914-3.154.443-.758.665-1.212.665-1.361a.364.364 0 0 0-.136-.297.99.99 0 0 0-.361-.176 2.426 2.426 0 0 0-.504-.08c-.182-.016-.35-.032-.505-.048V52.1h3.949v.568ZM126.257 58.248c.24.267.417.56.529.88.117.315.176.684.176 1.105 0 1.004-.371 1.831-1.113 2.482-.742.651-1.663.977-2.763.977a5.196 5.196 0 0 1-1.522-.232 5.987 5.987 0 0 1-1.313-.577l-.344.585h-.641l-.112-3.891h.649c.133.48.288.915.464 1.305.181.384.419.744.713 1.08.277.316.6.566.969.753.373.187.806.28 1.297.28.368 0 .689-.048.961-.144.278-.096.502-.232.673-.408.171-.176.296-.382.376-.616a2.44 2.44 0 0 0 .128-.825 2.26 2.26 0 0 0-.384-1.265c-.256-.395-.638-.694-1.145-.897a47.27 47.27 0 0 0-1.194-.456 19.42 19.42 0 0 1-1.161-.48c-.64-.289-1.14-.665-1.497-1.13-.353-.47-.529-1.08-.529-1.833 0-.432.088-.835.264-1.21.177-.373.428-.706.753-1 .31-.277.676-.494 1.097-.648.422-.16.863-.24 1.322-.24.523 0 .99.08 1.401.24.417.16.796.347 1.137.56l.329-.544h.64l.064 3.77h-.648a13.52 13.52 0 0 0-.401-1.24 4.279 4.279 0 0 0-.568-1.073c-.23-.31-.51-.555-.841-.737-.331-.187-.737-.28-1.217-.28-.508 0-.94.163-1.298.488a1.554 1.554 0 0 0-.536 1.193c0 .491.114.9.344 1.225.23.32.563.585 1.001.793.39.187.772.35 1.145.488.379.134.745.278 1.097.433.321.139.628.296.921.472.299.176.558.382.777.617ZM133.36 63.46h-5.117v-.569c.144-.01.353-.026.625-.048.272-.021.464-.053.576-.096a.801.801 0 0 0 .385-.28c.08-.123.12-.29.12-.504v-8.231a1.07 1.07 0 0 0-.088-.464c-.059-.129-.198-.235-.417-.32a3.91 3.91 0 0 0-.608-.177 3.655 3.655 0 0 0-.593-.104V52.1h5.117v.568a4.71 4.71 0 0 0-.592.064 3.8 3.8 0 0 0-.601.128c-.203.064-.339.168-.408.313-.07.144-.104.304-.104.48v8.223c0 .176.037.333.112.472.08.133.213.24.4.32.112.043.294.09.545.144.256.048.472.075.648.08v.569ZM139.791 63.724a4.925 4.925 0 0 1-1.954-.4 5.023 5.023 0 0 1-1.65-1.153 5.618 5.618 0 0 1-1.137-1.834c-.283-.726-.424-1.542-.424-2.45 0-.907.139-1.73.416-2.466a5.79 5.79 0 0 1 1.153-1.913 5.054 5.054 0 0 1 1.722-1.225 5.259 5.259 0 0 1 2.122-.433c.561 0 1.068.07 1.522.209a5.65 5.65 0 0 1 1.297.584l.329-.544h.64l.072 4.05h-.656a9.46 9.46 0 0 0-.385-1.28 4.973 4.973 0 0 0-.6-1.177 2.88 2.88 0 0 0-.913-.849 2.337 2.337 0 0 0-1.21-.312c-.517 0-1.001.115-1.449.344-.443.23-.828.569-1.153 1.017-.31.432-.553.982-.729 1.65a8.76 8.76 0 0 0-.264 2.233c0 .726.09 1.393.272 2.002.187.603.451 1.134.793 1.593.342.454.745.809 1.209 1.065.47.256.993.384 1.57.384.432 0 .83-.066 1.193-.2.363-.139.678-.32.945-.544.267-.235.502-.502.705-.8.202-.3.368-.625.496-.978l.601.289c-.459 1.126-1.068 1.932-1.826 2.418-.758.48-1.661.72-2.707.72ZM155.92 63.46h-4.733v-.569c.416-.026.761-.08 1.033-.16.278-.08.416-.179.416-.296a1.147 1.147 0 0 0-.064-.36l-.945-2.546h-3.98c-.149.373-.272.699-.368.976-.091.278-.174.534-.248.77-.07.229-.118.415-.145.56a2.09 2.09 0 0 0-.04.352c0 .213.169.379.505.496.336.118.715.187 1.137.208v.569h-4.276v-.569c.138-.01.312-.04.52-.088.208-.053.379-.122.513-.208.213-.144.379-.293.496-.448.118-.16.232-.38.345-.657a461.049 461.049 0 0 0 1.89-4.804l1.841-4.748h.641l3.788 9.8c.08.209.171.377.272.505.102.128.243.253.425.376.122.075.283.139.48.192.198.048.363.075.497.08v.569Zm-4.581-4.644-1.722-4.404-1.69 4.404h3.412ZM165.45 60.081l-.241 3.379h-8.881v-.569c.128-.01.312-.029.553-.056.245-.026.416-.061.512-.104.16-.07.275-.17.345-.304.074-.133.112-.304.112-.512V53.78c0-.181-.032-.342-.096-.48-.059-.14-.179-.251-.361-.337a2.586 2.586 0 0 0-.52-.184 2.746 2.746 0 0 0-.545-.112V52.1h4.797v.568a3.841 3.841 0 0 0-.585.08c-.234.048-.405.09-.512.128a.608.608 0 0 0-.376.328c-.065.155-.097.32-.097.497v7.63c0 .352.016.627.048.825a.75.75 0 0 0 .249.448c.123.096.304.16.544.192.246.027.588.04 1.025.04.198 0 .403-.005.617-.016.214-.01.416-.032.609-.064.186-.032.357-.075.512-.128a.854.854 0 0 0 .353-.216c.218-.245.472-.617.76-1.113.294-.502.497-.907.609-1.217h.569ZM179.416 55.181h-.553a3.565 3.565 0 0 0-.264-.68 5.785 5.785 0 0 0-.416-.753 3.565 3.565 0 0 0-.529-.64c-.187-.187-.368-.294-.544-.32a7.546 7.546 0 0 0-.625-.049c-.251-.01-.483-.016-.697-.016h-.464v9.087c0 .177.037.34.112.489a.752.752 0 0 0 .392.336c.096.038.297.088.601.152.309.064.55.099.721.104v.569h-5.366v-.569c.15-.01.376-.032.681-.064.309-.032.523-.072.64-.12a.761.761 0 0 0 .385-.296c.085-.133.128-.31.128-.528v-9.16h-.465c-.165 0-.371.005-.616.016a7.318 7.318 0 0 0-.705.048c-.176.022-.36.128-.552.32-.187.187-.361.4-.521.641a5.28 5.28 0 0 0-.424.769 4.493 4.493 0 0 0-.257.664h-.56V52.1h9.898v3.082ZM192.101 63.46h-4.717v-.569c.128-.01.312-.026.553-.048.245-.021.413-.053.504-.096a.688.688 0 0 0 .353-.288c.074-.133.112-.304.112-.512v-4.044h-5.342v3.956c0 .186.03.344.088.472.064.128.187.24.369.336.09.048.251.096.48.144.235.048.419.075.553.08v.569h-4.717v-.569c.128-.01.312-.026.552-.048.246-.021.414-.053.505-.096a.682.682 0 0 0 .352-.288c.075-.133.112-.304.112-.512v-8.199c0-.17-.034-.326-.104-.464a.715.715 0 0 0-.36-.337 2.85 2.85 0 0 0-.529-.184 2.938 2.938 0 0 0-.528-.096V52.1h4.717v.568c-.15.005-.334.03-.553.072a3.84 3.84 0 0 0-.48.12.586.586 0 0 0-.369.32c-.058.15-.088.313-.088.489v3.523h5.342v-3.443c0-.17-.035-.326-.104-.464a.722.722 0 0 0-.361-.337c-.144-.07-.32-.13-.528-.184a2.947 2.947 0 0 0-.529-.096V52.1h4.717v.568c-.15.005-.334.03-.553.072a3.888 3.888 0 0 0-.48.12.584.584 0 0 0-.368.32c-.059.15-.089.313-.089.489v8.19c0 .187.03.345.089.473.064.128.186.24.368.336.091.048.251.096.48.144.235.048.419.075.553.08v.569ZM203.264 60.113l-.216 3.347h-9.433v-.569c.16-.01.373-.032.64-.064.267-.037.441-.074.521-.112a.706.706 0 0 0 .352-.312c.069-.128.104-.29.104-.488v-8.167a1.14 1.14 0 0 0-.088-.464c-.059-.14-.181-.251-.368-.337a2.7 2.7 0 0 0-.585-.184 4.25 4.25 0 0 0-.576-.096V52.1h8.793v2.738h-.601c-.107-.406-.339-.836-.697-1.29-.352-.458-.688-.71-1.009-.752a7.376 7.376 0 0 0-.592-.048c-.23-.01-.492-.016-.785-.016h-1.786v4.516h1.281c.411 0 .71-.038.897-.112.192-.08.361-.211.505-.393a2.02 2.02 0 0 0 .296-.616c.085-.262.141-.507.168-.737h.601v4.444h-.601a3.385 3.385 0 0 0-.176-.809c-.091-.288-.187-.496-.288-.624a1.152 1.152 0 0 0-.569-.409c-.208-.064-.486-.096-.833-.096h-1.281v3.411c0 .342.024.611.072.809a.75.75 0 0 0 .28.448c.139.101.329.168.569.2.24.027.582.04 1.025.04h.697c.288 0 .531-.01.728-.032.203-.021.411-.058.625-.112.219-.059.374-.136.465-.232.245-.256.501-.643.768-1.16.273-.524.446-.908.521-1.154h.576ZM215.493 63.46h-3.059a67.67 67.67 0 0 0-1.842-2.754 61.153 61.153 0 0 0-1.778-2.394h-1.161v3.603c0 .186.029.352.088.496.059.139.184.245.376.32.097.038.265.072.505.104s.443.051.609.056v.569h-4.805v-.569c.128-.01.312-.029.552-.056.246-.026.417-.061.513-.104.16-.07.275-.17.344-.304.075-.133.112-.304.112-.512V53.7a1.41 1.41 0 0 0-.08-.497c-.053-.144-.179-.253-.376-.328a3.234 3.234 0 0 0-.521-.128 4.475 4.475 0 0 0-.544-.08V52.1h5.245c.481 0 .932.05 1.353.152.422.096.804.253 1.146.472.331.214.595.494.792.84.198.342.297.756.297 1.242 0 .438-.067.825-.2 1.16a2.396 2.396 0 0 1-.593.873c-.24.23-.529.43-.865.601a6.784 6.784 0 0 1-1.113.424c.56.742 1.025 1.367 1.393 1.874.374.507.831 1.123 1.37 1.85.235.32.446.557.632.712.193.15.382.272.569.368.139.07.312.123.521.16.208.038.381.059.52.064v.569Zm-4.212-8.471c0-.689-.198-1.233-.593-1.633-.395-.406-.953-.609-1.674-.609h-1.361v4.876h1.049c.737 0 1.351-.235 1.842-.704.491-.475.737-1.119.737-1.93Z" fill="#fff"/><path d="M226.536 63.46h-4.732v-.569c.416-.026.76-.08 1.033-.16.277-.08.416-.179.416-.296a1.147 1.147 0 0 0-.064-.36l-.945-2.546h-3.98c-.15.373-.272.699-.369.976l-.248.77c-.069.229-.117.415-.144.56a1.99 1.99 0 0 0-.04.352c0 .213.168.379.505.496.336.118.715.187 1.137.208v.569h-4.277v-.569c.139-.01.313-.04.521-.088a1.76 1.76 0 0 0 .512-.208 2.07 2.07 0 0 0 .497-.448c.117-.16.232-.38.344-.657a420.334 420.334 0 0 0 1.89-4.804l1.842-4.748h.641l3.788 9.8c.08.209.171.377.272.505s.243.253.424.376c.123.075.283.139.481.192.197.048.363.075.496.08v.569Zm-4.58-4.644-1.722-4.404-1.69 4.404h3.412ZM235.642 54.9c0 .593-.118 1.12-.353 1.578-.229.454-.549.83-.961 1.13a4.156 4.156 0 0 1-1.337.656 5.603 5.603 0 0 1-1.546.208h-1.273v3.443c0 .186.03.352.088.496.064.139.192.245.385.32.096.038.264.072.504.104.246.032.47.051.673.056v.569h-4.877v-.569c.128-.01.312-.029.552-.056.246-.026.417-.061.513-.104.16-.07.275-.17.344-.304.075-.133.112-.304.112-.512v-8.2c0-.186-.026-.354-.08-.504-.053-.149-.179-.261-.376-.336a3.156 3.156 0 0 0-.609-.144 6.058 6.058 0 0 0-.512-.064V52.1h5.189c1.057 0 1.914.256 2.571.768.662.507.993 1.185.993 2.034Zm-2.435 1.939c.182-.257.302-.521.361-.793.058-.278.088-.526.088-.745 0-.304-.038-.614-.112-.928a2.125 2.125 0 0 0-.369-.825 1.86 1.86 0 0 0-.737-.585c-.304-.139-.683-.208-1.137-.208h-1.129v5.02h.817c.577 0 1.044-.088 1.401-.264.363-.181.636-.406.817-.672ZM246.693 52.667a1.807 1.807 0 0 0-.432.112 1.539 1.539 0 0 0-.425.192 3.047 3.047 0 0 0-.424.297c-.075.069-.219.25-.433.544-.416.587-.8 1.182-1.153 1.785-.352.604-.793 1.37-1.321 2.298-.198.342-.328.617-.393.825-.064.208-.096.51-.096.905v2.17c0 .192.038.36.112.504.081.139.214.25.401.336.112.043.312.096.601.16.288.059.52.091.696.096v.569h-5.317v-.569c.149-.01.373-.029.672-.056.299-.032.508-.072.625-.12.192-.08.323-.19.392-.328.075-.139.113-.31.113-.512v-2.763c0-.085-.054-.24-.161-.464-.101-.23-.224-.483-.368-.76a134.824 134.824 0 0 0-2.082-3.86 4.235 4.235 0 0 0-.473-.688 2.265 2.265 0 0 0-.464-.409 1.531 1.531 0 0 0-.465-.184 2.996 2.996 0 0 0-.48-.08V52.1h4.845v.568c-.545.01-.929.048-1.153.112-.224.064-.337.155-.337.272a.55.55 0 0 0 .048.168c.033.08.078.182.137.305.069.139.152.299.248.48.096.176.187.347.272.513.251.475.507.95.769 1.425l1.025 1.841a139.34 139.34 0 0 0 1.914-3.154c.443-.758.665-1.212.665-1.361a.367.367 0 0 0-.136-.297.99.99 0 0 0-.361-.176 2.437 2.437 0 0 0-.504-.08c-.182-.016-.35-.032-.505-.048V52.1h3.948v.568ZM91.74 41.03a7.87 7.87 0 0 1-2.737-.47 6.496 6.496 0 0 1-2.221-1.377c-.619-.587-1.106-1.311-1.462-2.173-.356-.868-.534-1.821-.534-2.858 0-1.03.178-1.983.534-2.858a6.84 6.84 0 0 1 1.518-2.286 6.567 6.567 0 0 1 2.296-1.461 7.795 7.795 0 0 1 2.868-.525c.737 0 1.409.09 2.015.272a7.891 7.891 0 0 1 1.537.6l.58-.516h.816l.084 4.853h-.825c-.468-1.48-1.03-2.567-1.686-3.26-.656-.693-1.456-1.04-2.4-1.04-1.174 0-2.067.518-2.68 1.555-.612 1.03-.918 2.48-.918 4.348 0 1.055.103 1.958.31 2.707.212.744.487 1.343.824 1.8.362.474.79.824 1.284 1.049.493.218 1.04.328 1.64.328.874 0 1.652-.238 2.333-.713.688-.474 1.312-1.193 1.874-2.155l.806.488a8.25 8.25 0 0 1-.918 1.48c-.343.431-.74.803-1.19 1.115a6.168 6.168 0 0 1-1.64.806c-.594.193-1.296.29-2.109.29ZM114.737 40.673h-7.188v-.73l.684-.057c.3-.025.506-.062.618-.112.232-.094.391-.216.478-.366a1.19 1.19 0 0 0 .132-.59v-4.581h-5.679v4.478c0 .212.043.403.131.571.093.17.25.3.468.394.119.05.322.103.609.16.288.055.522.09.703.102v.731h-7.188v-.73c.157-.007.385-.026.685-.057.306-.037.528-.081.665-.131.225-.081.381-.203.469-.365a1.27 1.27 0 0 0 .131-.59v-9.407a1.15 1.15 0 0 0-.122-.553c-.075-.15-.234-.281-.478-.394a3.621 3.621 0 0 0-.712-.215 5.463 5.463 0 0 0-.638-.122v-.73h7.188v.73a5.974 5.974 0 0 0-.693.094c-.269.05-.475.096-.619.14-.243.081-.406.213-.487.394a1.41 1.41 0 0 0-.112.562v3.972h5.679v-3.878a1.15 1.15 0 0 0-.122-.553c-.081-.15-.244-.281-.488-.394a3.405 3.405 0 0 0-.656-.206 5.106 5.106 0 0 0-.646-.131v-.73h7.188v.73c-.2.012-.425.04-.675.084-.25.038-.475.088-.675.15-.237.081-.397.21-.478.384a1.344 1.344 0 0 0-.122.572v9.416c0 .225.041.415.122.571.081.157.241.288.478.394.15.063.366.119.647.169.287.05.521.08.703.093v.731ZM123.349 40.673h-7.375v-.73l.74-.057c.331-.025.559-.062.684-.112.231-.094.387-.216.469-.366.087-.156.131-.353.131-.59v-9.425c0-.213-.041-.4-.122-.563-.081-.162-.24-.293-.478-.393a4.018 4.018 0 0 0-.665-.188 7.01 7.01 0 0 0-.759-.14v-.73h7.375v.73a22.13 22.13 0 0 0-.703.084 3.684 3.684 0 0 0-.712.14c-.244.082-.406.21-.487.385a1.312 1.312 0 0 0-.122.58v9.417c0 .225.04.418.122.58.087.157.249.285.487.385.131.056.347.112.646.169.307.05.563.08.769.093v.731ZM139.861 40.673h-5.098a74.358 74.358 0 0 0-2.202-3.223 57.327 57.327 0 0 0-2.174-2.773h-.516v4.038c0 .225.041.415.122.571.088.157.25.288.488.394.118.05.303.103.552.16.257.05.475.084.656.102v.731h-7.094v-.73l.713-.076c.299-.037.512-.08.637-.13.237-.1.397-.226.478-.376.081-.156.122-.352.122-.59v-9.378c0-.225-.035-.413-.104-.563-.068-.15-.234-.28-.496-.393-.2-.081-.438-.15-.712-.206a14.037 14.037 0 0 0-.638-.122v-.73h7.46c1.668 0 2.933.261 3.795.786.869.519 1.303 1.306 1.303 2.361 0 .93-.269 1.68-.806 2.249-.531.562-1.343 1.002-2.437 1.32l1.481 1.912a190.67 190.67 0 0 0 1.771 2.22c.194.244.456.544.788.9.337.35.634.566.89.647.143.044.325.08.543.112.225.031.385.05.478.056v.731Zm-6.382-9.884c0-.887-.25-1.534-.749-1.94-.494-.412-1.2-.618-2.118-.618h-.741v5.565h.713c.918 0 1.63-.24 2.136-.721.506-.481.759-1.243.759-2.286ZM152.194 28.858a6.522 6.522 0 0 1 1.556 2.174c.387.85.581 1.818.581 2.905a7.87 7.87 0 0 1-.488 2.764 6.4 6.4 0 0 1-1.405 2.258 6.95 6.95 0 0 1-2.268 1.536c-.869.363-1.903.544-3.102.544-.969 0-1.884-.16-2.746-.478a6.786 6.786 0 0 1-2.277-1.387 6.48 6.48 0 0 1-1.546-2.164c-.382-.85-.572-1.796-.572-2.84 0-1.086.184-2.07.553-2.95a6.844 6.844 0 0 1 1.537-2.277 6.608 6.608 0 0 1 2.286-1.424 7.897 7.897 0 0 1 2.83-.506c.994 0 1.925.162 2.793.487a6.874 6.874 0 0 1 2.268 1.358Zm-2.408 9.51a7.07 7.07 0 0 0 .609-1.93c.125-.718.187-1.53.187-2.436 0-.768-.056-1.515-.169-2.239a7.06 7.06 0 0 0-.552-1.949c-.269-.568-.625-1.024-1.069-1.368-.443-.343-.996-.515-1.659-.515-1.13 0-1.989.537-2.577 1.611-.587 1.069-.881 2.58-.881 4.535 0 .83.063 1.615.188 2.352.131.737.334 1.38.609 1.93.281.556.637.99 1.068 1.302.431.306.962.46 1.593.46.619 0 1.15-.157 1.594-.47.443-.311.796-.74 1.059-1.283ZM168.116 30.704c0 .75-.156 1.396-.469 1.94a3.661 3.661 0 0 1-1.274 1.311 6.021 6.021 0 0 1-1.931.76c-.718.155-1.527.233-2.427.233h-1.087v3.739c0 .225.041.422.122.59.087.163.25.294.487.394.125.05.328.103.609.159.281.056.519.094.713.112v.731h-7.207v-.73l.722-.076c.299-.037.509-.08.627-.13.244-.1.403-.223.478-.366.082-.144.122-.344.122-.6v-9.378c0-.22-.037-.407-.112-.563-.075-.162-.238-.296-.488-.402a3.5 3.5 0 0 0-.702-.197 8.555 8.555 0 0 0-.647-.122v-.73h7.338c1.718 0 3.002.274 3.851.824.85.543 1.275 1.377 1.275 2.501Zm-3.655.478c0-1-.203-1.74-.609-2.22-.4-.488-1.115-.731-2.146-.731h-.778v5.837h.394c1.024 0 1.802-.234 2.333-.703.537-.475.806-1.202.806-2.183ZM184.375 40.673h-5.098a74.358 74.358 0 0 0-2.202-3.223 57.327 57.327 0 0 0-2.174-2.773h-.516v4.038c0 .225.041.415.122.571.088.157.25.288.487.394.119.05.303.103.553.16.257.05.475.084.656.102v.731h-7.094v-.73l.712-.076c.3-.037.513-.08.638-.13.237-.1.396-.226.478-.376.081-.156.122-.352.122-.59v-9.378c0-.225-.035-.413-.104-.563-.068-.15-.234-.28-.496-.393-.2-.081-.438-.15-.712-.206a14.305 14.305 0 0 0-.638-.122v-.73h7.46c1.668 0 2.933.261 3.795.786.869.519 1.303 1.306 1.303 2.361 0 .93-.269 1.68-.806 2.249-.531.562-1.343 1.002-2.437 1.32l1.481 1.912a190.67 190.67 0 0 0 1.771 2.22c.194.244.456.544.787.9.338.35.635.566.891.647.143.044.325.08.543.112.225.031.384.05.478.056v.731Zm-6.382-9.884c0-.887-.25-1.534-.749-1.94-.494-.412-1.2-.618-2.118-.618h-.741v5.565h.713c.918 0 1.63-.24 2.136-.721.506-.481.759-1.243.759-2.286Z" fill="#fff"/><path d="M198.854 40.673h-7.244v-.73a9.535 9.535 0 0 0 1.19-.179c.456-.1.684-.221.684-.365a.833.833 0 0 0-.019-.169.95.95 0 0 0-.075-.253l-1.133-2.754h-4.592a34.48 34.48 0 0 0-.357.9c-.125.343-.234.649-.328.917-.118.35-.19.603-.215.76a3.143 3.143 0 0 0-.028.327c0 .2.15.372.45.516.306.137.812.237 1.518.3v.73h-5.454v-.73c.206-.013.437-.044.693-.094a1.95 1.95 0 0 0 .619-.225c.256-.15.471-.334.646-.553.181-.219.331-.478.45-.778.725-1.755 1.45-3.513 2.174-5.274l2.418-5.828h1.874a885.93 885.93 0 0 1 2.877 7.14 204.474 204.474 0 0 0 1.772 4.346c.081.188.184.36.309.516a2.058 2.058 0 0 0 1.143.656c.231.05.441.08.628.093v.731Zm-6.982-5.378-1.93-4.816-1.903 4.816h3.833ZM205.957 41.03a7.872 7.872 0 0 1-2.736-.47A6.493 6.493 0 0 1 201 39.184c-.619-.587-1.106-1.311-1.462-2.173-.356-.868-.534-1.821-.534-2.858 0-1.03.178-1.983.534-2.858a6.831 6.831 0 0 1 1.518-2.286 6.569 6.569 0 0 1 2.296-1.461 7.797 7.797 0 0 1 2.868-.525c.737 0 1.409.09 2.015.272a7.903 7.903 0 0 1 1.537.6l.581-.516h.815l.084 4.853h-.824c-.469-1.48-1.031-2.567-1.687-3.26-.656-.693-1.456-1.04-2.399-1.04-1.175 0-2.068.518-2.681 1.555-.612 1.03-.918 2.48-.918 4.348 0 1.055.103 1.958.309 2.707.213.744.488 1.343.825 1.8.362.474.79.824 1.284 1.049.493.218 1.04.328 1.64.328.875 0 1.652-.238 2.333-.713.688-.474 1.312-1.193 1.875-2.155l.806.488a8.246 8.246 0 0 1-.919 1.48c-.343.431-.74.803-1.19 1.115a6.173 6.173 0 0 1-1.64.806c-.594.193-1.296.29-2.109.29ZM225.084 31.182h-.721c-.194-.568-.506-1.177-.937-1.827-.425-.65-.819-1-1.181-1.05-.2-.024-.447-.046-.74-.065a12.208 12.208 0 0 0-.76-.028h-.44V38.64c0 .225.041.425.122.6.081.168.24.303.478.403.143.056.365.115.665.178.306.056.565.096.778.121v.731h-7.413v-.73c.181-.02.434-.044.759-.076.331-.037.556-.08.675-.13.244-.1.406-.235.487-.404.082-.168.122-.368.122-.6V28.213h-.44c-.213 0-.466.01-.759.028-.294.019-.541.04-.741.066-.362.05-.759.4-1.19 1.05-.425.649-.734 1.258-.928 1.826h-.721v-3.804h12.885v3.804ZM233.181 40.673h-7.375v-.73l.74-.057c.331-.025.559-.062.684-.112.232-.094.388-.216.469-.366.087-.156.131-.353.131-.59v-9.425c0-.213-.04-.4-.122-.563-.081-.162-.24-.293-.478-.393a3.99 3.99 0 0 0-.665-.188 7.01 7.01 0 0 0-.759-.14v-.73h7.375v.73a22.13 22.13 0 0 0-.703.084 3.684 3.684 0 0 0-.712.14c-.244.082-.406.21-.487.385a1.326 1.326 0 0 0-.122.58v9.417c0 .225.041.418.122.58.087.157.25.285.487.385.131.056.347.112.647.169.306.05.562.08.768.093v.731ZM241.4 41.03a7.873 7.873 0 0 1-2.737-.47 6.502 6.502 0 0 1-2.221-1.377c-.618-.587-1.105-1.311-1.461-2.173-.357-.868-.535-1.821-.535-2.858 0-1.03.178-1.983.535-2.858a6.831 6.831 0 0 1 1.518-2.286 6.56 6.56 0 0 1 2.296-1.461 7.791 7.791 0 0 1 2.867-.525c.737 0 1.409.09 2.015.272a7.903 7.903 0 0 1 1.537.6l.581-.516h.815l.085 4.853h-.825c-.469-1.48-1.031-2.567-1.687-3.26-.656-.693-1.456-1.04-2.399-1.04-1.174 0-2.068.518-2.68 1.555-.612 1.03-.918 2.48-.918 4.348 0 1.055.103 1.958.309 2.707.212.744.487 1.343.824 1.8.363.474.791.824 1.284 1.049a4.01 4.01 0 0 0 1.64.328c.875 0 1.653-.238 2.334-.713.687-.474 1.312-1.193 1.874-2.155l.806.488a8.3 8.3 0 0 1-.918 1.48 5.606 5.606 0 0 1-1.191 1.115 6.158 6.158 0 0 1-1.64.806c-.593.193-1.296.29-2.108.29ZM99.754 2.204c-.178.007-.451.058-.82.153-.369.095-.633.194-.792.296-.23.159-.385.464-.468.916-.076.451-.114 1.024-.114 1.717v9.911h-.83L88.524 4.122v6.983c0 .782.048 1.383.143 1.803.102.42.254.719.458.897.146.14.448.27.906.39.459.122.76.185.907.192v.677h-5.553v-.677c.171-.013.46-.074.868-.182.407-.114.662-.216.763-.305.223-.178.376-.448.458-.81.083-.37.124-.996.124-1.88V4.542c0-.293-.05-.585-.152-.878-.102-.293-.239-.518-.41-.677-.23-.21-.541-.388-.936-.535-.388-.152-.703-.235-.944-.248v-.677h3.864l7.614 10.322v-6.44c0-.788-.05-1.392-.152-1.812-.102-.426-.248-.709-.44-.849-.177-.12-.47-.238-.877-.353-.4-.114-.706-.178-.916-.19v-.678h5.505v.677ZM111.796 3.13c.598.623 1.066 1.377 1.403 2.26.337.878.506 1.851.506 2.92 0 1.075-.172 2.05-.516 2.928a6.505 6.505 0 0 1-1.431 2.242 6.216 6.216 0 0 1-2.061 1.412 6.354 6.354 0 0 1-2.5.496 6.462 6.462 0 0 1-2.614-.524 6.119 6.119 0 0 1-2.052-1.48c-.572-.616-1.024-1.363-1.355-2.24a8.169 8.169 0 0 1-.486-2.834c0-1.1.171-2.08.515-2.938a6.828 6.828 0 0 1 1.422-2.242 6.148 6.148 0 0 1 2.08-1.431 6.42 6.42 0 0 1 2.49-.496c.897 0 1.743.168 2.538.505.795.337 1.482.811 2.061 1.422Zm-1.422 9.597a6.232 6.232 0 0 0 .773-1.966c.166-.73.248-1.548.248-2.451 0-.929-.092-1.78-.276-2.557-.178-.776-.442-1.437-.792-1.984-.35-.54-.789-.96-1.317-1.26-.528-.305-1.132-.457-1.813-.457-.763 0-1.412.175-1.946.524-.535.35-.971.818-1.308 1.403-.318.56-.556 1.215-.715 1.965-.153.75-.229 1.539-.229 2.366 0 .916.082 1.742.248 2.48a6.29 6.29 0 0 0 .782 1.965c.344.56.776.999 1.298 1.317.521.311 1.145.467 1.87.467.681 0 1.295-.159 1.842-.477a3.728 3.728 0 0 0 1.335-1.335ZM128.59 15.064h-3.645a81.121 81.121 0 0 0-2.195-3.282 73.316 73.316 0 0 0-2.118-2.852h-1.384v4.293c0 .222.035.42.105.591.07.165.22.293.449.382.114.044.315.086.601.124.286.038.528.06.725.067v.677h-5.725v-.677c.153-.013.372-.035.658-.067.293-.032.497-.073.611-.124a.795.795 0 0 0 .41-.363c.089-.159.134-.362.134-.61V3.435c0-.223-.032-.42-.096-.591-.063-.172-.213-.303-.448-.392a3.84 3.84 0 0 0-.62-.152 5.36 5.36 0 0 0-.649-.096v-.677h6.25c.572 0 1.11.06 1.612.181a4.26 4.26 0 0 1 1.365.563c.394.255.709.588.944 1.002.236.407.353.9.353 1.479 0 .521-.079.982-.238 1.383-.159.4-.394.747-.706 1.04-.286.273-.63.512-1.031.715-.4.197-.842.366-1.326.506.668.884 1.221 1.628 1.66 2.232.446.604.989 1.339 1.632 2.204.28.381.531.664.754.849.229.178.455.324.677.438.166.083.372.147.62.191.249.045.455.07.621.077v.677ZM123.571 4.97c0-.82-.236-1.47-.706-1.946-.471-.484-1.136-.725-1.995-.725h-1.622v5.81h1.25c.878 0 1.61-.28 2.195-.84.585-.566.878-1.332.878-2.3ZM140.126 5.2h-.659a4.208 4.208 0 0 0-.315-.811 6.664 6.664 0 0 0-.496-.897 4.203 4.203 0 0 0-.63-.763c-.222-.222-.438-.35-.648-.381a9.026 9.026 0 0 0-.745-.058c-.299-.012-.575-.019-.83-.019h-.553V13.1c0 .21.044.403.133.582.089.171.245.305.468.4.114.045.353.105.716.181.368.077.655.118.858.125v.677h-6.393v-.677c.178-.013.449-.039.811-.077.369-.038.624-.086.764-.143.21-.082.362-.2.458-.353.102-.159.152-.369.152-.63V2.272h-.553c-.197 0-.442.007-.735.02a8.706 8.706 0 0 0-.839.057c-.21.025-.43.152-.659.381a5.032 5.032 0 0 0-.62.763 6.416 6.416 0 0 0-.506.916A5.365 5.365 0 0 0 129 5.2h-.668V1.527h11.794V5.2ZM155.24 15.064h-5.62v-.677l.658-.058c.293-.025.493-.063.601-.114a.815.815 0 0 0 .42-.344c.089-.159.134-.362.134-.61V8.443h-6.365v4.713c0 .223.035.41.105.563.077.152.223.286.439.4.108.058.299.115.573.172.28.057.499.09.658.096v.677h-5.62v-.677l.658-.058c.293-.025.493-.063.601-.114a.815.815 0 0 0 .42-.344c.089-.159.134-.362.134-.61V3.492c0-.203-.042-.388-.124-.553a.857.857 0 0 0-.43-.4 3.4 3.4 0 0 0-.629-.22 3.521 3.521 0 0 0-.63-.115v-.677h5.62v.677a4.34 4.34 0 0 0-.658.086c-.255.051-.446.099-.573.143-.216.077-.362.204-.439.382-.07.178-.105.372-.105.582v4.197h6.365V3.492c0-.203-.042-.388-.124-.553a.857.857 0 0 0-.43-.4 3.438 3.438 0 0 0-.63-.22 3.497 3.497 0 0 0-.629-.115v-.677h5.62v.677a4.367 4.367 0 0 0-.659.086 4.59 4.59 0 0 0-.572.143c-.216.077-.363.204-.439.382-.07.178-.105.372-.105.582v9.759c0 .223.035.41.105.563.076.152.223.286.439.4.108.058.299.115.572.172.28.057.5.09.659.096v.677ZM172.377 4.914h-.716c-.134-.503-.413-1.04-.84-1.613-.419-.572-.823-.887-1.211-.944a8.863 8.863 0 0 0-.707-.057c-.267-.013-.572-.02-.916-.02h-2.27v5.438h1.555c.471 0 .836-.047 1.097-.143.261-.102.484-.254.668-.458.127-.14.242-.356.344-.648.108-.3.178-.617.209-.954h.726v5.313h-.726a4.037 4.037 0 0 0-.2-.954c-.108-.356-.226-.613-.353-.772a1.402 1.402 0 0 0-.725-.477 3.531 3.531 0 0 0-1.04-.134h-1.555v4.665c0 .21.041.397.124.563.082.165.229.299.439.4.095.045.302.099.62.163.318.063.56.098.725.105v.677h-5.868v-.677c.191-.013.445-.032.763-.058.318-.032.525-.07.62-.114a.8.8 0 0 0 .411-.363 1.23 1.23 0 0 0 .133-.591V3.492c0-.21-.035-.394-.105-.553-.07-.165-.216-.299-.439-.4a3.222 3.222 0 0 0-.696-.22 5.11 5.11 0 0 0-.687-.115v-.677h10.62v3.387ZM184.457 11.038l-.287 4.026h-10.582v-.677c.153-.013.373-.035.659-.067.292-.032.496-.073.611-.124a.803.803 0 0 0 .41-.363c.089-.159.133-.362.133-.61V3.53c0-.216-.038-.407-.114-.572-.07-.165-.213-.299-.429-.4a3.08 3.08 0 0 0-.621-.22 3.252 3.252 0 0 0-.649-.134v-.677h5.716v.677c-.178.007-.41.039-.697.096a5.2 5.2 0 0 0-.61.152.728.728 0 0 0-.449.392 1.537 1.537 0 0 0-.114.591v9.091c0 .42.019.748.057.983a.89.89 0 0 0 .296.534c.146.115.362.19.649.23.292.03.699.047 1.221.047.235 0 .48-.007.735-.02.254-.012.496-.038.725-.076.223-.038.426-.089.611-.152.19-.07.33-.156.419-.258.261-.292.563-.734.907-1.326.35-.598.591-1.081.725-1.45h.678ZM196.317 3.13c.598.623 1.065 1.377 1.403 2.26.337.878.505 1.851.505 2.92 0 1.075-.171 2.05-.515 2.928a6.52 6.52 0 0 1-1.431 2.242 6.216 6.216 0 0 1-2.061 1.412 6.358 6.358 0 0 1-2.5.496 6.467 6.467 0 0 1-2.615-.524 6.115 6.115 0 0 1-2.051-1.48c-.573-.616-1.024-1.363-1.355-2.24a8.17 8.17 0 0 1-.487-2.834c0-1.1.172-2.08.516-2.938a6.842 6.842 0 0 1 1.421-2.242 6.158 6.158 0 0 1 2.08-1.431 6.429 6.429 0 0 1 2.491-.496c.897 0 1.743.168 2.538.505.795.337 1.482.811 2.061 1.422Zm-1.422 9.597a6.256 6.256 0 0 0 .773-1.966c.165-.73.248-1.548.248-2.451 0-.929-.092-1.78-.277-2.557-.178-.776-.442-1.437-.792-1.984a3.761 3.761 0 0 0-1.316-1.26c-.528-.305-1.133-.457-1.813-.457-.764 0-1.412.175-1.947.524-.534.35-.97.818-1.307 1.403-.318.56-.557 1.215-.716 1.965-.152.75-.229 1.539-.229 2.366 0 .916.083 1.742.249 2.48a6.29 6.29 0 0 0 .782 1.965c.343.56.776.999 1.298 1.317.521.311 1.145.467 1.87.467.68 0 1.294-.159 1.841-.477a3.73 3.73 0 0 0 1.336-1.335ZM213.11 15.064h-3.645a80.153 80.153 0 0 0-2.194-3.282 73.316 73.316 0 0 0-2.118-2.852h-1.384v4.293c0 .222.035.42.105.591.07.165.219.293.448.382.115.044.315.086.602.124.286.038.528.06.725.067v.677h-5.725v-.677c.152-.013.372-.035.658-.067.293-.032.496-.073.611-.124a.799.799 0 0 0 .41-.363c.089-.159.134-.362.134-.61V3.435c0-.223-.032-.42-.096-.591-.063-.172-.213-.303-.448-.392a3.84 3.84 0 0 0-.62-.152 5.36 5.36 0 0 0-.649-.096v-.677h6.25c.572 0 1.11.06 1.612.181a4.27 4.27 0 0 1 1.365.563c.394.255.709.588.944 1.002.236.407.353.9.353 1.479 0 .521-.079.982-.238 1.383-.159.4-.395.747-.706 1.04-.287.273-.63.512-1.031.715a8.126 8.126 0 0 1-1.326.506c.668.884 1.221 1.628 1.66 2.232.445.604.989 1.339 1.632 2.204.28.381.531.664.753.849.229.178.455.324.678.438a2.3 2.3 0 0 0 .62.191c.248.045.455.07.62.077v.677ZM208.091 4.97c0-.82-.235-1.47-.706-1.946-.47-.484-1.135-.725-1.994-.725h-1.622v5.81h1.25c.878 0 1.609-.28 2.195-.84.585-.566.877-1.332.877-2.3ZM219.561 15.064h-6.098v-.677l.745-.058c.324-.025.553-.063.687-.114.21-.083.362-.194.458-.334.095-.146.143-.347.143-.601V3.473a1.28 1.28 0 0 0-.105-.553c-.07-.153-.236-.28-.496-.382a4.678 4.678 0 0 0-.725-.21 4.38 4.38 0 0 0-.707-.124v-.677h6.098v.677a5.593 5.593 0 0 0-.706.077 4.491 4.491 0 0 0-.716.152c-.242.077-.404.2-.487.372a1.312 1.312 0 0 0-.124.573v9.797c0 .21.045.397.134.563.095.159.254.286.477.381.133.051.35.109.649.172.305.057.563.09.773.096v.677ZM234.226 8.377c0 1.15-.216 2.15-.649 2.995-.432.846-.995 1.54-1.688 2.08-.7.54-1.486.944-2.357 1.211-.872.267-1.772.4-2.701.4h-5.61v-.676c.184 0 .423-.016.715-.048.299-.038.497-.08.592-.124a.794.794 0 0 0 .41-.363c.089-.165.134-.362.134-.591V3.492c0-.216-.038-.41-.115-.582-.07-.171-.213-.308-.429-.41a2.596 2.596 0 0 0-.639-.21 5.285 5.285 0 0 0-.592-.086v-.677h5.916c.814 0 1.616.127 2.405.382a7.098 7.098 0 0 1 2.061 1.01 5.858 5.858 0 0 1 1.87 2.224c.451.915.677 1.993.677 3.234Zm-2.337-.01c0-.91-.121-1.73-.363-2.461a5.678 5.678 0 0 0-1.059-1.927 4.661 4.661 0 0 0-1.622-1.23c-.636-.3-1.346-.45-2.128-.45-.261 0-.557.007-.887.02a39.13 39.13 0 0 0-.726.019v10.408c0 .579.169.98.506 1.202.337.222.856.334 1.555.334.808 0 1.514-.143 2.119-.43a3.821 3.821 0 0 0 1.469-1.192 5.273 5.273 0 0 0 .859-1.85c.184-.707.277-1.52.277-2.443ZM248.52 15.064h-5.639v-.677c.496-.032.906-.096 1.23-.191.331-.096.497-.213.497-.353 0-.057-.007-.127-.019-.21a.985.985 0 0 0-.058-.22l-1.126-3.033h-4.742a27.66 27.66 0 0 0-.439 1.164c-.108.33-.206.636-.296.915-.082.274-.14.497-.171.668a2.392 2.392 0 0 0-.048.42c0 .255.2.452.601.591.401.14.853.223 1.355.249v.677h-5.095v-.677c.165-.013.372-.048.62-.105.248-.064.452-.147.611-.248.254-.172.451-.35.591-.535.14-.19.277-.451.411-.782.68-1.698 1.431-3.606 2.251-5.724.821-2.117 1.552-4.003 2.195-5.657h.763l4.514 11.677c.095.248.203.448.324.6.121.154.289.303.506.45.146.088.337.165.572.228.236.057.433.09.592.096v.677Zm-5.458-5.533-2.052-5.247-2.013 5.247h4.065Z" fill="#fff"/><path fill-rule="evenodd" clip-rule="evenodd" d="M248.392 46.96H85.165v-1.013h163.227v1.012ZM248.392 21.49H85.165v-1.013h163.227v1.013Z" fill="#fff"/></svg>
