<svg width="499" height="179" fill="none" xmlns="http://www.w3.org/2000/svg"><path d="M234.8 79.1c-2.4-.8-4.6-1.2-6.5-1.2-2.1 0-3.7.4-4.9 1.2-1.2.8-1.8 1.9-1.8 3.2 0 1.3.4 2.3 1.3 3.2.8.8 1.9 1.5 3.2 2.1 1.3.5 3 1.1 5.2 1.8 3.1.9 5.6 1.8 7.6 2.7 2 .9 3.6 2.3 5 4 1.4 1.8 2.1 4.1 2.1 7 0 2.8-.7 5.2-2.2 7.2-1.5 2.1-3.6 3.6-6.2 4.7s-5.6 1.6-9 1.6c-3.6 0-7-.7-10.4-2-3.4-1.3-6.3-3.1-8.8-5.3l3.6-7.4c2.3 2.1 4.9 3.8 7.7 5 2.9 1.2 5.5 1.8 8 1.8 2.4 0 4.3-.5 5.7-1.4 1.4-.9 2.1-2.2 2.1-3.8 0-1.3-.4-2.4-1.3-3.2-.8-.8-1.9-1.5-3.2-2-1.3-.5-3.1-1.1-5.3-1.8-3.1-.9-5.6-1.8-7.5-2.7-1.9-.9-3.6-2.2-5-3.9-1.4-1.8-2.1-4.1-2.1-6.9 0-2.6.7-4.9 2.1-6.9 1.4-2 3.4-3.5 6-4.6 2.6-1.1 5.6-1.6 8.9-1.6 2.9 0 5.9.4 8.7 1.3 2.9.9 5.4 2 7.7 3.5l-3.5 7.6c-2.4-1.3-4.8-2.4-7.2-3.2ZM287.8 74.8c3.1 2.7 4.7 6.6 4.7 11.6 0 5.2-1.6 9.2-4.7 12.1-3.1 2.9-7.6 4.3-13.3 4.3h-9.9v13.4h-8.7V70.7h18.7c5.6 0 10 1.4 13.2 4.1ZM281.6 93c1.8-1.4 2.6-3.6 2.6-6.4 0-2.8-.9-4.9-2.6-6.2-1.8-1.4-4.3-2.1-7.6-2.1h-9.5v16.8h9.5c3.3 0 5.8-.7 7.6-2.1ZM301.3 70.7h33.3v7.6H310v11.2h22.1v7.6H310v11.4h25.4v7.6h-34.1V70.7ZM373.2 79.5c-2.2-1-4.4-1.6-6.7-1.6-2.8 0-5.4.7-7.7 2s-4.2 3.2-5.5 5.6c-1.3 2.4-2 5-2 7.8s.7 5.4 2 7.8c1.3 2.4 3.2 4.2 5.5 5.6 2.3 1.4 4.9 2 7.7 2 2.2 0 4.3-.5 6.5-1.4 2.2-1 4.1-2.3 5.8-4l5.2 5.7c-2.4 2.4-5.2 4.3-8.3 5.8-3.2 1.4-6.4 2.1-9.6 2.1-4.4 0-8.4-1-12-3.1-3.6-2.1-6.5-4.9-8.6-8.5-2.1-3.6-3.1-7.5-3.1-11.9 0-4.3 1.1-8.3 3.2-11.8 2.1-3.6 5-6.3 8.7-8.4 3.7-2 7.7-3.1 12.2-3.1 3.2 0 6.4.6 9.6 1.9 3.1 1.3 5.8 3.1 8 5.4l-5.1 6.4c-1.8-1.8-3.7-3.3-5.8-4.3ZM392.7 70.7h8.7v45.5h-8.7V70.7ZM447.9 116.2l-4-9.6h-22.2l-4 9.6h-9l20-45.5h9l19.7 45.5h-9.5Zm-23.1-17.1h16L432.9 80l-8.1 19.1ZM464.4 70.7h8.7v37.6h19.6v7.9h-28.3V70.7ZM221.9 42.4h3.8V60H222l-8.5-11.3V60h-3.8V42.4h3.6l8.5 11.3.1-11.3ZM240.1 42.4h13.4v3.3h-9.4v3.8h8.4v3.3h-8.4v3.9h9.7V60h-13.6l-.1-17.6ZM288.9 42.4h4.1L287.1 60H283l-3.7-12.7-3.7 12.7h-4.1l-5.9-17.5h4.3l3.8 13.4 3.8-13.4h3.9l3.8 13.4 3.7-13.5ZM334.8 44c1.2 1.1 1.8 2.6 1.8 4.5 0 2-.6 3.6-1.8 4.8-1.2 1.2-3 1.7-5.2 1.7h-3.5v5h-4V42.4h7.4c2.3 0 4 .5 5.3 1.6Zm-2.9 6.9c.6-.5.9-1.3.9-2.2 0-1-.3-1.7-.9-2.2-.6-.5-1.5-.7-2.6-.7H326v5.9h3.3c1.2-.1 2-.3 2.6-.8ZM361.5 60l-1.4-3.4H352l-1.4 3.4h-4.1l7.6-17.5h4.1l7.5 17.5h-4.2Zm-8.2-6.6h5.5l-2.8-6.8-2.7 6.8ZM374.6 42.4h14.7v3.4h-5.4V60h-4V45.8h-5.3v-3.4ZM402.1 42.4h4V60h-4V42.4ZM420.6 42.4H434v3.3h-9.4v3.8h8.4v3.3h-8.4v3.9h9.7V60h-13.6V42.4h-.1ZM460.1 42.4h3.8V60h-3.6l-8.5-11.3V60H448V42.4h3.6l8.5 11.3V42.4ZM476.7 42.4h14.7v3.4H486V60h-4V45.8h-5.3v-3.4ZM214.7 133.3c-.5-.2-.9-.3-1.4-.3-.5 0-1 .1-1.5.4-.5.3-.8.6-1.1 1.1-.3.5-.4 1-.4 1.5s.1 1.1.4 1.6c.3.5.6.8 1.1 1.1.5.3 1 .4 1.5.4.4 0 .9-.1 1.3-.3.5-.2.9-.5 1.2-.8l1.3 1.4c-.5.5-1.1 1-1.8 1.3-.7.3-1.4.5-2.1.5-1 0-1.8-.2-2.6-.7-.8-.4-1.4-1-1.8-1.8-.4-.8-.7-1.6-.7-2.6 0-.9.2-1.8.7-2.5.5-.8 1.1-1.4 1.9-1.8.8-.4 1.7-.7 2.6-.7.7 0 1.4.1 2.1.4.7.3 1.3.7 1.8 1.2l-1.3 1.6c-.3-.5-.7-.8-1.2-1ZM226.3 131.7c.8.4 1.4 1 1.9 1.8s.7 1.6.7 2.6c0 .9-.2 1.8-.7 2.6-.5.8-1.1 1.4-1.9 1.8-.8.4-1.7.7-2.7.7-1 0-1.9-.2-2.7-.7-.8-.4-1.4-1-1.9-1.8s-.7-1.6-.7-2.6c0-.9.2-1.8.7-2.6.5-.8 1.1-1.4 1.9-1.8.8-.4 1.7-.7 2.7-.7 1 0 1.9.2 2.7.7Zm-4.1 1.7c-.5.3-.8.6-1.1 1.1-.3.5-.4 1-.4 1.6 0 .6.1 1.1.4 1.6.3.5.6.8 1.1 1.1.5.3 1 .4 1.5.4s1-.1 1.5-.4c.5-.3.8-.6 1.1-1.1.3-.5.4-1 .4-1.6 0-.6-.1-1.1-.4-1.6-.3-.5-.6-.8-1.1-1.1-.5-.3-.9-.4-1.5-.4s-1.1.1-1.5.4ZM237.8 131.2h2.1v9.7h-2l-4.7-6.3v6.3h-2.1v-9.7h2l4.7 6.3v-6.3ZM247.7 133.2c-.6-.2-1-.3-1.4-.3-.4 0-.7.1-.9.2-.2.1-.3.3-.3.6s.2.6.5.8c.3.2.8.4 1.5.6.7.2 1.2.4 1.7.6.5.2.8.5 1.1.9.3.4.5.9.5 1.5s-.2 1.2-.5 1.6c-.3.4-.8.8-1.4 1-.6.2-1.2.3-2 .3s-1.6-.1-2.3-.4c-.8-.3-1.4-.7-2-1.1l.9-1.8c.5.4 1.1.8 1.7 1.1.6.3 1.2.4 1.8.4.5 0 .8-.1 1.1-.3.3-.2.4-.4.4-.7 0-.3-.1-.5-.3-.6-.2-.2-.4-.3-.7-.4-.3-.1-.6-.2-1.1-.3-.7-.2-1.2-.4-1.6-.6-.4-.2-.8-.5-1.1-.8-.3-.4-.5-.9-.5-1.5s.2-1.1.5-1.5c.3-.4.8-.8 1.3-1 .6-.2 1.2-.4 2-.4.7 0 1.3.1 2 .3.6.2 1.2.5 1.7.8l-.8 1.8c-.7-.4-1.3-.7-1.8-.8ZM255.1 138.6c.4.4.9.6 1.6.6.6 0 1.2-.2 1.5-.6.4-.4.6-1 .6-1.7v-5.7h2.2v5.7c0 .9-.2 1.6-.5 2.2-.3.6-.8 1.1-1.5 1.4-.7.3-1.4.5-2.3.5-.9 0-1.7-.2-2.3-.5-.7-.3-1.2-.8-1.5-1.4-.4-.6-.5-1.4-.5-2.2v-5.7h2.2v5.7c-.1.7.1 1.3.5 1.7ZM263.7 131.2h2.2v7.8h4.2v1.9h-6.4v-9.7ZM271.2 131.2h8.1v1.8h-3v7.9h-2.2V133h-3v-1.8h.1ZM287.5 140.9l-.8-1.9h-4.5l-.8 1.9h-2.3l4.2-9.7h2.3l4.2 9.7h-2.3Zm-4.5-3.6h3.1l-1.5-3.8-1.6 3.8ZM289.7 131.2h8.1v1.8h-3v7.9h-2.2V133h-3v-1.8h.1ZM299.8 131.2h2.2v9.7h-2.2v-9.7ZM312.1 131.7c.8.4 1.4 1 1.9 1.8s.7 1.6.7 2.6c0 .9-.2 1.8-.7 2.6-.5.8-1.1 1.4-1.9 1.8-.8.4-1.7.7-2.7.7-1 0-1.9-.2-2.7-.7-.8-.4-1.4-1-1.9-1.8s-.7-1.6-.7-2.6c0-.9.2-1.8.7-2.6.5-.8 1.1-1.4 1.9-1.8.8-.4 1.7-.7 2.7-.7 1 0 1.9.2 2.7.7Zm-4.2 1.7c-.5.3-.8.6-1.1 1.1-.3.5-.4 1-.4 1.6 0 .6.1 1.1.4 1.6.3.5.6.8 1.1 1.1.5.3 1 .4 1.5.4s1-.1 1.5-.4c.5-.3.8-.6 1.1-1.1.3-.5.4-1 .4-1.6 0-.6-.1-1.1-.4-1.6-.3-.5-.6-.8-1.1-1.1-.5-.3-.9-.4-1.5-.4-.5 0-1 .1-1.5.4ZM323.6 131.2h2.1v9.7h-2l-4.7-6.3v6.3h-2.1v-9.7h2l4.7 6.3v-6.3ZM336.7 131.2h7.4v1.8h-5.2v2.1h4.7v1.8h-4.7v2.2h5.4v1.8h-7.6v-9.7ZM346 131.2h2.6l2 3 2-3h2.6l-3.2 4.7 3.5 5.1h-2.6l-2.3-3.2-2.3 3.2h-2.6l3.5-5-3.2-4.8ZM364.7 140.9l-.7-1.9h-4.5l-.8 1.9h-2.3l4.2-9.7h2.3l4.2 9.7h-2.4Zm-4.5-3.6h3.1l-1.5-3.8-1.6 3.8ZM368.9 131.2h2.5l3 6 3-6h2.4v9.7h-2v-6.6l-2.8 5.6h-1.4l-2.8-5.6v6.6h-2l.1-9.7ZM398 140.9l-.8-1.9h-4.5l-.8 1.9h-2.3l4.2-9.7h2.3l4.2 9.7H398Zm-4.6-3.6h3.1l-1.5-3.8-1.6 3.8ZM408.9 131.8c.8.4 1.4 1 1.8 1.7.4.7.6 1.6.6 2.5 0 .9-.2 1.8-.7 2.5-.4.7-1.1 1.3-1.8 1.7-.8.4-1.7.6-2.7.6H402v-9.7h4.1c1.1.1 2 .3 2.8.7Zm-1.1 6.9c.4-.3.8-.6 1-1.1.2-.5.4-1 .4-1.6 0-.6-.1-1.1-.4-1.6-.3-.5-.6-.8-1-1.1-.4-.3-.9-.4-1.5-.4h-1.9v6h2c.4.2.9.1 1.4-.2ZM417.7 140.2c-.6.6-1.4.8-2.4.8-1.3 0-2.3-.5-3.2-1.5l1-1.6c.3.4.7.6 1.1.8.4.2.7.3 1 .3.4 0 .7-.1.9-.3.2-.2.3-.5.3-.9V133H413v-1.9h5.6v6.6c0 1.1-.3 1.9-.9 2.5ZM423.9 138.6c.4.4.9.6 1.6.6.6 0 1.2-.2 1.5-.6.4-.4.6-1 .6-1.7v-5.7h2.2v5.7c0 .9-.2 1.6-.5 2.2-.3.6-.8 1.1-1.5 1.4-.7.3-1.4.5-2.3.5-.9 0-1.7-.2-2.3-.5-.7-.3-1.2-.8-1.5-1.4-.4-.6-.5-1.4-.5-2.2v-5.7h2.2v5.7c-.1.7.1 1.3.5 1.7ZM437.4 133.2c-.6-.2-1-.3-1.4-.3-.4 0-.7.1-.9.2-.2.1-.3.3-.3.6s.2.6.5.8c.3.2.8.4 1.5.6.7.2 1.2.4 1.7.6.5.2.8.5 1.1.9.3.4.5.9.5 1.5s-.2 1.2-.5 1.6c-.3.5-.8.8-1.4 1-.6.2-1.2.3-2 .3s-1.6-.1-2.3-.4c-.8-.3-1.4-.7-2-1.1l.9-1.8c.5.4 1.1.8 1.7 1.1.6.3 1.2.4 1.8.4.5 0 .8-.1 1.1-.3.3-.2.4-.4.4-.7 0-.3-.1-.5-.3-.6-.2-.2-.4-.3-.7-.4-.3-.1-.6-.2-1.1-.3-.7-.2-1.2-.4-1.6-.6-.4-.2-.8-.5-1.1-.8-.3-.3-.5-.9-.5-1.5s.2-1.1.5-1.5c.3-.4.8-.8 1.3-1 .6-.2 1.2-.4 2-.4.7 0 1.3.1 2 .3.6.2 1.2.5 1.7.8l-.8 1.8c-.7-.4-1.3-.7-1.8-.8ZM441.2 131.2h8.1v1.8h-3v7.9h-2.2V133h-3v-1.8h.1ZM451.3 131.2h2.5l3 6 3-6h2.4v9.7h-2v-6.6l-2.8 5.6H456l-2.8-5.6v6.6h-2l.1-9.7ZM465.2 131.2h7.4v1.8h-5.2v2.1h4.7v1.8h-4.7v2.2h5.4v1.8h-7.6v-9.7ZM482 131.2h2.1v9.7h-2l-4.7-6.3v6.3h-2.1v-9.7h2l4.7 6.3v-6.3ZM486 131.2h8.1v1.8h-3v7.9H489V133h-3v-1.8ZM28 63.1c.9.5 2.4 1 4.4 1.5 2.3.6 4.1 1.3 5.6 2s2.7 1.7 3.8 3c1.1 1.3 1.6 3.1 1.6 5.3 0 2.8-.9 5.1-2.8 6.8-1.9 1.7-4.4 2.8-7.4 3.2v7h-6.8v-7.1c-2.2-.3-4.3-.9-6.3-1.8-2-.8-3.8-1.9-5.4-3.1l3.6-7.3c1.6 1.4 3.6 2.6 6 3.6 2.3 1 4.4 1.4 6 1.4 1 0 1.9-.2 2.4-.6.6-.4.9-1 .9-1.7 0-.9-.5-1.6-1.4-2-1-.5-2.4-1-4.4-1.5-2.2-.6-4.1-1.2-5.6-1.8-1.5-.6-2.7-1.6-3.8-2.9-1.1-1.3-1.6-3-1.6-5.2 0-2.6.9-4.8 2.6-6.5 1.7-1.7 4.1-2.9 7.1-3.4v-6.8h6.8v6.6c1.9.2 3.8.7 5.6 1.3 1.8.6 3.4 1.4 4.8 2.3L40 62.8c-1.7-1-3.6-1.9-5.7-2.6-2.1-.7-3.7-1.1-5.1-1.1-.8 0-1.5.2-2 .5s-.7.8-.7 1.4c.1 1 .6 1.6 1.5 2.1ZM53.076 114.401l24.126-3.038c.636 3.376 1.708 5.759 3.217 7.149 1.51 1.39 3.356 2.085 5.54 2.085 3.892 0 6.93-1.966 9.114-5.898 1.589-2.899 2.78-9.035 3.575-18.407-2.9 2.978-5.878 5.163-8.936 6.553-3.058 1.39-6.593 2.085-10.604 2.085-7.823 0-14.436-2.78-19.837-8.34-5.36-5.56-8.041-12.59-8.041-21.088 0-5.798 1.37-11.08 4.11-15.846 2.74-4.765 6.513-8.36 11.318-10.782 4.805-2.462 10.842-3.693 18.11-3.693 8.737 0 15.746 1.509 21.028 4.527 5.282 2.979 9.491 7.744 12.629 14.297 3.177 6.513 4.765 15.13 4.765 25.853 0 15.767-3.316 27.323-9.948 34.67-6.632 7.308-15.826 10.961-27.58 10.961-6.95 0-12.431-.794-16.442-2.383-4.011-1.628-7.347-3.991-10.008-7.088-2.66-3.098-4.706-6.97-6.136-11.617Zm44.678-38.959c0-4.725-1.192-8.419-3.574-11.08-2.383-2.7-5.282-4.05-8.698-4.05-3.216 0-5.897 1.21-8.042 3.633-2.104 2.423-3.157 6.057-3.157 10.902 0 4.884 1.092 8.618 3.277 11.199 2.224 2.581 4.984 3.872 8.28 3.872 3.415 0 6.255-1.251 8.518-3.753 2.264-2.502 3.396-6.076 3.396-10.723ZM126.667 89.978c0-16.6 2.978-28.217 8.936-34.85 5.996-6.631 15.111-9.947 27.342-9.947 5.878 0 10.703.734 14.476 2.204 3.773 1.43 6.85 3.316 9.233 5.659 2.383 2.303 4.25 4.746 5.6 7.327 1.39 2.542 2.502 5.52 3.336 8.936 1.628 6.513 2.442 13.304 2.442 20.373 0 15.845-2.68 27.442-8.042 34.789-5.361 7.347-14.595 11.02-27.7 11.02-7.347 0-13.284-1.171-17.812-3.514-4.527-2.343-8.24-5.779-11.139-10.306-2.105-3.217-3.753-7.605-4.945-13.165-1.151-5.6-1.727-11.775-1.727-18.526Zm24.066.06c0 11.119.973 18.724 2.919 22.815 1.986 4.05 4.845 6.076 8.578 6.076 2.463 0 4.587-.854 6.374-2.562 1.827-1.747 3.158-4.487 3.992-8.221.873-3.733 1.31-9.55 1.31-17.454 0-11.596-.993-19.38-2.978-23.351-1.946-4.011-4.885-6.017-8.817-6.017-4.011 0-6.91 2.046-8.697 6.136-1.787 4.05-2.681 11.577-2.681 22.577Z" fill="#fff"/></svg>
