<svg width="499" height="380" fill="none" xmlns="http://www.w3.org/2000/svg"><path d="M123.7 294.7c-2.7-.9-5.1-1.3-7.1-1.3-2.3 0-4.1.4-5.4 1.3-1.3.9-2 2.1-2 3.6 0 1.4.5 2.5 1.4 3.5.9 1 2.1 1.7 3.5 2.3 1.4.6 3.3 1.3 5.8 2 3.4 1 6.2 2 8.3 3 2.2 1 4 2.5 5.5 4.4 1.5 2 2.3 4.5 2.3 7.7 0 3.1-.8 5.7-2.5 8-1.6 2.3-3.9 4-6.8 5.2-2.9 1.2-6.2 1.8-9.9 1.8-3.9 0-7.7-.7-11.5-2.2-3.7-1.5-7-3.4-9.7-5.8l4-8.2c2.5 2.3 5.4 4.2 8.5 5.5 3.1 1.3 6.1 2 8.8 2 2.7 0 4.8-.5 6.3-1.5s2.3-2.4 2.3-4.2c0-1.4-.5-2.6-1.4-3.5-.9-.9-2.1-1.7-3.5-2.3-1.4-.6-3.4-1.2-5.9-1.9-3.4-1-6.2-2-8.3-2.9-2.1-1-4-2.4-5.5-4.3s-2.3-4.5-2.3-7.6c0-2.9.8-5.5 2.3-7.6 1.6-2.2 3.7-3.9 6.6-5 2.8-1.2 6.1-1.8 9.8-1.8 3.2 0 6.5.5 9.6 1.4 3.2 1 6 2.2 8.5 3.9l-3.9 8.4c-2.4-1.8-5.1-3-7.8-3.9ZM182.1 290c3.5 3 5.2 7.3 5.2 12.7 0 5.7-1.7 10.2-5.2 13.3-3.5 3.2-8.3 4.8-14.6 4.8h-11v14.7h-9.6v-50.1h20.5c6.3.1 11.2 1.6 14.7 4.6Zm-6.8 20c1.9-1.6 2.9-3.9 2.9-7s-1-5.3-2.9-6.9c-1.9-1.5-4.7-2.3-8.3-2.3h-10.5v18.5H167c3.5.1 6.3-.7 8.3-2.3ZM197 285.5h36.7v8.4h-27.1v12.4h24.3v8.4h-24.3v12.6h28v8.4H197v-50.2ZM276.1 295.1c-2.4-1.1-4.9-1.7-7.3-1.7-3.1 0-5.9.7-8.5 2.2-2.6 1.5-4.6 3.5-6.1 6.1-1.5 2.6-2.2 5.5-2.2 8.6 0 3.1.7 6 2.2 8.6 1.5 2.6 3.5 4.7 6.1 6.2 2.6 1.5 5.4 2.3 8.5 2.3 2.4 0 4.8-.5 7.2-1.6 2.4-1 4.5-2.5 6.4-4.4l5.7 6.3c-2.6 2.7-5.7 4.8-9.2 6.3-3.5 1.6-7 2.3-10.6 2.3-4.8 0-9.2-1.1-13.2-3.4s-7.2-5.4-9.4-9.3c-2.3-3.9-3.4-8.3-3.4-13.1 0-4.8 1.2-9.1 3.5-13 2.3-3.9 5.5-7 9.6-9.2 4-2.2 8.5-3.4 13.4-3.4 3.6 0 7.1.7 10.5 2.1 3.4 1.4 6.4 3.4 8.8 5.9l-5.6 7c-1.9-2-4-3.6-6.4-4.8ZM297.7 285.5h9.6v50.1h-9.6v-50.1ZM358.5 335.6 354 325h-24.5l-4.4 10.6h-9.9l22-50.1h9.9l21.7 50.1h-10.3ZM333 316.8h17.6l-8.7-21-8.9 21ZM376.6 285.5h9.6v41.4h21.6v8.7h-31.2v-50.1ZM109.5 254.3h4.1v19.3h-4l-9.4-12.4v12.4H96v-19.3h4l9.4 12.5v-12.5h.1ZM128.9 254.3h14.7v3.6h-10.4v4.2h9.3v3.6h-9.3v4.3h10.7v3.6h-15v-19.3ZM182 254.3h4.5l-6.5 19.3h-4.5l-4.1-13.9-4.1 13.9h-4.5l-6.5-19.3h4.7l4.2 14.7 4.2-14.7h4.3l4.2 14.7 4.1-14.7ZM231.1 256.1c1.3 1.2 2 2.8 2 5s-.7 4-2 5.2c-1.4 1.2-3.3 1.9-5.7 1.9h-3.8v5.5h-4.4v-19.3h8.2c2.4-.1 4.3.5 5.7 1.7Zm-3.1 7.5c.7-.6 1-1.4 1-2.5s-.3-1.9-1-2.4-1.6-.8-2.8-.8h-3.6v6.5h3.6c1.2.1 2.1-.2 2.8-.8ZM259.8 273.7l-1.5-3.8h-8.9l-1.5 3.8h-4.5l8.4-19.3h4.5l8.3 19.3h-4.8Zm-9-7.3h6.1l-3-7.5-3.1 7.5ZM273.6 254.3h16.2v3.7h-5.9v15.6h-4.4V258h-5.9v-3.7ZM303.1 254.3h4.4v19.3h-4.4v-19.3ZM322.8 254.3h14.7v3.6h-10.4v4.2h9.3v3.6h-9.3v4.3h10.7v3.6h-15v-19.3ZM365.7 254.3h4.1v19.3h-4l-9.4-12.4v12.4h-4.2v-19.3h4l9.4 12.5v-12.5h.1ZM383.2 254.3h16.2v3.7h-5.9v15.6h-4.4V258h-5.9v-3.7ZM101.6 347.8c-.5-.3-1-.4-1.5-.4-.6 0-1.2.1-1.7.4-.5.3-.9.7-1.2 1.2-.3.5-.4 1.1-.4 1.7 0 .6.1 1.2.4 1.7.3.5.7.9 1.2 1.2.5.3 1.1.5 1.7.5.5 0 1-.1 1.5-.3.5-.2.9-.5 1.3-.9l1.4 1.5c-.6.6-1.2 1.1-2 1.4-.8.3-1.5.5-2.3.5-1.1 0-2-.2-2.9-.7-.9-.5-1.5-1.2-2-2s-.7-1.8-.7-2.8c0-1 .3-2 .8-2.8.5-.8 1.2-1.5 2.1-2 .9-.5 1.8-.7 2.9-.7.8 0 1.5.2 2.3.5.8.3 1.4.8 1.9 1.3l-1.4 1.7c-.4-.4-.9-.7-1.4-1ZM114.7 346c.9.5 1.6 1.1 2.1 2 .5.9.8 1.8.8 2.8 0 1-.3 2-.8 2.8-.5.8-1.2 1.5-2.1 2-.9.5-1.9.7-2.9.7-1.1 0-2.1-.2-2.9-.7-.9-.5-1.6-1.2-2.1-2s-.8-1.8-.8-2.8c0-1 .3-2 .8-2.8.5-.8 1.2-1.5 2.1-2 .9-.5 1.9-.7 2.9-.7s2 .3 2.9.7Zm-4.6 1.9c-.5.3-.9.7-1.2 1.2-.3.5-.4 1.1-.4 1.7 0 .6.2 1.2.5 1.7s.7.9 1.2 1.2c.5.3 1.1.5 1.6.5.6 0 1.1-.2 1.6-.5s.9-.7 1.2-1.2c.3-.5.4-1.1.4-1.7 0-.6-.1-1.2-.4-1.7-.3-.5-.7-.9-1.2-1.2-.5-.3-1-.5-1.6-.5-.6 0-1.2.2-1.7.5ZM127.7 345.5h2.3v10.7h-2.2l-5.2-6.9v6.9h-2.3v-10.7h2.2l5.2 6.9v-6.9ZM138.8 347.7c-.6-.2-1.1-.3-1.6-.3-.4 0-.8.1-1 .2-.2.2-.4.4-.4.7 0 .4.2.7.5.9.4.2.9.4 1.6.6.7.2 1.3.4 1.8.6.5.2.9.5 1.2 1 .3.4.5 1 .5 1.7s-.2 1.3-.5 1.8c-.4.5-.9.9-1.5 1.1-.6.3-1.4.4-2.2.4-.9 0-1.7-.2-2.6-.5-.9-.3-1.6-.7-2.2-1.3l1-2c.5.5 1.2.9 1.9 1.2.7.3 1.3.4 1.9.4.5 0 .9-.1 1.2-.3.3-.2.4-.4.4-.8 0-.3-.1-.5-.3-.7-.2-.2-.4-.3-.7-.4-.3-.1-.7-.2-1.2-.4-.7-.2-1.3-.4-1.8-.6-.5-.2-.9-.5-1.2-.9-.3-.4-.5-1-.5-1.7 0-.6.2-1.2.5-1.7s.8-.9 1.5-1.1c.6-.3 1.3-.4 2.2-.4.7 0 1.5.1 2.2.3.7.2 1.4.5 1.9.9l-.9 2c-.5-.3-1.1-.5-1.7-.7ZM147.3 353.6c.4.4 1 .7 1.7.7s1.3-.2 1.7-.7c.4-.5.6-1 .6-1.8v-6.3h2.4v6.3c0 .9-.2 1.8-.6 2.4-.4.7-.9 1.2-1.6 1.6-.7.4-1.6.6-2.5.6-.9 0-1.8-.2-2.5-.6-.7-.4-1.3-.9-1.7-1.6-.4-.7-.6-1.5-.6-2.4v-6.3h2.4v6.3c.1.8.3 1.4.7 1.8ZM157.1 345.5h2.4v8.6h4.6v2.1h-7v-10.7ZM165.7 345.5h9v2.1h-3.3v8.7H169v-8.7h-3.3v-2.1ZM183.9 356.2l-.8-2.1h-5l-.8 2.1h-2.5l4.7-10.7h2.5l4.6 10.7h-2.7Zm-5-4h3.4l-1.7-4.2-1.7 4.2ZM186.6 345.5h9v2.1h-3.3v8.7h-2.4v-8.7h-3.3v-2.1ZM198 345.5h2.4v10.7H198v-10.7ZM211.9 346c.9.5 1.6 1.1 2.1 2 .5.9.8 1.8.8 2.8 0 1-.3 2-.8 2.8-.5.8-1.2 1.5-2.1 2-.9.5-1.9.7-2.9.7-1.1 0-2.1-.2-2.9-.7-.9-.5-1.6-1.2-2.1-2s-.8-1.8-.8-2.8c0-1 .3-2 .8-2.8.5-.8 1.2-1.5 2.1-2 .9-.5 1.9-.7 2.9-.7 1.1 0 2 .3 2.9.7Zm-4.5 1.9c-.5.3-.9.7-1.2 1.2-.3.5-.4 1.1-.4 1.7 0 .6.2 1.2.5 1.7s.7.9 1.2 1.2c.5.3 1.1.5 1.6.5.6 0 1.1-.2 1.6-.5s.9-.7 1.2-1.2c.3-.5.4-1.1.4-1.7 0-.6-.1-1.2-.4-1.7-.3-.5-.7-.9-1.2-1.2-.5-.3-1-.5-1.6-.5-.7 0-1.2.2-1.7.5ZM224.9 345.5h2.3v10.7H225l-5.2-6.9v6.9h-2.3v-10.7h2.2l5.2 6.9v-6.9ZM235.5 345.5h8.2v2h-5.8v2.3h5.2v2h-5.2v2.4h5.9v2h-8.3v-10.7ZM246.1 345.5h2.8l2.2 3.3 2.3-3.3h2.9l-3.6 5.1 3.9 5.6h-2.9l-2.5-3.6-2.5 3.6h-2.8l3.9-5.5-3.7-5.2ZM267 356.2l-.8-2.1h-5l-.8 2.1h-2.5l4.7-10.7h2.5l4.6 10.7H267Zm-5-4h3.4l-1.7-4.2-1.7 4.2ZM271.9 345.5h2.7l3.3 6.6 3.3-6.6h2.7v10.7h-2.2V349l-3.1 6.2H277l-3.1-6.2v7.3h-2.2v-10.8h.2ZM300.1 356.2l-.8-2.1h-5l-.8 2.1H291l4.7-10.7h2.5l4.6 10.7h-2.7Zm-5-4h3.4l-1.7-4.2-1.7 4.2ZM312.5 346.2c.9.5 1.5 1.1 2 1.9.5.8.7 1.7.7 2.8 0 1.1-.2 2-.7 2.8-.5.8-1.2 1.4-2 1.9s-1.9.7-3 .7H305v-10.7h4.6c1-.1 2 .1 2.9.6Zm-1.3 7.6c.5-.3.8-.7 1.1-1.2.3-.5.4-1.1.4-1.7 0-.6-.1-1.2-.4-1.7-.3-.5-.7-.9-1.2-1.2-.5-.3-1-.4-1.6-.4h-2.1v6.7h2.2c.6-.1 1.1-.3 1.6-.5ZM322.4 355.4c-.6.6-1.5.9-2.6.9-1.4 0-2.6-.6-3.5-1.7l1.1-1.7c.4.4.8.7 1.2.9.4.2.8.3 1.1.3.4 0 .7-.1 1-.4.3-.3.3-.6.3-1v-5.2h-3.7v-2.1h6.1v7.3c0 1.2-.3 2.1-1 2.7ZM329.6 353.6c.4.4 1 .7 1.7.7s1.3-.2 1.7-.7c.4-.4.6-1 .6-1.8v-6.3h2.4v6.3c0 .9-.2 1.8-.6 2.4-.4.6-.9 1.2-1.6 1.6-.7.4-1.6.6-2.5.6-.9 0-1.8-.2-2.5-.6-.7-.4-1.3-.9-1.7-1.6-.4-.7-.6-1.5-.6-2.4v-6.3h2.4v6.3c0 .8.3 1.4.7 1.8ZM344.7 347.7c-.6-.2-1.1-.3-1.6-.3-.4 0-.8.1-1 .2-.2.1-.4.4-.4.7 0 .4.2.7.5.9.4.2.9.4 1.6.6.7.2 1.3.4 1.8.6.5.2.9.5 1.2 1 .3.4.5 1 .5 1.7s-.2 1.3-.5 1.8c-.4.5-.9.9-1.5 1.1-.6.3-1.4.4-2.2.4-.9 0-1.7-.2-2.6-.5-.8-.3-1.6-.7-2.2-1.3l1-2c.5.5 1.2.9 1.9 1.2.7.3 1.3.4 1.9.4.5 0 .9-.1 1.2-.3.3-.2.4-.4.4-.8 0-.3-.1-.5-.3-.7-.2-.2-.4-.3-.7-.4-.3-.1-.7-.2-1.2-.4-.7-.2-1.3-.4-1.8-.6-.5-.2-.9-.5-1.2-.9-.3-.4-.5-1-.5-1.7 0-.6.2-1.2.5-1.7s.8-.9 1.5-1.1c.7-.2 1.3-.4 2.2-.4.7 0 1.5.1 2.2.3.7.2 1.3.5 1.9.9l-.9 2c-.5-.3-1.1-.5-1.7-.7ZM349.3 345.5h9v2.1H355v8.7h-2.4v-8.7h-3.3v-2.1ZM360.7 345.5h2.7l3.3 6.6 3.3-6.6h2.7v10.7h-2.2V349l-3.1 6.2h-1.6l-3.1-6.2v7.3h-2.2v-10.8h.2ZM376.3 345.5h8.2v2h-5.8v2.3h5.2v2h-5.2v2.4h5.9v2h-8.3v-10.7ZM395.1 345.5h2.3v10.7h-2.2l-5.2-6.9v6.9h-2.3v-10.7h2.2l5.2 6.9v-6.9ZM399.8 345.5h9v2.1h-3.3v8.7h-2.4v-8.7h-3.3v-2.1ZM115.484 181.07l45.523-5.753c1.199 6.392 3.223 10.904 6.07 13.536 2.848 2.632 6.332 3.948 10.454 3.948 7.343 0 13.076-3.723 17.197-11.167 2.998-5.49 5.246-17.108 6.744-34.854-5.47 5.64-11.09 9.775-16.86 12.407-5.77 2.632-12.439 3.948-20.008 3.948-14.762 0-27.239-5.264-37.43-15.791C117.058 136.816 112 123.506 112 107.414c0-10.98 2.585-20.98 7.756-30.004 5.17-9.024 12.289-15.83 21.356-20.417C150.179 52.331 161.569 50 175.283 50c16.485 0 29.711 2.858 39.678 8.573 9.966 5.64 17.909 14.663 23.829 27.07 5.995 12.333 8.992 28.651 8.992 48.955 0 29.853-6.257 51.736-18.771 65.647C216.497 214.082 199.149 221 176.969 221c-13.114 0-23.455-1.504-31.023-4.512-7.569-3.083-13.863-7.557-18.884-13.423-5.021-5.865-8.88-13.197-11.578-21.995Zm84.302-73.769c0-8.949-2.248-15.942-6.744-20.98-4.496-5.114-9.966-7.67-16.411-7.67-6.069 0-11.127 2.293-15.174 6.88-3.971 4.587-5.957 11.468-5.957 20.642 0 9.249 2.06 16.318 6.182 21.206 4.196 4.887 9.404 7.331 15.624 7.331 6.444 0 11.802-2.368 16.073-7.106 4.272-4.737 6.407-11.505 6.407-20.303ZM254.342 134.823c0-31.432 5.62-53.428 16.86-65.986C282.517 56.28 299.715 50 322.795 50c11.09 0 20.195 1.391 27.314 4.173 7.119 2.708 12.926 6.28 17.422 10.716 4.496 4.362 8.018 8.986 10.566 13.874 2.623 4.813 4.721 10.453 6.295 16.92 3.072 12.332 4.608 25.191 4.608 38.576 0 30.004-5.058 51.962-15.174 65.874C363.709 214.044 346.287 221 321.559 221c-13.863 0-25.066-2.218-33.609-6.655-8.542-4.437-15.549-10.941-21.019-19.514-3.972-6.091-7.081-14.4-9.329-24.928-2.174-10.603-3.26-22.296-3.26-35.08Zm45.41.113c0 21.055 1.836 35.456 5.508 43.201 3.747 7.67 9.142 11.505 16.186 11.505 4.646 0 8.655-1.616 12.027-4.85 3.447-3.308 5.958-8.497 7.531-15.566 1.649-7.068 2.473-18.085 2.473-33.049 0-21.958-1.873-36.697-5.62-44.217-3.672-7.595-9.217-11.392-16.636-11.392-7.568 0-13.038 3.873-16.41 11.618-3.372 7.67-5.059 21.92-5.059 42.75ZM55.4 75.8c1.9 1 4.9 2.1 9.1 3.2 4.7 1.3 8.6 2.7 11.7 4.1 3.1 1.4 5.7 3.5 8 6.3s3.4 6.5 3.4 11.1c0 5.9-2 10.7-5.9 14.2-3.9 3.6-9.1 5.8-15.4 6.7V136H51.9v-14.8c-4.5-.7-8.9-1.9-13.1-3.7-4.2-1.8-7.9-3.9-11.1-6.5l7.4-15.1c3.4 2.9 7.5 5.4 12.4 7.4s9.1 3 12.6 3c2.2 0 3.9-.4 5.1-1.2 1.2-.8 1.8-2 1.8-3.5 0-1.8-1-3.3-3-4.2-2-1-5-2-9.2-3.1-4.6-1.2-8.5-2.5-11.6-3.8-3.1-1.3-5.7-3.3-7.9-6.1-2.2-2.7-3.3-6.3-3.3-10.8 0-5.4 1.8-9.9 5.3-13.6 3.5-3.6 8.4-6 14.7-7.1v-14h14.2v13.8c4 .5 7.9 1.4 11.6 2.7 3.7 1.3 7 2.9 9.9 4.7l-7.4 15.3c-3.6-2.1-7.5-3.9-11.7-5.3-4.3-1.5-7.8-2.2-10.5-2.2-1.7 0-3.1.3-4.1 1-1 .7-1.5 1.6-1.5 2.9 0 1.6 1 3 2.9 4Z" fill="#fff"/></svg>
