<svg width="186" height="91" fill="none" xmlns="http://www.w3.org/2000/svg"><path d="M14 17.9c.9.5 2.4 1 4.4 1.5 2.3.6 4.1 1.3 5.6 2s2.7 1.7 3.8 3c1.1 1.3 1.6 3.1 1.6 5.3 0 2.8-.9 5.1-2.8 6.8-1.9 1.7-4.4 2.8-7.4 3.2v7h-6.8v-7.1c-2.2-.3-4.3-.9-6.3-1.8-2-.8-3.8-1.9-5.4-3.1l3.6-7.3c1.6 1.4 3.6 2.6 6 3.6 2.3 1 4.4 1.4 6 1.4 1 0 1.9-.2 2.4-.6.6-.4.9-1 .9-1.7 0-.9-.5-1.6-1.4-2-1-.5-2.4-1-4.4-1.5-2.2-.6-4.1-1.2-5.6-1.8-1.5-.6-2.7-1.6-3.8-2.9-1.1-1.3-1.6-3-1.6-5.2 0-2.6.9-4.8 2.6-6.5 1.7-1.7 4.1-2.9 7.1-3.4V0h6.8v6.6c1.9.2 3.8.7 5.6 1.3 1.8.6 3.4 1.4 4.8 2.3L26 17.6c-1.7-1-3.6-1.9-5.7-2.6-2.1-.7-3.7-1.1-5.1-1.1-.8 0-1.5.2-2 .5s-.7.8-.7 1.4c.1 1 .6 1.6 1.5 2.1ZM37.847 69.22l24.126-3.038c.635 3.376 1.707 5.76 3.216 7.15 1.51 1.39 3.356 2.084 5.54 2.084 3.892 0 6.93-1.966 9.115-5.898 1.588-2.899 2.78-9.035 3.574-18.407-2.9 2.979-5.878 5.163-8.936 6.553-3.058 1.39-6.592 2.085-10.603 2.085-7.824 0-14.436-2.78-19.837-8.34C38.681 45.85 36 38.82 36 30.321c0-5.798 1.37-11.08 4.11-15.846 2.74-4.765 6.513-8.36 11.319-10.782C56.234 1.231 62.27 0 69.539 0c8.736 0 15.745 1.51 21.028 4.527 5.282 2.979 9.491 7.744 12.629 14.297 3.177 6.513 4.765 15.131 4.765 25.854 0 15.766-3.316 27.322-9.948 34.67-6.633 7.307-15.826 10.96-27.581 10.96-6.95 0-12.43-.794-16.442-2.383-4.01-1.628-7.347-3.99-10.008-7.088-2.66-3.098-4.706-6.97-6.135-11.617Zm44.677-38.958c0-4.726-1.191-8.42-3.574-11.08-2.383-2.7-5.282-4.051-8.697-4.051-3.217 0-5.897 1.211-8.042 3.634-2.105 2.422-3.157 6.056-3.157 10.901 0 4.885 1.092 8.618 3.276 11.2 2.224 2.58 4.984 3.871 8.28 3.871 3.416 0 6.255-1.25 8.519-3.753 2.264-2.502 3.395-6.076 3.395-10.722ZM114 44.797c0-16.6 2.978-28.217 8.936-34.849C128.932 3.316 138.047 0 150.278 0c5.878 0 10.703.735 14.476 2.204 3.773 1.43 6.85 3.316 9.233 5.66 2.383 2.303 4.25 4.745 5.6 7.326 1.39 2.542 2.502 5.52 3.336 8.936 1.628 6.513 2.442 13.304 2.442 20.373 0 15.845-2.68 27.442-8.042 34.79-5.361 7.346-14.595 11.02-27.7 11.02-7.347 0-13.284-1.172-17.812-3.515-4.527-2.343-8.24-5.779-11.139-10.306-2.105-3.217-3.753-7.605-4.945-13.165-1.151-5.6-1.727-11.775-1.727-18.526Zm24.066.06c0 11.12.973 18.724 2.919 22.815 1.986 4.05 4.845 6.076 8.578 6.076 2.463 0 4.587-.854 6.374-2.562 1.827-1.747 3.158-4.487 3.992-8.22.873-3.734 1.31-9.551 1.31-17.454 0-11.597-.993-19.38-2.978-23.352-1.946-4.01-4.885-6.017-8.817-6.017-4.011 0-6.91 2.046-8.697 6.136-1.787 4.051-2.681 11.577-2.681 22.577Z" fill="#fff"/></svg>
