<svg width="287" height="100" fill="none" xmlns="http://www.w3.org/2000/svg"><path d="M26.8 37.1c-2.4-.8-4.6-1.2-6.5-1.2-2.1 0-3.7.4-4.9 1.2-1.2.8-1.8 1.9-1.8 3.2 0 1.3.4 2.3 1.3 3.2.8.8 1.9 1.5 3.2 2.1 1.3.5 3 1.1 5.2 1.8 3.1.9 5.6 1.8 7.6 2.7 2 .9 3.6 2.3 5 4 1.4 1.8 2.1 4.1 2.1 7 0 2.8-.7 5.2-2.2 7.2-1.5 2.1-3.6 3.6-6.2 4.7s-5.6 1.6-9 1.6c-3.6 0-7-.7-10.4-2-3.4-1.3-6.3-3.1-8.8-5.3L5 59.9c2.3 2.1 4.9 3.8 7.7 5 2.9 1.2 5.5 1.8 8 1.8 2.4 0 4.3-.5 5.7-1.4 1.4-.9 2.1-2.2 2.1-3.8 0-1.3-.4-2.4-1.3-3.2-.8-.8-1.9-1.5-3.2-2-1.3-.5-3.1-1.1-5.3-1.8-3.1-.9-5.6-1.8-7.5-2.7-1.9-.9-3.6-2.2-5-3.9-1.4-1.8-2.1-4.1-2.1-6.9 0-2.6.7-4.9 2.1-6.9 1.4-2 3.4-3.5 6-4.6 2.6-1.1 5.6-1.6 8.9-1.6 2.9 0 5.9.4 8.7 1.3 2.9.9 5.4 2 7.7 3.5L34 40.3c-2.4-1.3-4.8-2.4-7.2-3.2ZM79.8 32.8c3.1 2.7 4.7 6.6 4.7 11.6 0 5.2-1.6 9.2-4.7 12.1-3.1 2.9-7.6 4.3-13.3 4.3h-9.9v13.4h-8.7V28.7h18.7c5.6 0 10 1.4 13.2 4.1ZM73.6 51c1.8-1.4 2.6-3.6 2.6-6.4 0-2.8-.9-4.9-2.6-6.2-1.8-1.4-4.3-2.1-7.6-2.1h-9.5v16.8H66c3.3 0 5.8-.7 7.6-2.1ZM93.3 28.7h33.3v7.6H102v11.2h22.1v7.6H102v11.4h25.4v7.6H93.3V28.7ZM165.2 37.5c-2.2-1-4.4-1.6-6.7-1.6-2.8 0-5.4.7-7.7 2s-4.2 3.2-5.5 5.6c-1.3 2.4-2 5-2 7.8s.7 5.4 2 7.8c1.3 2.4 3.2 4.2 5.5 5.6 2.3 1.4 4.9 2 7.7 2 2.2 0 4.3-.5 6.5-1.4 2.2-1 4.1-2.3 5.8-4L176 67c-2.4 2.4-5.2 4.3-8.3 5.8-3.2 1.4-6.4 2.1-9.6 2.1-4.4 0-8.4-1-12-3.1-3.6-2.1-6.5-4.9-8.6-8.5-2.1-3.6-3.1-7.5-3.1-11.9 0-4.3 1.1-8.3 3.2-11.8 2.1-3.6 5-6.3 8.7-8.4 3.7-2 7.7-3.1 12.2-3.1 3.2 0 6.4.6 9.6 1.9 3.1 1.3 5.8 3.1 8 5.4l-5.1 6.4c-1.8-1.8-3.7-3.3-5.8-4.3ZM184.7 28.7h8.7v45.5h-8.7V28.7ZM239.9 74.2l-4-9.6h-22.2l-4 9.6h-9l20-45.5h9l19.7 45.5h-9.5Zm-23.1-17.1h16L224.9 38l-8.1 19.1ZM256.4 28.7h8.7v37.6h19.6v7.9h-28.3V28.7ZM13.9.4h3.8V18H14L5.5 6.7V18H1.7V.4h3.6l8.5 11.3.1-11.3ZM32.1.4h13.4v3.3h-9.4v3.8h8.4v3.3h-8.4v3.9h9.7V18H32.2L32.1.4ZM80.9.4H85L79.1 18H75L71.3 5.3 67.6 18h-4.1L57.6.5h4.3l3.8 13.4L69.5.5h3.9l3.8 13.4L80.9.4ZM126.8 2c1.2 1.1 1.8 2.6 1.8 4.5 0 2-.6 3.6-1.8 4.8-1.2 1.2-3 1.7-5.2 1.7h-3.5v5h-4V.4h7.4c2.3 0 4 .5 5.3 1.6Zm-2.9 6.9c.6-.5.9-1.3.9-2.2 0-1-.3-1.7-.9-2.2-.6-.5-1.5-.7-2.6-.7H118v5.9h3.3c1.2-.1 2-.3 2.6-.8ZM153.5 18l-1.4-3.4H144l-1.4 3.4h-4.1L146.1.5h4.1l7.5 17.5h-4.2Zm-8.2-6.6h5.5L148 4.6l-2.7 6.8ZM166.6.4h14.7v3.4h-5.4V18h-4V3.8h-5.3V.4ZM194.1.4h4V18h-4V.4ZM212.6.4H226v3.3h-9.4v3.8h8.4v3.3h-8.4v3.9h9.7V18h-13.6V.4h-.1ZM252.1.4h3.8V18h-3.6l-8.5-11.3V18H240V.4h3.6l8.5 11.3V.4ZM268.7.4h14.7v3.4H278V18h-4V3.8h-5.3V.4ZM6.7 91.3c-.5-.2-.9-.3-1.4-.3-.5 0-1 .1-1.5.4-.5.3-.8.6-1.1 1.1-.3.5-.4 1-.4 1.5s.1 1.1.4 1.6c.3.5.6.8 1.1 1.1.5.3 1 .4 1.5.4.4 0 .9-.1 1.3-.3.5-.2.9-.5 1.2-.8l1.3 1.4c-.5.5-1.1 1-1.8 1.3-.7.3-1.4.5-2.1.5-1 0-1.8-.2-2.6-.7-.8-.4-1.4-1-1.8-1.8-.4-.8-.7-1.6-.7-2.6 0-.9.2-1.8.7-2.5.5-.8 1.1-1.4 1.9-1.8.8-.4 1.7-.7 2.6-.7.7 0 1.4.1 2.1.4.7.3 1.3.7 1.8 1.2l-1.3 1.6c-.3-.5-.7-.8-1.2-1ZM18.3 89.7c.8.4 1.4 1 1.9 1.8s.7 1.6.7 2.6c0 .9-.2 1.8-.7 2.6-.5.8-1.1 1.4-1.9 1.8-.8.4-1.7.7-2.7.7-1 0-1.9-.2-2.7-.7-.8-.4-1.4-1-1.9-1.8s-.7-1.6-.7-2.6c0-.9.2-1.8.7-2.6.5-.8 1.1-1.4 1.9-1.8.8-.4 1.7-.7 2.7-.7 1 0 1.9.2 2.7.7Zm-4.1 1.7c-.5.3-.8.6-1.1 1.1-.3.5-.4 1-.4 1.6 0 .6.1 1.1.4 1.6.3.5.6.8 1.1 1.1.5.3 1 .4 1.5.4s1-.1 1.5-.4c.5-.3.8-.6 1.1-1.1.3-.5.4-1 .4-1.6 0-.6-.1-1.1-.4-1.6-.3-.5-.6-.8-1.1-1.1-.5-.3-.9-.4-1.5-.4s-1.1.1-1.5.4ZM29.8 89.2h2.1v9.7h-2l-4.7-6.3v6.3h-2.1v-9.7h2l4.7 6.3v-6.3ZM39.7 91.2c-.6-.2-1-.3-1.4-.3-.4 0-.7.1-.9.2-.2.1-.3.3-.3.6s.2.6.5.8c.3.2.8.4 1.5.6.7.2 1.2.4 1.7.6.5.2.8.5 1.1.9.3.4.5.9.5 1.5s-.2 1.2-.5 1.6c-.3.4-.8.8-1.4 1-.6.2-1.2.3-2 .3s-1.6-.1-2.3-.4c-.8-.3-1.4-.7-2-1.1l.9-1.8c.5.4 1.1.8 1.7 1.1.6.3 1.2.4 1.8.4.5 0 .8-.1 1.1-.3.3-.2.4-.4.4-.7 0-.3-.1-.5-.3-.6-.2-.2-.4-.3-.7-.4-.3-.1-.6-.2-1.1-.3-.7-.2-1.2-.4-1.6-.6-.4-.2-.8-.5-1.1-.8-.3-.4-.5-.9-.5-1.5s.2-1.1.5-1.5c.3-.4.8-.8 1.3-1 .6-.2 1.2-.4 2-.4.7 0 1.3.1 2 .3.6.2 1.2.5 1.7.8l-.8 1.8c-.7-.4-1.3-.7-1.8-.8ZM47.1 96.6c.4.4.9.6 1.6.6.6 0 1.2-.2 1.5-.6.4-.4.6-1 .6-1.7v-5.7H53v5.7c0 .9-.2 1.6-.5 2.2-.3.6-.8 1.1-1.5 1.4-.7.3-1.4.5-2.3.5-.9 0-1.7-.2-2.3-.5-.7-.3-1.2-.8-1.5-1.4-.4-.6-.5-1.4-.5-2.2v-5.7h2.2v5.7c-.1.7.1 1.3.5 1.7ZM55.7 89.2h2.2V97h4.2v1.9h-6.4v-9.7ZM63.2 89.2h8.1V91h-3v7.9h-2.2V91h-3v-1.8h.1ZM79.5 98.9l-.8-1.9h-4.5l-.8 1.9h-2.3l4.2-9.7h2.3l4.2 9.7h-2.3ZM75 95.3h3.1l-1.5-3.8-1.6 3.8ZM81.7 89.2h8.1V91h-3v7.9h-2.2V91h-3v-1.8h.1ZM91.8 89.2H94v9.7h-2.2v-9.7ZM104.1 89.7c.8.4 1.4 1 1.9 1.8s.7 1.6.7 2.6c0 .9-.2 1.8-.7 2.6-.5.8-1.1 1.4-1.9 1.8-.8.4-1.7.7-2.7.7-1 0-1.9-.2-2.7-.7-.8-.4-1.4-1-1.9-1.8s-.7-1.6-.7-2.6c0-.9.2-1.8.7-2.6.5-.8 1.1-1.4 1.9-1.8.8-.4 1.7-.7 2.7-.7 1 0 1.9.2 2.7.7Zm-4.2 1.7c-.5.3-.8.6-1.1 1.1-.3.5-.4 1-.4 1.6 0 .6.1 1.1.4 1.6.3.5.6.8 1.1 1.1.5.3 1 .4 1.5.4s1-.1 1.5-.4c.5-.3.8-.6 1.1-1.1.3-.5.4-1 .4-1.6 0-.6-.1-1.1-.4-1.6-.3-.5-.6-.8-1.1-1.1-.5-.3-.9-.4-1.5-.4-.5 0-1 .1-1.5.4ZM115.6 89.2h2.1v9.7h-2l-4.7-6.3v6.3h-2.1v-9.7h2l4.7 6.3v-6.3ZM128.7 89.2h7.4V91h-5.2v2.1h4.7v1.8h-4.7v2.2h5.4v1.8h-7.6v-9.7ZM138 89.2h2.6l2 3 2-3h2.6l-3.2 4.7 3.5 5.1h-2.6l-2.3-3.2-2.3 3.2h-2.6l3.5-5-3.2-4.8ZM156.7 98.9 156 97h-4.5l-.8 1.9h-2.3l4.2-9.7h2.3l4.2 9.7h-2.4Zm-4.5-3.6h3.1l-1.5-3.8-1.6 3.8ZM160.9 89.2h2.5l3 6 3-6h2.4v9.7h-2v-6.6l-2.8 5.6h-1.4l-2.8-5.6v6.6h-2l.1-9.7ZM190 98.9l-.8-1.9h-4.5l-.8 1.9h-2.3l4.2-9.7h2.3l4.2 9.7H190Zm-4.6-3.6h3.1l-1.5-3.8-1.6 3.8ZM200.9 89.8c.8.4 1.4 1 1.8 1.7.4.7.6 1.6.6 2.5 0 .9-.2 1.8-.7 2.5-.4.7-1.1 1.3-1.8 1.7-.8.4-1.7.6-2.7.6H194v-9.7h4.1c1.1.1 2 .3 2.8.7Zm-1.1 6.9c.4-.3.8-.6 1-1.1.2-.5.4-1 .4-1.6 0-.6-.1-1.1-.4-1.6-.3-.5-.6-.8-1-1.1-.4-.3-.9-.4-1.5-.4h-1.9v6h2c.4.2.9.1 1.4-.2ZM209.7 98.2c-.6.6-1.4.8-2.4.8-1.3 0-2.3-.5-3.2-1.5l1-1.6c.3.4.7.6 1.1.8.4.2.7.3 1 .3.4 0 .7-.1.9-.3.2-.2.3-.5.3-.9V91H205v-1.9h5.6v6.6c0 1.1-.3 1.9-.9 2.5ZM215.9 96.6c.4.4.9.6 1.6.6.6 0 1.2-.2 1.5-.6.4-.4.6-1 .6-1.7v-5.7h2.2v5.7c0 .9-.2 1.6-.5 2.2-.3.6-.8 1.1-1.5 1.4-.7.3-1.4.5-2.3.5-.9 0-1.7-.2-2.3-.5-.7-.3-1.2-.8-1.5-1.4-.4-.6-.5-1.4-.5-2.2v-5.7h2.2v5.7c-.1.7.1 1.3.5 1.7ZM229.4 91.2c-.6-.2-1-.3-1.4-.3-.4 0-.7.1-.9.2-.2.1-.3.3-.3.6s.2.6.5.8c.3.2.8.4 1.5.6.7.2 1.2.4 1.7.6.5.2.8.5 1.1.9.3.4.5.9.5 1.5s-.2 1.2-.5 1.6c-.3.5-.8.8-1.4 1-.6.2-1.2.3-2 .3s-1.6-.1-2.3-.4c-.8-.3-1.4-.7-2-1.1l.9-1.8c.5.4 1.1.8 1.7 1.1.6.3 1.2.4 1.8.4.5 0 .8-.1 1.1-.3.3-.2.4-.4.4-.7 0-.3-.1-.5-.3-.6-.2-.2-.4-.3-.7-.4-.3-.1-.6-.2-1.1-.3-.7-.2-1.2-.4-1.6-.6-.4-.2-.8-.5-1.1-.8-.3-.3-.5-.9-.5-1.5s.2-1.1.5-1.5c.3-.4.8-.8 1.3-1 .6-.2 1.2-.4 2-.4.7 0 1.3.1 2 .3.6.2 1.2.5 1.7.8l-.8 1.8c-.7-.4-1.3-.7-1.8-.8ZM233.2 89.2h8.1V91h-3v7.9h-2.2V91h-3v-1.8h.1ZM243.3 89.2h2.5l3 6 3-6h2.4v9.7h-2v-6.6l-2.8 5.6H248l-2.8-5.6v6.6h-2l.1-9.7ZM257.2 89.2h7.4V91h-5.2v2.1h4.7v1.8h-4.7v2.2h5.4v1.8h-7.6v-9.7ZM274 89.2h2.1v9.7h-2l-4.7-6.3v6.3h-2.1v-9.7h2l4.7 6.3v-6.3ZM278 89.2h8.1V91h-3v7.9H281V91h-3v-1.8Z" fill="#fff"/></svg>
